ISO-10303-21;
HEADER;
/* Generated by software containing ST-Developer
 * from STEP Tools, Inc. (www.steptools.com) 
 */
/* OPTION: using custom renumber hook */

FILE_DESCRIPTION(
/* description */ ('STEP AP242 Edition 2',
'CAx-IF Rec.Pracs.---Representation and Presentation of Product Manufa
cturing Information (PMI)---4.0---2014-10-13',
'CAx-IF Rec.Pracs.---3D Tessellated Geometry---0.4---2014-09-14','2;1',
'CAx-IF Rec.Pracs.---User Defined Attributes---1.5---2016-08-15'),
/* implementation_level */ '2;1');

FILE_NAME(
/* name */ 'Part Studio 1 - Part 1106',
/* time_stamp */ '2026-04-11T19:18:51Z',
/* author */ (''),
/* organization */ (''),
/* preprocessor_version */ 'ST-DEVELOPER v20',
/* originating_system */ 'ONSHAPE BY PTC INC, 1.213',
/* authorisation */ '  ');

FILE_SCHEMA (('AP242_MANAGED_MODEL_BASED_3D_ENGINEERING_MIM_LF { 1 0 10303 442 3 1 4 }'));
ENDSEC;

DATA;
#10=SHAPE_REPRESENTATION_RELATIONSHIP('','',#263,#11);
#11=ADVANCED_BREP_SHAPE_REPRESENTATION('',(#261),#461);
#12=CYLINDRICAL_SURFACE('',#286,0.004);
#13=CYLINDRICAL_SURFACE('',#288,0.004);
#14=CYLINDRICAL_SURFACE('',#294,0.004);
#15=CYLINDRICAL_SURFACE('',#296,0.004);
#16=CYLINDRICAL_SURFACE('',#299,0.00139580362405021);
#17=CYLINDRICAL_SURFACE('',#300,0.00165983076279179);
#18=CYLINDRICAL_SURFACE('',#301,0.0014);
#19=CYLINDRICAL_SURFACE('',#302,0.00167442056688529);
#20=TOROIDAL_SURFACE('',#283,0.006,0.004);
#21=TOROIDAL_SURFACE('',#290,0.006,0.004);
#22=TOROIDAL_SURFACE('',#292,0.006,0.004);
#23=TOROIDAL_SURFACE('',#298,0.006,0.004);
#24=LINE('',#399,#32);
#25=LINE('',#404,#33);
#26=LINE('',#408,#34);
#27=LINE('',#412,#35);
#28=LINE('',#424,#36);
#29=LINE('',#429,#37);
#30=LINE('',#433,#38);
#31=LINE('',#437,#39);
#32=VECTOR('',#315,1.);
#33=VECTOR('',#318,1.);
#34=VECTOR('',#321,1.);
#35=VECTOR('',#324,1.);
#36=VECTOR('',#337,1.);
#37=VECTOR('',#340,1.);
#38=VECTOR('',#343,1.);
#39=VECTOR('',#346,1.);
#40=ORIENTED_EDGE('',*,*,#104,.F.);
#41=ORIENTED_EDGE('',*,*,#105,.F.);
#42=ORIENTED_EDGE('',*,*,#106,.F.);
#43=ORIENTED_EDGE('',*,*,#107,.F.);
#44=ORIENTED_EDGE('',*,*,#108,.T.);
#45=ORIENTED_EDGE('',*,*,#109,.T.);
#46=ORIENTED_EDGE('',*,*,#110,.T.);
#47=ORIENTED_EDGE('',*,*,#111,.T.);
#48=ORIENTED_EDGE('',*,*,#112,.T.);
#49=ORIENTED_EDGE('',*,*,#113,.T.);
#50=ORIENTED_EDGE('',*,*,#114,.T.);
#51=ORIENTED_EDGE('',*,*,#115,.T.);
#52=ORIENTED_EDGE('',*,*,#116,.T.);
#53=ORIENTED_EDGE('',*,*,#117,.T.);
#54=ORIENTED_EDGE('',*,*,#118,.T.);
#55=ORIENTED_EDGE('',*,*,#119,.T.);
#56=ORIENTED_EDGE('',*,*,#120,.T.);
#57=ORIENTED_EDGE('',*,*,#121,.F.);
#58=ORIENTED_EDGE('',*,*,#122,.T.);
#59=ORIENTED_EDGE('',*,*,#123,.F.);
#60=ORIENTED_EDGE('',*,*,#124,.F.);
#61=ORIENTED_EDGE('',*,*,#125,.F.);
#62=ORIENTED_EDGE('',*,*,#126,.F.);
#63=ORIENTED_EDGE('',*,*,#127,.F.);
#64=ORIENTED_EDGE('',*,*,#128,.F.);
#65=ORIENTED_EDGE('',*,*,#123,.T.);
#66=ORIENTED_EDGE('',*,*,#129,.F.);
#67=ORIENTED_EDGE('',*,*,#113,.F.);
#68=ORIENTED_EDGE('',*,*,#129,.T.);
#69=ORIENTED_EDGE('',*,*,#122,.F.);
#70=ORIENTED_EDGE('',*,*,#130,.F.);
#71=ORIENTED_EDGE('',*,*,#114,.F.);
#72=ORIENTED_EDGE('',*,*,#128,.T.);
#73=ORIENTED_EDGE('',*,*,#112,.F.);
#74=ORIENTED_EDGE('',*,*,#131,.F.);
#75=ORIENTED_EDGE('',*,*,#124,.T.);
#76=ORIENTED_EDGE('',*,*,#130,.T.);
#77=ORIENTED_EDGE('',*,*,#121,.T.);
#78=ORIENTED_EDGE('',*,*,#132,.F.);
#79=ORIENTED_EDGE('',*,*,#115,.F.);
#80=ORIENTED_EDGE('',*,*,#131,.T.);
#81=ORIENTED_EDGE('',*,*,#111,.F.);
#82=ORIENTED_EDGE('',*,*,#133,.F.);
#83=ORIENTED_EDGE('',*,*,#125,.T.);
#84=ORIENTED_EDGE('',*,*,#132,.T.);
#85=ORIENTED_EDGE('',*,*,#120,.F.);
#86=ORIENTED_EDGE('',*,*,#134,.F.);
#87=ORIENTED_EDGE('',*,*,#108,.F.);
#88=ORIENTED_EDGE('',*,*,#133,.T.);
#89=ORIENTED_EDGE('',*,*,#110,.F.);
#90=ORIENTED_EDGE('',*,*,#135,.F.);
#91=ORIENTED_EDGE('',*,*,#126,.T.);
#92=ORIENTED_EDGE('',*,*,#134,.T.);
#93=ORIENTED_EDGE('',*,*,#127,.T.);
#94=ORIENTED_EDGE('',*,*,#135,.T.);
#95=ORIENTED_EDGE('',*,*,#109,.F.);
#96=ORIENTED_EDGE('',*,*,#107,.T.);
#97=ORIENTED_EDGE('',*,*,#119,.F.);
#98=ORIENTED_EDGE('',*,*,#106,.T.);
#99=ORIENTED_EDGE('',*,*,#118,.F.);
#100=ORIENTED_EDGE('',*,*,#105,.T.);
#101=ORIENTED_EDGE('',*,*,#117,.F.);
#102=ORIENTED_EDGE('',*,*,#104,.T.);
#103=ORIENTED_EDGE('',*,*,#116,.F.);
#104=EDGE_CURVE('',#136,#136,#160,.T.);
#105=EDGE_CURVE('',#137,#137,#161,.T.);
#106=EDGE_CURVE('',#138,#138,#162,.T.);
#107=EDGE_CURVE('',#139,#139,#163,.T.);
#108=EDGE_CURVE('',#140,#141,#24,.F.);
#109=EDGE_CURVE('',#141,#142,#164,.T.);
#110=EDGE_CURVE('',#142,#143,#25,.T.);
#111=EDGE_CURVE('',#143,#144,#165,.T.);
#112=EDGE_CURVE('',#144,#145,#26,.T.);
#113=EDGE_CURVE('',#145,#146,#166,.T.);
#114=EDGE_CURVE('',#146,#147,#27,.F.);
#115=EDGE_CURVE('',#147,#140,#167,.T.);
#116=EDGE_CURVE('',#148,#148,#168,.T.);
#117=EDGE_CURVE('',#149,#149,#169,.T.);
#118=EDGE_CURVE('',#150,#150,#170,.T.);
#119=EDGE_CURVE('',#151,#151,#171,.T.);
#120=EDGE_CURVE('',#152,#153,#28,.T.);
#121=EDGE_CURVE('',#154,#153,#172,.T.);
#122=EDGE_CURVE('',#154,#155,#29,.T.);
#123=EDGE_CURVE('',#156,#155,#173,.T.);
#124=EDGE_CURVE('',#157,#156,#30,.T.);
#125=EDGE_CURVE('',#158,#157,#174,.T.);
#126=EDGE_CURVE('',#159,#158,#31,.T.);
#127=EDGE_CURVE('',#152,#159,#175,.T.);
#128=EDGE_CURVE('',#156,#145,#176,.T.);
#129=EDGE_CURVE('',#146,#155,#177,.T.);
#130=EDGE_CURVE('',#147,#154,#178,.T.);
#131=EDGE_CURVE('',#157,#144,#179,.T.);
#132=EDGE_CURVE('',#140,#153,#180,.T.);
#133=EDGE_CURVE('',#158,#143,#181,.T.);
#134=EDGE_CURVE('',#141,#152,#182,.T.);
#135=EDGE_CURVE('',#159,#142,#183,.T.);
#136=VERTEX_POINT('',#392);
#137=VERTEX_POINT('',#394);
#138=VERTEX_POINT('',#396);
#139=VERTEX_POINT('',#398);
#140=VERTEX_POINT('',#400);
#141=VERTEX_POINT('',#401);
#142=VERTEX_POINT('',#403);
#143=VERTEX_POINT('',#405);
#144=VERTEX_POINT('',#407);
#145=VERTEX_POINT('',#409);
#146=VERTEX_POINT('',#411);
#147=VERTEX_POINT('',#413);
#148=VERTEX_POINT('',#417);
#149=VERTEX_POINT('',#419);
#150=VERTEX_POINT('',#421);
#151=VERTEX_POINT('',#423);
#152=VERTEX_POINT('',#425);
#153=VERTEX_POINT('',#426);
#154=VERTEX_POINT('',#428);
#155=VERTEX_POINT('',#430);
#156=VERTEX_POINT('',#432);
#157=VERTEX_POINT('',#434);
#158=VERTEX_POINT('',#436);
#159=VERTEX_POINT('',#438);
#160=CIRCLE('',#266,0.00167442056688529);
#161=CIRCLE('',#267,0.0014);
#162=CIRCLE('',#268,0.00165983076279179);
#163=CIRCLE('',#269,0.00139580362405021);
#164=CIRCLE('',#270,0.006);
#165=CIRCLE('',#271,0.006);
#166=CIRCLE('',#272,0.006);
#167=CIRCLE('',#273,0.006);
#168=CIRCLE('',#275,0.00167442056688529);
#169=CIRCLE('',#276,0.0014);
#170=CIRCLE('',#277,0.00165983076279179);
#171=CIRCLE('',#278,0.00139580362405021);
#172=CIRCLE('',#279,0.01);
#173=CIRCLE('',#280,0.01);
#174=CIRCLE('',#281,0.01);
#175=CIRCLE('',#282,0.01);
#176=CIRCLE('',#284,0.004);
#177=CIRCLE('',#285,0.004);
#178=CIRCLE('',#287,0.004);
#179=CIRCLE('',#289,0.004);
#180=CIRCLE('',#291,0.004);
#181=CIRCLE('',#293,0.004);
#182=CIRCLE('',#295,0.004);
#183=CIRCLE('',#297,0.004);
#184=EDGE_LOOP('',(#40));
#185=EDGE_LOOP('',(#41));
#186=EDGE_LOOP('',(#42));
#187=EDGE_LOOP('',(#43));
#188=EDGE_LOOP('',(#44,#45,#46,#47,#48,#49,#50,#51));
#189=EDGE_LOOP('',(#52));
#190=EDGE_LOOP('',(#53));
#191=EDGE_LOOP('',(#54));
#192=EDGE_LOOP('',(#55));
#193=EDGE_LOOP('',(#56,#57,#58,#59,#60,#61,#62,#63));
#194=EDGE_LOOP('',(#64,#65,#66,#67));
#195=EDGE_LOOP('',(#68,#69,#70,#71));
#196=EDGE_LOOP('',(#72,#73,#74,#75));
#197=EDGE_LOOP('',(#76,#77,#78,#79));
#198=EDGE_LOOP('',(#80,#81,#82,#83));
#199=EDGE_LOOP('',(#84,#85,#86,#87));
#200=EDGE_LOOP('',(#88,#89,#90,#91));
#201=EDGE_LOOP('',(#92,#93,#94,#95));
#202=EDGE_LOOP('',(#96));
#203=EDGE_LOOP('',(#97));
#204=EDGE_LOOP('',(#98));
#205=EDGE_LOOP('',(#99));
#206=EDGE_LOOP('',(#100));
#207=EDGE_LOOP('',(#101));
#208=EDGE_LOOP('',(#102));
#209=EDGE_LOOP('',(#103));
#210=FACE_BOUND('',#184,.T.);
#211=FACE_BOUND('',#185,.T.);
#212=FACE_BOUND('',#186,.T.);
#213=FACE_BOUND('',#187,.T.);
#214=FACE_BOUND('',#188,.T.);
#215=FACE_BOUND('',#189,.T.);
#216=FACE_BOUND('',#190,.T.);
#217=FACE_BOUND('',#191,.T.);
#218=FACE_BOUND('',#192,.T.);
#219=FACE_BOUND('',#193,.T.);
#220=FACE_BOUND('',#194,.T.);
#221=FACE_BOUND('',#195,.T.);
#222=FACE_BOUND('',#196,.T.);
#223=FACE_BOUND('',#197,.T.);
#224=FACE_BOUND('',#198,.T.);
#225=FACE_BOUND('',#199,.T.);
#226=FACE_BOUND('',#200,.T.);
#227=FACE_BOUND('',#201,.T.);
#228=FACE_BOUND('',#202,.T.);
#229=FACE_BOUND('',#203,.T.);
#230=FACE_BOUND('',#204,.T.);
#231=FACE_BOUND('',#205,.T.);
#232=FACE_BOUND('',#206,.T.);
#233=FACE_BOUND('',#207,.T.);
#234=FACE_BOUND('',#208,.T.);
#235=FACE_BOUND('',#209,.T.);
#236=PLANE('',#265);
#237=PLANE('',#274);
#238=ADVANCED_FACE('',(#210,#211,#212,#213,#214),#236,.T.);
#239=ADVANCED_FACE('',(#215,#216,#217,#218,#219),#237,.F.);
#240=ADVANCED_FACE('',(#220),#20,.T.);
#241=ADVANCED_FACE('',(#221),#12,.T.);
#242=ADVANCED_FACE('',(#222),#13,.T.);
#243=ADVANCED_FACE('',(#223),#21,.T.);
#244=ADVANCED_FACE('',(#224),#22,.T.);
#245=ADVANCED_FACE('',(#225),#14,.T.);
#246=ADVANCED_FACE('',(#226),#15,.T.);
#247=ADVANCED_FACE('',(#227),#23,.T.);
#248=ADVANCED_FACE('',(#228,#229),#16,.F.);
#249=ADVANCED_FACE('',(#230,#231),#17,.F.);
#250=ADVANCED_FACE('',(#232,#233),#18,.F.);
#251=ADVANCED_FACE('',(#234,#235),#19,.F.);
#252=CLOSED_SHELL('',(#238,#239,#240,#241,#242,#243,#244,#245,#246,#247,
#248,#249,#250,#251));
#253=STYLED_ITEM('',(#254),#261);
#254=PRESENTATION_STYLE_ASSIGNMENT((#255));
#255=SURFACE_STYLE_USAGE(.BOTH.,#256);
#256=SURFACE_SIDE_STYLE('',(#257));
#257=SURFACE_STYLE_FILL_AREA(#258);
#258=FILL_AREA_STYLE('',(#259));
#259=FILL_AREA_STYLE_COLOUR('',#260);
#260=COLOUR_RGB('',0.917647058823529,0.917647058823529,0.917647058823529);
#261=MANIFOLD_SOLID_BREP('Part 1106',#252);
#262=SHAPE_DEFINITION_REPRESENTATION(#466,#263);
#263=SHAPE_REPRESENTATION('Part 1106',(#264),#461);
#264=AXIS2_PLACEMENT_3D('',#389,#303,#304);
#265=AXIS2_PLACEMENT_3D('',#390,#305,#306);
#266=AXIS2_PLACEMENT_3D('',#391,#307,#308);
#267=AXIS2_PLACEMENT_3D('',#393,#309,#310);
#268=AXIS2_PLACEMENT_3D('',#395,#311,#312);
#269=AXIS2_PLACEMENT_3D('',#397,#313,#314);
#270=AXIS2_PLACEMENT_3D('',#402,#316,#317);
#271=AXIS2_PLACEMENT_3D('',#406,#319,#320);
#272=AXIS2_PLACEMENT_3D('',#410,#322,#323);
#273=AXIS2_PLACEMENT_3D('',#414,#325,#326);
#274=AXIS2_PLACEMENT_3D('',#415,#327,#328);
#275=AXIS2_PLACEMENT_3D('',#416,#329,#330);
#276=AXIS2_PLACEMENT_3D('',#418,#331,#332);
#277=AXIS2_PLACEMENT_3D('',#420,#333,#334);
#278=AXIS2_PLACEMENT_3D('',#422,#335,#336);
#279=AXIS2_PLACEMENT_3D('',#427,#338,#339);
#280=AXIS2_PLACEMENT_3D('',#431,#341,#342);
#281=AXIS2_PLACEMENT_3D('',#435,#344,#345);
#282=AXIS2_PLACEMENT_3D('',#439,#347,#348);
#283=AXIS2_PLACEMENT_3D('',#440,#349,#350);
#284=AXIS2_PLACEMENT_3D('',#441,#351,#352);
#285=AXIS2_PLACEMENT_3D('',#442,#353,#354);
#286=AXIS2_PLACEMENT_3D('',#443,#355,#356);
#287=AXIS2_PLACEMENT_3D('',#444,#357,#358);
#288=AXIS2_PLACEMENT_3D('',#445,#359,#360);
#289=AXIS2_PLACEMENT_3D('',#446,#361,#362);
#290=AXIS2_PLACEMENT_3D('',#447,#363,#364);
#291=AXIS2_PLACEMENT_3D('',#448,#365,#366);
#292=AXIS2_PLACEMENT_3D('',#449,#367,#368);
#293=AXIS2_PLACEMENT_3D('',#450,#369,#370);
#294=AXIS2_PLACEMENT_3D('',#451,#371,#372);
#295=AXIS2_PLACEMENT_3D('',#452,#373,#374);
#296=AXIS2_PLACEMENT_3D('',#453,#375,#376);
#297=AXIS2_PLACEMENT_3D('',#454,#377,#378);
#298=AXIS2_PLACEMENT_3D('',#455,#379,#380);
#299=AXIS2_PLACEMENT_3D('',#456,#381,#382);
#300=AXIS2_PLACEMENT_3D('',#457,#383,#384);
#301=AXIS2_PLACEMENT_3D('',#458,#385,#386);
#302=AXIS2_PLACEMENT_3D('',#459,#387,#388);
#303=DIRECTION('',(0.,0.,1.));
#304=DIRECTION('',(1.,0.,0.));
#305=DIRECTION('',(0.,0.,1.));
#306=DIRECTION('',(1.,0.,0.));
#307=DIRECTION('',(0.,0.,1.));
#308=DIRECTION('',(1.,0.,0.));
#309=DIRECTION('',(0.,0.,1.));
#310=DIRECTION('',(1.,0.,0.));
#311=DIRECTION('',(0.,0.,1.));
#312=DIRECTION('',(1.,0.,0.));
#313=DIRECTION('',(0.,0.,1.));
#314=DIRECTION('',(1.,0.,0.));
#315=DIRECTION('',(-1.,-2.08166817117217E-16,0.));
#316=DIRECTION('',(0.,0.,1.));
#317=DIRECTION('',(1.,0.,0.));
#318=DIRECTION('',(0.,1.,0.));
#319=DIRECTION('',(0.,0.,1.));
#320=DIRECTION('',(1.,0.,0.));
#321=DIRECTION('',(-1.,-1.38777878078145E-16,0.));
#322=DIRECTION('',(0.,0.,1.));
#323=DIRECTION('',(1.,0.,0.));
#324=DIRECTION('',(0.,1.,0.));
#325=DIRECTION('',(0.,0.,1.));
#326=DIRECTION('',(1.,0.,0.));
#327=DIRECTION('',(0.,0.,1.));
#328=DIRECTION('',(1.,0.,0.));
#329=DIRECTION('',(0.,0.,1.));
#330=DIRECTION('',(1.,0.,0.));
#331=DIRECTION('',(0.,0.,1.));
#332=DIRECTION('',(1.,0.,0.));
#333=DIRECTION('',(0.,0.,1.));
#334=DIRECTION('',(1.,0.,0.));
#335=DIRECTION('',(0.,0.,1.));
#336=DIRECTION('',(1.,0.,0.));
#337=DIRECTION('',(-1.,-2.08166817117217E-16,0.));
#338=DIRECTION('',(0.,0.,1.));
#339=DIRECTION('',(1.,0.,0.));
#340=DIRECTION('',(0.,1.,0.));
#341=DIRECTION('',(0.,0.,1.));
#342=DIRECTION('',(1.,0.,0.));
#343=DIRECTION('',(-1.,-1.38777878078145E-16,0.));
#344=DIRECTION('',(0.,0.,1.));
#345=DIRECTION('',(1.,0.,0.));
#346=DIRECTION('',(0.,1.,0.));
#347=DIRECTION('',(0.,0.,1.));
#348=DIRECTION('',(1.,0.,0.));
#349=DIRECTION('',(0.,0.,1.));
#350=DIRECTION('',(1.,0.,0.));
#351=DIRECTION('',(1.,0.,0.));
#352=DIRECTION('',(0.,0.,-1.));
#353=DIRECTION('',(0.,-1.,0.));
#354=DIRECTION('',(0.,0.,-1.));
#355=DIRECTION('',(0.,1.,0.));
#356=DIRECTION('',(0.,0.,1.));
#357=DIRECTION('',(0.,-1.,0.));
#358=DIRECTION('',(0.,0.,-1.));
#359=DIRECTION('',(1.,1.38777878078145E-16,0.));
#360=DIRECTION('',(-1.38777878078145E-16,1.,0.));
#361=DIRECTION('',(1.,0.,1.73472347597681E-15));
#362=DIRECTION('',(1.73472347597681E-15,0.,-1.));
#363=DIRECTION('',(0.,0.,1.));
#364=DIRECTION('',(1.,0.,0.));
#365=DIRECTION('',(1.,0.,0.));
#366=DIRECTION('',(0.,0.,-1.));
#367=DIRECTION('',(0.,0.,1.));
#368=DIRECTION('',(1.,0.,0.));
#369=DIRECTION('',(0.,-1.,0.));
#370=DIRECTION('',(0.,0.,-1.));
#371=DIRECTION('',(-1.,-2.08166817117217E-16,0.));
#372=DIRECTION('',(2.08166817117217E-16,-1.,0.));
#373=DIRECTION('',(1.,0.,0.));
#374=DIRECTION('',(0.,0.,-1.));
#375=DIRECTION('',(0.,-1.,0.));
#376=DIRECTION('',(0.,0.,-1.));
#377=DIRECTION('',(0.,-1.,1.73472347597681E-15));
#378=DIRECTION('',(0.,-1.73472347597681E-15,-1.));
#379=DIRECTION('',(0.,0.,1.));
#380=DIRECTION('',(1.,0.,0.));
#381=DIRECTION('',(0.,0.,1.));
#382=DIRECTION('',(1.,0.,0.));
#383=DIRECTION('',(0.,0.,1.));
#384=DIRECTION('',(1.,0.,0.));
#385=DIRECTION('',(0.,0.,1.));
#386=DIRECTION('',(1.,0.,0.));
#387=DIRECTION('',(0.,0.,1.));
#388=DIRECTION('',(1.,0.,0.));
#389=CARTESIAN_POINT('',(0.,0.,0.));
#390=CARTESIAN_POINT('',(0.,0.0115452540975274,0.156));
#391=CARTESIAN_POINT('',(-0.0528264135026829,-0.0212811594051554,0.156));
#392=CARTESIAN_POINT('',(-0.0511519929357976,-0.0212811594051554,0.156));
#393=CARTESIAN_POINT('',(0.0530204581464245,0.044565712243952,0.156));
#394=CARTESIAN_POINT('',(0.0544204581464245,0.044565712243952,0.156));
#395=CARTESIAN_POINT('',(0.0528367300520936,-0.0212914759545661,0.156));
#396=CARTESIAN_POINT('',(0.0544965608148854,-0.0212914759545661,0.156));
#397=CARTESIAN_POINT('',(-0.053023425432315,0.0445686795298424,0.156));
#398=CARTESIAN_POINT('',(-0.0516276218082648,0.0445686795298424,0.156));
#399=CARTESIAN_POINT('',(7.49400541621981E-18,-0.0244547459024726,0.156));
#400=CARTESIAN_POINT('',(-0.05,-0.0244547459024726,0.156));
#401=CARTESIAN_POINT('',(0.05,-0.0244547459024726,0.156));
#402=CARTESIAN_POINT('',(0.05,-0.0184547459024725,0.156));
#403=CARTESIAN_POINT('',(0.056,-0.0184547459024725,0.156));
#404=CARTESIAN_POINT('',(0.056,0.0415452540975274,0.156));
#405=CARTESIAN_POINT('',(0.056,0.0415452540975274,0.156));
#406=CARTESIAN_POINT('',(0.05,0.0415452540975274,0.156));
#407=CARTESIAN_POINT('',(0.05,0.0475452540975275,0.156));
#408=CARTESIAN_POINT('',(-0.05,0.0475452540975275,0.156));
#409=CARTESIAN_POINT('',(-0.05,0.0475452540975275,0.156));
#410=CARTESIAN_POINT('',(-0.05,0.0415452540975274,0.156));
#411=CARTESIAN_POINT('',(-0.056,0.0415452540975274,0.156));
#412=CARTESIAN_POINT('',(-0.056,0.0115452540975274,0.156));
#413=CARTESIAN_POINT('',(-0.056,-0.0184547459024725,0.156));
#414=CARTESIAN_POINT('',(-0.05,-0.0184547459024725,0.156));
#415=CARTESIAN_POINT('',(0.,0.0115452540975274,0.152));
#416=CARTESIAN_POINT('',(-0.0528264135026829,-0.0212811594051554,0.152));
#417=CARTESIAN_POINT('',(-0.0511519929357976,-0.0212811594051554,0.152));
#418=CARTESIAN_POINT('',(0.0530204581464245,0.044565712243952,0.152));
#419=CARTESIAN_POINT('',(0.0544204581464245,0.044565712243952,0.152));
#420=CARTESIAN_POINT('',(0.0528367300520936,-0.0212914759545661,0.152));
#421=CARTESIAN_POINT('',(0.0544965608148854,-0.0212914759545661,0.152));
#422=CARTESIAN_POINT('',(-0.053023425432315,0.0445686795298424,0.152));
#423=CARTESIAN_POINT('',(-0.0516276218082648,0.0445686795298424,0.152));
#424=CARTESIAN_POINT('',(1.38777878078145E-17,-0.0284547459024726,0.152));
#425=CARTESIAN_POINT('',(0.05,-0.0284547459024726,0.152));
#426=CARTESIAN_POINT('',(-0.05,-0.0284547459024726,0.152));
#427=CARTESIAN_POINT('',(-0.05,-0.0184547459024725,0.152));
#428=CARTESIAN_POINT('',(-0.06,-0.0184547459024725,0.152));
#429=CARTESIAN_POINT('',(-0.06,0.0115452540975274,0.152));
#430=CARTESIAN_POINT('',(-0.06,0.0415452540975274,0.152));
#431=CARTESIAN_POINT('',(-0.05,0.0415452540975274,0.152));
#432=CARTESIAN_POINT('',(-0.05,0.0515452540975275,0.152));
#433=CARTESIAN_POINT('',(0.,0.0515452540975275,0.152));
#434=CARTESIAN_POINT('',(0.05,0.0515452540975275,0.152));
#435=CARTESIAN_POINT('',(0.05,0.0415452540975274,0.152));
#436=CARTESIAN_POINT('',(0.06,0.0415452540975274,0.152));
#437=CARTESIAN_POINT('',(0.06,0.0115452540975275,0.152));
#438=CARTESIAN_POINT('',(0.06,-0.0184547459024725,0.152));
#439=CARTESIAN_POINT('',(0.05,-0.0184547459024725,0.152));
#440=CARTESIAN_POINT('',(-0.05,0.0415452540975274,0.152));
#441=CARTESIAN_POINT('',(-0.05,0.0475452540975275,0.152));
#442=CARTESIAN_POINT('',(-0.056,0.0415452540975274,0.152));
#443=CARTESIAN_POINT('',(-0.056,0.0115452540975274,0.152));
#444=CARTESIAN_POINT('',(-0.056,-0.0184547459024725,0.152));
#445=CARTESIAN_POINT('',(-4.99600361081321E-18,0.0475452540975275,0.152));
#446=CARTESIAN_POINT('',(0.05,0.0475452540975275,0.152));
#447=CARTESIAN_POINT('',(-0.05,-0.0184547459024725,0.152));
#448=CARTESIAN_POINT('',(-0.05,-0.0244547459024726,0.152));
#449=CARTESIAN_POINT('',(0.05,0.0415452540975274,0.152));
#450=CARTESIAN_POINT('',(0.056,0.0415452540975274,0.152));
#451=CARTESIAN_POINT('',(1.30451205393456E-17,-0.0244547459024726,0.152));
#452=CARTESIAN_POINT('',(0.05,-0.0244547459024726,0.152));
#453=CARTESIAN_POINT('',(0.056,0.0115452540975274,0.152));
#454=CARTESIAN_POINT('',(0.056,-0.0184547459024725,0.152));
#455=CARTESIAN_POINT('',(0.05,-0.0184547459024725,0.152));
#456=CARTESIAN_POINT('',(-0.053023425432315,0.0445686795298424,0.15));
#457=CARTESIAN_POINT('',(0.0528367300520936,-0.0212914759545661,0.15));
#458=CARTESIAN_POINT('',(0.0530204581464245,0.044565712243952,0.15));
#459=CARTESIAN_POINT('',(-0.0528264135026829,-0.0212811594051554,0.15));
#460=MECHANICAL_DESIGN_GEOMETRIC_PRESENTATION_REPRESENTATION('',(#253),
#461);
#461=(
GEOMETRIC_REPRESENTATION_CONTEXT(3)
GLOBAL_UNCERTAINTY_ASSIGNED_CONTEXT((#462))
GLOBAL_UNIT_ASSIGNED_CONTEXT((#465,#464,#463))
REPRESENTATION_CONTEXT('Part 1106','TOP_LEVEL_ASSEMBLY_PART')
);
#462=UNCERTAINTY_MEASURE_WITH_UNIT(LENGTH_MEASURE(1.E-8),#465,
'DISTANCE_ACCURACY_VALUE','Maximum Tolerance applied to model');
#463=(
NAMED_UNIT(*)
SI_UNIT($,.STERADIAN.)
SOLID_ANGLE_UNIT()
);
#464=(
NAMED_UNIT(*)
PLANE_ANGLE_UNIT()
SI_UNIT($,.RADIAN.)
);
#465=(
LENGTH_UNIT()
NAMED_UNIT(*)
SI_UNIT($,.METRE.)
);
#466=PRODUCT_DEFINITION_SHAPE('','',#467);
#467=PRODUCT_DEFINITION('','',#469,#468);
#468=PRODUCT_DEFINITION_CONTEXT('',#475,'design');
#469=PRODUCT_DEFINITION_FORMATION_WITH_SPECIFIED_SOURCE('','',#471,
 .NOT_KNOWN.);
#470=PRODUCT_RELATED_PRODUCT_CATEGORY('','',(#471));
#471=PRODUCT('Part 1106','Part 1106','Part 1106',(#473));
#472=PRODUCT_CATEGORY('','');
#473=PRODUCT_CONTEXT('',#475,'mechanical');
#474=APPLICATION_PROTOCOL_DEFINITION('international standard',
'ap242_managed_model_based_3d_engineering',2020,#475);
#475=APPLICATION_CONTEXT('managed model based 3d engineering');
ENDSEC;
END-ISO-10303-21;
