G04*
G04 #@! TF.GenerationSoftware,Altium Limited,Altium Designer,26.3.0 (6)*
G04*
G04 Layer_Color=16711935*
%FSLAX44Y44*%
%MOMM*%
G71*
G04*
G04 #@! TF.SameCoordinates,A193BC64-9647-4758-90A1-BE3C94D63F3F*
G04*
G04*
G04 #@! TF.FilePolarity,Positive*
G04*
G01*
G75*
%ADD10C,0.2000*%
%ADD15C,0.1270*%
%ADD107C,0.1000*%
%ADD108C,0.0000*%
%ADD109C,0.0254*%
%ADD110C,0.2644*%
D10*
X77465Y316240D02*
G03*
X77465Y316240I-1000J0D01*
G01*
X462130Y338300D02*
G03*
X462130Y338300I-1000J0D01*
G01*
X695447Y5651D02*
G03*
X695447Y5651I-1000J0D01*
G01*
X716264Y728930D02*
G03*
X716264Y728930I-1000J0D01*
G01*
X205566Y731374D02*
G03*
X205566Y731374I-1000J0D01*
G01*
X336884Y701040D02*
G03*
X336884Y701040I-1000J0D01*
G01*
X786064Y661890D02*
G03*
X786064Y661890I-1000J0D01*
G01*
X381320Y814974D02*
X402320D01*
Y800974D02*
Y814974D01*
X381320Y800974D02*
X402320D01*
X381320D02*
Y814974D01*
X343508Y5298D02*
X444908D01*
X349008Y-1702D02*
Y71298D01*
Y-1702D02*
X439408D01*
Y71298D01*
X349008D02*
X439408D01*
X146464Y542390D02*
X166464D01*
X146464D02*
Y554890D01*
X166464D01*
Y542390D02*
Y554890D01*
X495968Y370232D02*
X515968D01*
Y357732D02*
Y370232D01*
X495968Y357732D02*
X515968D01*
X495968D02*
Y370232D01*
X352458Y84174D02*
X372458D01*
X352458D02*
Y96674D01*
X372458D01*
Y84174D02*
Y96674D01*
X305000Y706250D02*
X325000D01*
Y693750D02*
Y706250D01*
X305000Y693750D02*
X325000D01*
X305000D02*
Y706250D01*
X311056Y268632D02*
X331056D01*
Y256132D02*
Y268632D01*
X311056Y256132D02*
X331056D01*
X311056D02*
Y268632D01*
X276258Y613564D02*
X296258D01*
Y601064D02*
Y613564D01*
X276258Y601064D02*
X296258D01*
X276258D02*
Y613564D01*
X318226Y431646D02*
Y444146D01*
X298226D02*
X318226D01*
X298226Y431646D02*
Y444146D01*
Y431646D02*
X318226D01*
X80184Y549859D02*
X92684D01*
X80184Y529859D02*
Y549859D01*
Y529859D02*
X92684D01*
Y549859D01*
X77098Y293139D02*
X97098D01*
X77098D02*
Y305639D01*
X97098D01*
Y293139D02*
Y305639D01*
X495968Y329030D02*
Y341530D01*
Y329030D02*
X515968D01*
Y341530D01*
X495968D02*
X515968D01*
X679060Y418308D02*
X691560D01*
X679060Y398308D02*
Y418308D01*
Y398308D02*
X691560D01*
Y418308D01*
X299814Y469238D02*
Y481738D01*
X279814D02*
X299814D01*
X279814Y469238D02*
Y481738D01*
Y469238D02*
X299814D01*
X474886Y213714D02*
Y226214D01*
Y213714D02*
X494886D01*
Y226214D01*
X474886D02*
X494886D01*
X297528Y224890D02*
Y237390D01*
X277528D02*
X297528D01*
X277528Y224890D02*
Y237390D01*
Y224890D02*
X297528D01*
X277782Y198220D02*
Y210720D01*
Y198220D02*
X297782D01*
Y210720D01*
X277782D02*
X297782D01*
X113444Y174090D02*
Y186590D01*
Y174090D02*
X133444D01*
Y186590D01*
X113444D02*
X133444D01*
X271432Y256132D02*
Y268632D01*
Y256132D02*
X291432D01*
Y268632D01*
X271432D02*
X291432D01*
X634384Y450440D02*
X684384D01*
Y494440D01*
X634384D02*
X684384D01*
X634384Y450440D02*
Y494440D01*
X703043Y712570D02*
Y725070D01*
X683043D02*
X703043D01*
X683043Y712570D02*
Y725070D01*
Y712570D02*
X703043D01*
X427074Y747870D02*
X439574D01*
X427074Y727870D02*
Y747870D01*
Y727870D02*
X439574D01*
Y747870D01*
X800454Y708820D02*
X812954D01*
Y728820D01*
X800454D02*
X812954D01*
X800454Y708820D02*
Y728820D01*
X772514Y710090D02*
X785014D01*
Y730090D01*
X772514D02*
X785014D01*
X772514Y710090D02*
Y730090D01*
X652204Y64831D02*
Y77331D01*
Y64831D02*
X672204D01*
Y77331D01*
X652204D02*
X672204D01*
X692818Y64616D02*
Y77116D01*
Y64616D02*
X712818D01*
Y77116D01*
X692818D02*
X712818D01*
X126084Y713714D02*
X138584D01*
X126084Y693714D02*
Y713714D01*
Y693714D02*
X138584D01*
Y713714D01*
X223614Y191870D02*
Y204370D01*
X203614D02*
X223614D01*
X203614Y191870D02*
Y204370D01*
Y191870D02*
X223614D01*
X502712Y484203D02*
X515212D01*
X502712Y464203D02*
Y484203D01*
Y464203D02*
X515212D01*
Y484203D01*
X583996Y525128D02*
Y537628D01*
X563996D02*
X583996D01*
X563996Y525128D02*
Y537628D01*
Y525128D02*
X583996D01*
X397755Y762145D02*
X410255D01*
Y782145D01*
X397755D02*
X410255D01*
X397755Y762145D02*
Y782145D01*
X402545Y89956D02*
X415045D01*
Y109956D01*
X402545D02*
X415045D01*
X402545Y89956D02*
Y109956D01*
X486002Y194752D02*
X498502D01*
X486002Y174752D02*
Y194752D01*
Y174752D02*
X498502D01*
Y194752D01*
X540000Y169922D02*
X603000D01*
Y232922D01*
X540000D02*
X603000D01*
X540000Y169922D02*
Y232922D01*
X540508Y99056D02*
X603508D01*
Y162056D01*
X540508D02*
X603508D01*
X540508Y99056D02*
Y162056D01*
X68204Y561960D02*
Y588660D01*
Y561960D02*
X453004D01*
Y588660D01*
X68204D02*
X453004D01*
X152254Y171920D02*
X292754D01*
Y8420D02*
Y171920D01*
X152254Y8420D02*
X292754D01*
X152254D02*
Y171920D01*
X216576Y737978D02*
Y751478D01*
Y737978D02*
X237576D01*
Y751478D01*
X216576D02*
X237576D01*
X216662Y756520D02*
Y770020D01*
Y756520D02*
X237662D01*
Y770020D01*
X216662D02*
X237662D01*
X437748Y435194D02*
Y510194D01*
X482748D01*
Y435194D02*
Y510194D01*
X437748Y435194D02*
X482748D01*
X648324Y524320D02*
Y547320D01*
X662824D01*
Y524320D02*
Y547320D01*
X648324Y524320D02*
X662824D01*
X615304Y526160D02*
X629804D01*
Y548260D01*
X615304D02*
X629804D01*
X615304Y526160D02*
Y548260D01*
X395974Y722277D02*
X410474D01*
Y745277D01*
X395974D02*
X410474D01*
X395974Y722277D02*
Y745277D01*
X629556Y738098D02*
X647556D01*
X629556Y703098D02*
Y738098D01*
Y703098D02*
X647556D01*
Y738098D01*
X515204Y557890D02*
Y602890D01*
Y557890D02*
X590204D01*
Y602890D01*
X515204D02*
X590204D01*
D15*
X1565Y328240D02*
Y508240D01*
X61565D01*
X256565D01*
Y328240D02*
Y508240D01*
X61565Y328240D02*
X256565D01*
X1565D02*
X61565D01*
Y508240D01*
X455630Y333750D02*
Y364750D01*
X481630D01*
Y333750D02*
Y364750D01*
X455630Y333750D02*
X481630D01*
X697447Y15151D02*
Y45151D01*
X667447Y15151D02*
X697447D01*
X667447D02*
Y45151D01*
X697447D01*
X732814Y733930D02*
X748814D01*
Y704930D02*
Y733930D01*
X732814Y704930D02*
X748814D01*
X732814D02*
Y733930D01*
X164816Y753874D02*
X194816D01*
X164816Y723874D02*
X194816D01*
X164816D02*
Y753874D01*
X194816Y723874D02*
Y753874D01*
X335434Y725490D02*
Y765490D01*
X386434Y725490D02*
Y765490D01*
X335434Y725490D02*
X386434D01*
X335434Y765490D02*
X386434D01*
X718164Y660490D02*
X763164D01*
X718164Y690790D02*
X763164D01*
Y660490D02*
Y690790D01*
X718164Y660490D02*
Y690790D01*
D107*
X99690Y708914D02*
G03*
X99690Y708914I-40000J0D01*
G01*
X154554Y238760D02*
G03*
X154554Y238760I-40000J0D01*
G01*
X592711Y686470D02*
G03*
X592711Y686470I-40000J0D01*
G01*
X755088Y596900D02*
G03*
X755088Y596900I-40000J0D01*
G01*
X678796Y526110D02*
X700796D01*
X678796Y540610D02*
X700796D01*
Y526110D02*
Y540610D01*
X678796Y526110D02*
Y540610D01*
X433794Y102484D02*
X460794D01*
X433794Y85984D02*
Y102484D01*
Y85984D02*
X460794D01*
Y102484D01*
D108*
X590534Y490190D02*
G03*
X590534Y490190I-1270J0D01*
G01*
D109*
X591804Y457230D02*
Y492730D01*
X526304Y457230D02*
X591804D01*
X526304D02*
Y492730D01*
X591804D01*
X574554Y439480D02*
Y457230D01*
X543554Y439480D02*
X574554D01*
X543554D02*
Y457230D01*
X574554D01*
X532054Y492730D02*
Y510480D01*
X540054D01*
Y492730D02*
Y510480D01*
X532054Y492730D02*
X540054D01*
X555054D02*
Y510480D01*
X563054D01*
Y492730D02*
Y510480D01*
X555054Y492730D02*
X563054D01*
X578054D02*
Y510480D01*
X586054D01*
Y492730D02*
Y510480D01*
X578054Y492730D02*
X586054D01*
D110*
X34065Y373240D02*
X25601D01*
X21369Y377472D01*
X25601Y381704D01*
X34065D01*
X27717D01*
Y373240D01*
X34065Y385936D02*
X21369D01*
X34065Y394400D01*
X21369D01*
Y398632D02*
Y407096D01*
Y402864D01*
X34065D01*
X21369Y419792D02*
Y411328D01*
X34065D01*
Y419792D01*
X27717Y411328D02*
Y415560D01*
X34065Y424024D02*
X21369D01*
X34065Y432487D01*
X21369D01*
X34065Y436719D02*
X21369D01*
X34065Y445183D01*
X21369D01*
X34065Y449415D02*
X25601D01*
X21369Y453647D01*
X25601Y457879D01*
X34065D01*
X27717D01*
Y449415D01*
M02*
