G04*
G04 #@! TF.GenerationSoftware,Altium Limited,Altium Designer,26.3.0 (6)*
G04*
G04 Layer_Physical_Order=1*
G04 Layer_Color=255*
%FSLAX44Y44*%
%MOMM*%
G71*
G04*
G04 #@! TF.SameCoordinates,A193BC64-9647-4758-90A1-BE3C94D63F3F*
G04*
G04*
G04 #@! TF.FilePolarity,Positive*
G04*
G01*
G75*
%ADD10C,0.2000*%
%ADD11C,0.2500*%
%ADD13C,0.2540*%
%ADD17R,0.9000X1.1000*%
%ADD18R,1.4082X0.9587*%
G04:AMPARAMS|DCode=19|XSize=1.97mm|YSize=0.6mm|CornerRadius=0.075mm|HoleSize=0mm|Usage=FLASHONLY|Rotation=90.000|XOffset=0mm|YOffset=0mm|HoleType=Round|Shape=RoundedRectangle|*
%AMROUNDEDRECTD19*
21,1,1.9700,0.4500,0,0,90.0*
21,1,1.8200,0.6000,0,0,90.0*
1,1,0.1500,0.2250,0.9100*
1,1,0.1500,0.2250,-0.9100*
1,1,0.1500,-0.2250,-0.9100*
1,1,0.1500,-0.2250,0.9100*
%
%ADD19ROUNDEDRECTD19*%
%ADD20R,0.9000X1.5000*%
%ADD21R,1.5000X0.9000*%
%ADD22R,0.9000X0.9000*%
%ADD23R,1.3046X1.4621*%
G04:AMPARAMS|DCode=24|XSize=1.6554mm|YSize=0.3808mm|CornerRadius=0.1904mm|HoleSize=0mm|Usage=FLASHONLY|Rotation=90.000|XOffset=0mm|YOffset=0mm|HoleType=Round|Shape=RoundedRectangle|*
%AMROUNDEDRECTD24*
21,1,1.6554,0.0000,0,0,90.0*
21,1,1.2747,0.3808,0,0,90.0*
1,1,0.3808,0.0000,0.6373*
1,1,0.3808,0.0000,-0.6373*
1,1,0.3808,0.0000,-0.6373*
1,1,0.3808,0.0000,0.6373*
%
%ADD24ROUNDEDRECTD24*%
%ADD25R,0.9587X1.4082*%
%ADD26R,1.4621X1.3046*%
%ADD27R,1.4034X1.4562*%
%ADD28R,1.4562X1.4034*%
%ADD29R,1.3621X1.0081*%
G04:AMPARAMS|DCode=30|XSize=1.56mm|YSize=0.4mm|CornerRadius=0.05mm|HoleSize=0mm|Usage=FLASHONLY|Rotation=180.000|XOffset=0mm|YOffset=0mm|HoleType=Round|Shape=RoundedRectangle|*
%AMROUNDEDRECTD30*
21,1,1.5600,0.3000,0,0,180.0*
21,1,1.4600,0.4000,0,0,180.0*
1,1,0.1000,-0.7300,0.1500*
1,1,0.1000,0.7300,0.1500*
1,1,0.1000,0.7300,-0.1500*
1,1,0.1000,-0.7300,-0.1500*
%
%ADD30ROUNDEDRECTD30*%
%ADD31R,2.5000X3.5000*%
%ADD32R,1.3500X0.9500*%
%ADD33R,1.2500X1.0000*%
%ADD34R,0.8508X1.7612*%
%ADD35R,3.5000X2.5000*%
%ADD36R,2.4000X2.9000*%
%ADD37R,3.1508X1.7612*%
%ADD38R,2.1000X1.4000*%
G04:AMPARAMS|DCode=39|XSize=0.84mm|YSize=0.27mm|CornerRadius=0.0338mm|HoleSize=0mm|Usage=FLASHONLY|Rotation=180.000|XOffset=0mm|YOffset=0mm|HoleType=Round|Shape=RoundedRectangle|*
%AMROUNDEDRECTD39*
21,1,0.8400,0.2025,0,0,180.0*
21,1,0.7725,0.2700,0,0,180.0*
1,1,0.0675,-0.3863,0.1013*
1,1,0.0675,0.3863,0.1013*
1,1,0.0675,0.3863,-0.1013*
1,1,0.0675,-0.3863,-0.1013*
%
%ADD39ROUNDEDRECTD39*%
%ADD40R,0.9000X1.2000*%
%ADD42R,2.9000X2.4000*%
G04:AMPARAMS|DCode=43|XSize=0.27mm|YSize=0.84mm|CornerRadius=0.0338mm|HoleSize=0mm|Usage=FLASHONLY|Rotation=180.000|XOffset=0mm|YOffset=0mm|HoleType=Round|Shape=RoundedRectangle|*
%AMROUNDEDRECTD43*
21,1,0.2700,0.7725,0,0,180.0*
21,1,0.2025,0.8400,0,0,180.0*
1,1,0.0675,-0.1013,0.3863*
1,1,0.0675,0.1013,0.3863*
1,1,0.0675,0.1013,-0.3863*
1,1,0.0675,-0.1013,-0.3863*
%
%ADD43ROUNDEDRECTD43*%
%ADD44R,1.2500X1.2200*%
%ADD45R,1.0000X1.2000*%
%ADD46R,0.7000X1.2000*%
%ADD47C,1.1447*%
%ADD48R,1.0000X2.8000*%
%ADD49R,1.1546X1.3621*%
%ADD50R,1.0081X1.3621*%
%ADD51R,0.5200X1.0000*%
%ADD52R,0.2700X1.0000*%
%ADD53R,1.0000X2.0000*%
G04:AMPARAMS|DCode=54|XSize=0.5mm|YSize=0.5mm|CornerRadius=0.0625mm|HoleSize=0mm|Usage=FLASHONLY|Rotation=180.000|XOffset=0mm|YOffset=0mm|HoleType=Round|Shape=RoundedRectangle|*
%AMROUNDEDRECTD54*
21,1,0.5000,0.3750,0,0,180.0*
21,1,0.3750,0.5000,0,0,180.0*
1,1,0.1250,-0.1875,0.1875*
1,1,0.1250,0.1875,0.1875*
1,1,0.1250,0.1875,-0.1875*
1,1,0.1250,-0.1875,-0.1875*
%
%ADD54ROUNDEDRECTD54*%
%ADD55R,0.3500X0.5800*%
%ADD56R,0.5800X0.3500*%
%ADD57R,0.3808X1.6554*%
%ADD58R,1.1500X1.4500*%
%ADD59R,1.4082X1.1061*%
%ADD60R,1.6000X1.0000*%
%ADD61R,1.2100X0.5900*%
%ADD62R,1.0000X0.8000*%
%ADD67R,2.7700X2.4600*%
%ADD83C,1.5700*%
G04:AMPARAMS|DCode=84|XSize=2.3mm|YSize=1.3mm|CornerRadius=0.65mm|HoleSize=0mm|Usage=FLASHONLY|Rotation=90.000|XOffset=0mm|YOffset=0mm|HoleType=Round|Shape=RoundedRectangle|*
%AMROUNDEDRECTD84*
21,1,2.3000,0.0000,0,0,90.0*
21,1,1.0000,1.3000,0,0,90.0*
1,1,1.3000,0.0000,0.5000*
1,1,1.3000,0.0000,-0.5000*
1,1,1.3000,0.0000,-0.5000*
1,1,1.3000,0.0000,0.5000*
%
%ADD84ROUNDEDRECTD84*%
G04:AMPARAMS|DCode=85|XSize=2.6mm|YSize=1.3mm|CornerRadius=0.65mm|HoleSize=0mm|Usage=FLASHONLY|Rotation=90.000|XOffset=0mm|YOffset=0mm|HoleType=Round|Shape=RoundedRectangle|*
%AMROUNDEDRECTD85*
21,1,2.6000,0.0000,0,0,90.0*
21,1,1.3000,1.3000,0,0,90.0*
1,1,1.3000,0.0000,0.6500*
1,1,1.3000,0.0000,-0.6500*
1,1,1.3000,0.0000,-0.6500*
1,1,1.3000,0.0000,0.6500*
%
%ADD85ROUNDEDRECTD85*%
%ADD86R,1.5700X1.5700*%
G04:AMPARAMS|DCode=87|XSize=0.85mm|YSize=0.6mm|CornerRadius=0.3mm|HoleSize=0mm|Usage=FLASHONLY|Rotation=0.000|XOffset=0mm|YOffset=0mm|HoleType=Round|Shape=RoundedRectangle|*
%AMROUNDEDRECTD87*
21,1,0.8500,0.0000,0,0,0.0*
21,1,0.2500,0.6000,0,0,0.0*
1,1,0.6000,0.1250,0.0000*
1,1,0.6000,-0.1250,0.0000*
1,1,0.6000,-0.1250,0.0000*
1,1,0.6000,0.1250,0.0000*
%
%ADD87ROUNDEDRECTD87*%
%ADD88C,0.6000*%
%ADD91R,3.3020X2.4130*%
%ADD92R,1.1000X1.1000*%
%ADD93C,0.6000*%
%ADD94C,0.8000*%
%ADD95C,0.3000*%
%ADD96C,0.5000*%
%ADD97C,0.4000*%
%ADD98C,1.0000*%
%ADD99R,1.5000X1.5000*%
%ADD100C,1.5000*%
%ADD101C,0.4000*%
%ADD102R,1.5000X1.5000*%
%ADD103C,5.5000*%
%ADD104C,0.8000*%
%ADD105C,1.2700*%
%ADD106C,0.5000*%
G36*
X790678Y819615D02*
X796557Y818040D01*
X802181Y815711D01*
X807452Y812667D01*
X812281Y808962D01*
X816585Y804658D01*
X820290Y799829D01*
X823333Y794558D01*
X825662Y788935D01*
X827238Y783056D01*
X828032Y777021D01*
Y773978D01*
Y50188D01*
Y47145D01*
X827238Y41110D01*
X825662Y35231D01*
X823333Y29608D01*
X820290Y24337D01*
X816585Y19508D01*
X812281Y15204D01*
X807452Y11499D01*
X802181Y8455D01*
X796558Y6126D01*
X790678Y4551D01*
X784644Y3756D01*
X46957D01*
X40922Y4551D01*
X35043Y6126D01*
X29420Y8455D01*
X24149Y11499D01*
X19320Y15204D01*
X15016Y19508D01*
X11311Y24337D01*
X8267Y29608D01*
X5938Y35231D01*
X4363Y41110D01*
X3568Y47145D01*
Y50188D01*
Y325138D01*
X66548Y325628D01*
Y512318D01*
X66294Y512064D01*
X3568D01*
Y773978D01*
Y777021D01*
X4363Y783056D01*
X5938Y788935D01*
X8267Y794558D01*
X11311Y799829D01*
X15016Y804658D01*
X19320Y808962D01*
X24149Y812667D01*
X29420Y815711D01*
X35043Y818040D01*
X40922Y819615D01*
X46957Y820410D01*
X784644D01*
X790678Y819615D01*
D02*
G37*
%LPC*%
G36*
X499416Y815728D02*
X499364D01*
Y806958D01*
X508134D01*
Y807010D01*
X507450Y809563D01*
X506128Y811853D01*
X504259Y813722D01*
X501969Y815044D01*
X499416Y815728D01*
D02*
G37*
G36*
X496824D02*
X496772D01*
X494219Y815044D01*
X491929Y813722D01*
X490060Y811853D01*
X488738Y809563D01*
X488054Y807010D01*
Y806958D01*
X496824D01*
Y815728D01*
D02*
G37*
G36*
X335204Y818038D02*
X332817D01*
X330611Y817125D01*
X328923Y815437D01*
X328010Y813232D01*
Y810844D01*
X328923Y808639D01*
X330611Y806951D01*
X332817Y806038D01*
X335204D01*
X337409Y806951D01*
X339097Y808639D01*
X339343Y809234D01*
X376320D01*
Y800974D01*
X388320D01*
Y814974D01*
X376320D01*
Y814842D01*
X339343D01*
X339097Y815437D01*
X337409Y817125D01*
X335204Y818038D01*
D02*
G37*
G36*
X532494Y814688D02*
X514494D01*
Y796688D01*
X532494D01*
Y814688D01*
D02*
G37*
G36*
X473879D02*
X471509D01*
X469220Y814075D01*
X467168Y812890D01*
X465492Y811214D01*
X464307Y809162D01*
X463694Y806873D01*
Y804503D01*
X464307Y802214D01*
X465492Y800162D01*
X467168Y798486D01*
X469220Y797301D01*
X471509Y796688D01*
X473879D01*
X476168Y797301D01*
X478220Y798486D01*
X479896Y800162D01*
X481081Y802214D01*
X481694Y804503D01*
Y806873D01*
X481081Y809162D01*
X479896Y811214D01*
X478220Y812890D01*
X476168Y814075D01*
X473879Y814688D01*
D02*
G37*
G36*
X448479D02*
X446109D01*
X443820Y814075D01*
X441768Y812890D01*
X440092Y811214D01*
X438907Y809162D01*
X438294Y806873D01*
Y804503D01*
X438907Y802214D01*
X440092Y800162D01*
X441768Y798486D01*
X443820Y797301D01*
X446109Y796688D01*
X448479D01*
X450768Y797301D01*
X452820Y798486D01*
X454496Y800162D01*
X455681Y802214D01*
X456294Y804503D01*
Y806873D01*
X455681Y809162D01*
X454496Y811214D01*
X452820Y812890D01*
X450768Y814075D01*
X448479Y814688D01*
D02*
G37*
G36*
X407320Y814974D02*
X395320D01*
Y800974D01*
X407320D01*
Y805150D01*
X410310D01*
X411126Y804333D01*
X410814Y803579D01*
Y801192D01*
X411727Y798987D01*
X413415Y797299D01*
X415620Y796386D01*
X418008D01*
X420213Y797299D01*
X421901Y798987D01*
X422814Y801192D01*
Y803579D01*
X421901Y805785D01*
X420213Y807473D01*
X418008Y808386D01*
X415620D01*
X415226Y808222D01*
X413477Y809971D01*
X412561Y810583D01*
X411480Y810798D01*
X411480Y810798D01*
X407320D01*
Y814974D01*
D02*
G37*
G36*
X508134Y804418D02*
X499364D01*
Y795648D01*
X499416D01*
X501969Y796332D01*
X504259Y797654D01*
X506128Y799523D01*
X507450Y801813D01*
X508134Y804366D01*
Y804418D01*
D02*
G37*
G36*
X496824D02*
X488054D01*
Y804366D01*
X488738Y801813D01*
X490060Y799523D01*
X491929Y797654D01*
X494219Y796332D01*
X496772Y795648D01*
X496824D01*
Y804418D01*
D02*
G37*
G36*
X252730Y794107D02*
Y790448D01*
X256389D01*
X255733Y792033D01*
X254315Y793451D01*
X252730Y794107D01*
D02*
G37*
G36*
X250190D02*
X248605Y793451D01*
X247187Y792033D01*
X246531Y790448D01*
X250190D01*
Y794107D01*
D02*
G37*
G36*
X204470Y791567D02*
Y787908D01*
X208129D01*
X207473Y789493D01*
X206055Y790911D01*
X204470Y791567D01*
D02*
G37*
G36*
X201930D02*
X200345Y790911D01*
X198927Y789493D01*
X198271Y787908D01*
X201930D01*
Y791567D01*
D02*
G37*
G36*
X561340Y790076D02*
Y785876D01*
X565540D01*
X564767Y787744D01*
X563208Y789303D01*
X561340Y790076D01*
D02*
G37*
G36*
X558800D02*
X556932Y789303D01*
X555373Y787744D01*
X554600Y785876D01*
X558800D01*
Y790076D01*
D02*
G37*
G36*
X726694Y789060D02*
Y784860D01*
X730894D01*
X730121Y786728D01*
X728562Y788287D01*
X726694Y789060D01*
D02*
G37*
G36*
X724154D02*
X722286Y788287D01*
X720727Y786728D01*
X719954Y784860D01*
X724154D01*
Y789060D01*
D02*
G37*
G36*
X256389Y787908D02*
X252730D01*
Y784249D01*
X254315Y784905D01*
X255733Y786323D01*
X256389Y787908D01*
D02*
G37*
G36*
X250190D02*
X246531D01*
X247187Y786323D01*
X248605Y784905D01*
X250190Y784249D01*
Y787908D01*
D02*
G37*
G36*
X208129Y785368D02*
X204470D01*
Y781709D01*
X206055Y782365D01*
X207473Y783783D01*
X208129Y785368D01*
D02*
G37*
G36*
X201930D02*
X198271D01*
X198927Y783783D01*
X200345Y782365D01*
X201930Y781709D01*
Y785368D01*
D02*
G37*
G36*
X413826Y789706D02*
X405275D01*
Y781419D01*
X413826D01*
Y789706D01*
D02*
G37*
G36*
X402735D02*
X394184D01*
Y781419D01*
X402735D01*
Y789706D01*
D02*
G37*
G36*
X565540Y783336D02*
X561340D01*
Y779136D01*
X563208Y779909D01*
X564767Y781468D01*
X565540Y783336D01*
D02*
G37*
G36*
X558800D02*
X554600D01*
X555373Y781468D01*
X556932Y779909D01*
X558800Y779136D01*
Y783336D01*
D02*
G37*
G36*
X730894Y782320D02*
X726694D01*
Y778120D01*
X728562Y778893D01*
X730121Y780452D01*
X730894Y782320D01*
D02*
G37*
G36*
X724154D02*
X719954D01*
X720727Y780452D01*
X722286Y778893D01*
X724154Y778120D01*
Y782320D01*
D02*
G37*
G36*
X686562Y776614D02*
Y772414D01*
X690762D01*
X689989Y774282D01*
X688430Y775841D01*
X686562Y776614D01*
D02*
G37*
G36*
X684022D02*
X682154Y775841D01*
X680595Y774282D01*
X679822Y772414D01*
X684022D01*
Y776614D01*
D02*
G37*
G36*
X690762Y769874D02*
X686562D01*
Y765674D01*
X688430Y766447D01*
X689989Y768006D01*
X690762Y769874D01*
D02*
G37*
G36*
X684022D02*
X679822D01*
X680595Y768006D01*
X682154Y766447D01*
X684022Y765674D01*
Y769874D01*
D02*
G37*
G36*
X793882Y812790D02*
X789318D01*
X784809Y812076D01*
X780468Y810665D01*
X776401Y808593D01*
X772708Y805910D01*
X769480Y802682D01*
X766797Y798989D01*
X764725Y794922D01*
X763314Y790581D01*
X762600Y786072D01*
Y781508D01*
X763314Y776999D01*
X764725Y772658D01*
X766797Y768591D01*
X769480Y764898D01*
X772708Y761670D01*
X776401Y758987D01*
X780468Y756915D01*
X784809Y755504D01*
X789318Y754790D01*
X793882D01*
X798391Y755504D01*
X802732Y756915D01*
X806799Y758987D01*
X810492Y761670D01*
X813720Y764898D01*
X816403Y768591D01*
X818475Y772658D01*
X819886Y776999D01*
X820600Y781508D01*
Y786072D01*
X819886Y790581D01*
X818475Y794922D01*
X816403Y798989D01*
X813720Y802682D01*
X810492Y805910D01*
X806799Y808593D01*
X802732Y810665D01*
X798391Y812076D01*
X793882Y812790D01*
D02*
G37*
G36*
X42282D02*
X37718D01*
X33209Y812076D01*
X28868Y810665D01*
X24801Y808593D01*
X21108Y805910D01*
X17880Y802682D01*
X15197Y798989D01*
X13125Y794922D01*
X11714Y790581D01*
X11000Y786072D01*
Y781508D01*
X11714Y776999D01*
X13125Y772658D01*
X15197Y768591D01*
X17880Y764898D01*
X21108Y761670D01*
X24801Y758987D01*
X28868Y756915D01*
X33209Y755504D01*
X37718Y754790D01*
X42282D01*
X46791Y755504D01*
X51132Y756915D01*
X55199Y758987D01*
X58892Y761670D01*
X62120Y764898D01*
X64803Y768591D01*
X66875Y772658D01*
X68286Y776999D01*
X69000Y781508D01*
Y786072D01*
X68286Y790581D01*
X66875Y794922D01*
X64803Y798989D01*
X62120Y802682D01*
X58892Y805910D01*
X55199Y808593D01*
X51132Y810665D01*
X46791Y812076D01*
X42282Y812790D01*
D02*
G37*
G36*
X453313Y759110D02*
X450927D01*
X448721Y758197D01*
X447033Y756509D01*
X446120Y754304D01*
Y751917D01*
X446358Y751342D01*
X444977Y749961D01*
X441865D01*
Y753431D01*
X424783D01*
Y740844D01*
X441865D01*
Y744313D01*
X446147D01*
X446147Y744313D01*
X447228Y744528D01*
X448144Y745140D01*
X450352Y747348D01*
X450927Y747110D01*
X453313D01*
X455519Y748023D01*
X457207Y749711D01*
X458120Y751917D01*
Y754304D01*
X457207Y756509D01*
X455519Y758197D01*
X453313Y759110D01*
D02*
G37*
G36*
X244616Y753268D02*
X238846D01*
Y745998D01*
X244616D01*
Y753268D01*
D02*
G37*
G36*
X236306D02*
X230536D01*
Y745998D01*
X236306D01*
Y753268D01*
D02*
G37*
G36*
X412514Y748567D02*
X404494D01*
Y742547D01*
X412514D01*
Y748567D01*
D02*
G37*
G36*
X401954D02*
X393934D01*
Y742547D01*
X401954D01*
Y748567D01*
D02*
G37*
G36*
X311658Y743594D02*
Y739394D01*
X315858D01*
X315085Y741262D01*
X313526Y742821D01*
X311658Y743594D01*
D02*
G37*
G36*
X309118D02*
X307250Y742821D01*
X305691Y741262D01*
X304918Y739394D01*
X309118D01*
Y743594D01*
D02*
G37*
G36*
X244616Y743458D02*
X238846D01*
Y736188D01*
X244616D01*
Y743458D01*
D02*
G37*
G36*
X236306D02*
X230536D01*
Y736188D01*
X236306D01*
Y743458D01*
D02*
G37*
G36*
X315858Y736854D02*
X311658D01*
Y732654D01*
X313526Y733427D01*
X315085Y734986D01*
X315858Y736854D01*
D02*
G37*
G36*
X309118D02*
X304918D01*
X305691Y734986D01*
X307250Y733427D01*
X309118Y732654D01*
Y736854D01*
D02*
G37*
G36*
X640190Y810878D02*
X622190D01*
Y792878D01*
X625582D01*
Y739964D01*
X626009Y737818D01*
X627225Y735999D01*
X629056Y734167D01*
Y729098D01*
X648056D01*
Y742098D01*
X636987D01*
X636798Y742287D01*
Y792878D01*
X640190D01*
Y810878D01*
D02*
G37*
G36*
X243662Y770770D02*
X231662D01*
Y755770D01*
X243662D01*
Y760211D01*
X254257D01*
X258307Y756161D01*
Y730755D01*
X256050Y728498D01*
X254668Y728868D01*
X252824D01*
X251044Y728391D01*
X249448Y727469D01*
X248145Y726166D01*
X247223Y724570D01*
X246746Y722790D01*
Y720946D01*
X247223Y719166D01*
X248145Y717570D01*
X249448Y716267D01*
X251044Y715345D01*
X252824Y714868D01*
X254668D01*
X256448Y715345D01*
X258044Y716267D01*
X259347Y717570D01*
X260269Y719166D01*
X260746Y720946D01*
Y722790D01*
X260376Y724172D01*
X263529Y727325D01*
X264192Y728317D01*
X264425Y729488D01*
Y757428D01*
X264425Y757428D01*
X264192Y758599D01*
X263529Y759591D01*
X263529Y759591D01*
X257687Y765433D01*
X256695Y766096D01*
X255524Y766329D01*
X255524Y766329D01*
X243662D01*
Y770770D01*
D02*
G37*
G36*
X716440Y739346D02*
X714596D01*
X712816Y738869D01*
X711220Y737947D01*
X709917Y736644D01*
X708995Y735048D01*
X708518Y733268D01*
Y731424D01*
X708995Y729644D01*
X709917Y728048D01*
X711220Y726745D01*
X712816Y725823D01*
X714596Y725346D01*
X716440D01*
X718220Y725823D01*
X719714Y726686D01*
X720519Y726453D01*
X720714Y726373D01*
X720714Y723880D01*
X720714Y723480D01*
Y722254D01*
X708604D01*
Y727361D01*
X696016D01*
Y710279D01*
X708604D01*
Y716606D01*
X720007D01*
X720714Y715899D01*
X720714Y714380D01*
X720714Y713980D01*
Y705480D01*
X727680D01*
Y703682D01*
X726206Y702831D01*
X724903Y701528D01*
X723981Y699932D01*
X723504Y698152D01*
Y696308D01*
X723981Y694528D01*
X724903Y692932D01*
X726206Y691629D01*
X727802Y690707D01*
X729196Y690333D01*
X729574Y689297D01*
X723755Y683478D01*
X723594D01*
X722081Y683177D01*
X721399Y683655D01*
X721203Y683890D01*
Y686890D01*
X721048Y687670D01*
X720606Y688332D01*
X719944Y688774D01*
X719164Y688929D01*
X716818D01*
Y692048D01*
X718292Y692899D01*
X719595Y694202D01*
X720517Y695798D01*
X720994Y697578D01*
Y699422D01*
X720517Y701202D01*
X719595Y702798D01*
X718292Y704101D01*
X716696Y705023D01*
X714916Y705500D01*
X713072D01*
X711292Y705023D01*
X709696Y704101D01*
X708393Y702798D01*
X707471Y701202D01*
X706994Y699422D01*
Y697578D01*
X707471Y695798D01*
X708393Y694202D01*
X709696Y692899D01*
X711170Y692048D01*
Y688929D01*
X704564D01*
X703784Y688774D01*
X703122Y688332D01*
X702680Y687670D01*
X702525Y686890D01*
Y683890D01*
X702619Y683419D01*
X702142Y682608D01*
X701939Y682419D01*
X688688D01*
X687985Y683122D01*
X685853Y684353D01*
X683475Y684990D01*
X681013D01*
X678635Y684353D01*
X676503Y683122D01*
X675301Y681920D01*
X674624Y681472D01*
X673947Y681920D01*
X672745Y683122D01*
X670613Y684353D01*
X668235Y684990D01*
X665773D01*
X663395Y684353D01*
X661263Y683122D01*
X659522Y681381D01*
X658291Y679249D01*
X657654Y676871D01*
Y674409D01*
X658291Y672031D01*
X659522Y669899D01*
X661263Y668158D01*
X663395Y666927D01*
X665773Y666290D01*
X668235D01*
X670613Y666927D01*
X672745Y668158D01*
X673947Y669360D01*
X674624Y669808D01*
X675301Y669360D01*
X676503Y668158D01*
X678635Y666927D01*
X681013Y666290D01*
X683475D01*
X685853Y666927D01*
X687985Y668158D01*
X688688Y668861D01*
X701939D01*
X702142Y668672D01*
X702619Y667861D01*
X702525Y667390D01*
Y664390D01*
X702680Y663610D01*
X703122Y662948D01*
X703784Y662506D01*
X704564Y662351D01*
X719164D01*
X719944Y662506D01*
X720606Y662948D01*
X720685Y663066D01*
X760643D01*
X760722Y662948D01*
X761384Y662506D01*
X762164Y662351D01*
X776764D01*
X777544Y662506D01*
X778206Y662948D01*
X778648Y663610D01*
X778803Y664390D01*
Y667390D01*
X778648Y668170D01*
X778499Y668393D01*
X778956Y668698D01*
X779628Y669704D01*
X779864Y670890D01*
Y671120D01*
X769464D01*
X759064D01*
Y670890D01*
X759300Y669704D01*
X759372Y669596D01*
X758901Y668714D01*
X721227D01*
X721123Y668836D01*
X720784Y669714D01*
X721048Y670110D01*
X721203Y670890D01*
Y673890D01*
X721399Y674125D01*
X722081Y674603D01*
X723594Y674302D01*
X725656D01*
X727411Y674651D01*
X728900Y675646D01*
X743844Y690589D01*
X744838Y692078D01*
X745187Y693834D01*
Y704740D01*
X745814Y705480D01*
X746187Y705480D01*
X760914D01*
Y713482D01*
X761914Y713896D01*
X766967Y708843D01*
X767883Y708231D01*
X768964Y708016D01*
X768964Y708016D01*
X769953D01*
Y704059D01*
X787575D01*
Y708016D01*
X798163D01*
Y703029D01*
X815245D01*
Y717089D01*
X798163D01*
Y713664D01*
X787575D01*
Y720075D01*
Y736121D01*
X769953D01*
Y733568D01*
X753414D01*
X752911Y733468D01*
X746743D01*
X746300Y733380D01*
X745814D01*
Y733283D01*
X744987Y733119D01*
X743499Y732124D01*
X737355Y725981D01*
X736814Y725171D01*
X735814Y725474D01*
Y733380D01*
X724956D01*
X723993Y734343D01*
X723077Y734955D01*
X721996Y735170D01*
X721996Y735170D01*
X721970D01*
X721119Y736644D01*
X719816Y737947D01*
X718220Y738869D01*
X716440Y739346D01*
D02*
G37*
G36*
X289306Y816630D02*
X100330D01*
X98184Y816203D01*
X96365Y814987D01*
X89135Y807757D01*
X87919Y805938D01*
X87492Y803792D01*
Y722914D01*
X73190D01*
Y694914D01*
X111190D01*
Y705606D01*
X122090D01*
X122483Y704769D01*
Y696976D01*
X132334D01*
X142185D01*
Y704769D01*
X141145D01*
Y719745D01*
X129571D01*
X110758Y738557D01*
Y794466D01*
X111298Y795006D01*
X167698D01*
X168238Y794466D01*
Y762508D01*
X168548Y760947D01*
X168747Y760649D01*
Y753224D01*
X169019Y751858D01*
X169430Y751243D01*
Y750222D01*
X169338Y749352D01*
X168468Y749260D01*
X164356D01*
X161933Y751683D01*
X161683Y752935D01*
X160799Y754258D01*
X155208Y759849D01*
Y774790D01*
X156656Y775626D01*
X158332Y777302D01*
X159517Y779354D01*
X160130Y781643D01*
Y784013D01*
X159517Y786302D01*
X158332Y788354D01*
X156656Y790030D01*
X154604Y791215D01*
X152315Y791828D01*
X149945D01*
X147656Y791215D01*
X145604Y790030D01*
X143928Y788354D01*
X142743Y786302D01*
X142130Y784013D01*
Y781643D01*
X142743Y779354D01*
X143928Y777302D01*
X145604Y775626D01*
X147052Y774790D01*
Y758160D01*
X147052Y758160D01*
X147362Y756599D01*
X148246Y755276D01*
X155032Y748490D01*
X156355Y747606D01*
X157607Y747357D01*
X159532Y745432D01*
X159423Y744367D01*
X159034Y744127D01*
X158647Y744050D01*
X157655Y743387D01*
X157655Y743387D01*
X156314Y742046D01*
X137990D01*
X129808Y750227D01*
Y773828D01*
X134730D01*
Y791828D01*
X116730D01*
Y773828D01*
X121652D01*
Y748538D01*
X121652Y748538D01*
X121962Y746977D01*
X122846Y745654D01*
X132907Y735594D01*
X134230Y734710D01*
X135791Y734399D01*
X137351Y734710D01*
X137649Y734909D01*
X156364D01*
X157690Y735173D01*
X157738Y735177D01*
X158802Y734694D01*
X158893Y734239D01*
X159529Y733287D01*
X159865Y733063D01*
X159730Y732386D01*
Y730361D01*
X159873Y729644D01*
X160279Y729037D01*
X160886Y728630D01*
X161603Y728488D01*
X168468D01*
X169338Y728396D01*
X169430Y727526D01*
Y720661D01*
X169573Y719944D01*
X169979Y719337D01*
X170586Y718930D01*
X171303Y718788D01*
X173328D01*
X173623Y718846D01*
X174069Y718905D01*
X174728Y718184D01*
X174787Y717889D01*
X175399Y716973D01*
X177315Y715057D01*
X178231Y714445D01*
X179312Y714230D01*
X179312Y714230D01*
X208876D01*
X327227Y595879D01*
X326813Y594879D01*
X318767D01*
X307400Y606246D01*
X306408Y606909D01*
X305237Y607141D01*
X305237Y607141D01*
X301819D01*
Y615625D01*
X293063D01*
X212152Y696536D01*
X213119Y697504D01*
X214041Y699100D01*
X214518Y700880D01*
Y702724D01*
X214041Y704504D01*
X213119Y706100D01*
X211816Y707403D01*
X210220Y708325D01*
X208440Y708802D01*
X206596D01*
X204816Y708325D01*
X203220Y707403D01*
X201917Y706100D01*
X200995Y704504D01*
X200518Y702724D01*
Y700880D01*
X200995Y699100D01*
X201917Y697504D01*
X203220Y696201D01*
X204816Y695279D01*
X205578Y695075D01*
X205649Y694717D01*
X206312Y693724D01*
X283412Y616625D01*
X282997Y615625D01*
X270697D01*
Y599003D01*
X274414D01*
Y584076D01*
X274414Y584076D01*
X274629Y582995D01*
X275241Y582079D01*
X277697Y579622D01*
X277291Y578919D01*
X276654Y576541D01*
Y574079D01*
X277291Y571701D01*
X278522Y569569D01*
X280263Y567828D01*
X282395Y566597D01*
X284773Y565960D01*
X287235D01*
X289613Y566597D01*
X289731Y566665D01*
X290345Y565865D01*
X284834Y560354D01*
X248412D01*
X248412Y560354D01*
X247331Y560139D01*
X246415Y559527D01*
X246415Y559527D01*
X204237Y517349D01*
X203625Y516433D01*
X203410Y515352D01*
X202707Y514740D01*
X197822D01*
X197368Y515700D01*
X251636Y569968D01*
X252892D01*
X253122Y569569D01*
X254863Y567828D01*
X256995Y566597D01*
X259373Y565960D01*
X261835D01*
X264213Y566597D01*
X266345Y567828D01*
X268086Y569569D01*
X269317Y571701D01*
X269954Y574079D01*
Y576541D01*
X269317Y578919D01*
X268086Y581051D01*
X266345Y582792D01*
X264213Y584023D01*
X261835Y584660D01*
X259373D01*
X256995Y584023D01*
X254863Y582792D01*
X253122Y581051D01*
X251891Y578919D01*
X251254Y576541D01*
Y576201D01*
X250466Y575616D01*
X249385Y575401D01*
X248469Y574789D01*
X244649Y570969D01*
X243849Y571583D01*
X243917Y571701D01*
X244554Y574079D01*
Y576541D01*
X243917Y578919D01*
X242686Y581051D01*
X240945Y582792D01*
X238813Y584023D01*
X236435Y584660D01*
X233973D01*
X231595Y584023D01*
X229463Y582792D01*
X227722Y581051D01*
X226491Y578919D01*
X225854Y576541D01*
Y574079D01*
X226491Y571701D01*
X227722Y569569D01*
X229135Y568156D01*
X178837Y517857D01*
X178225Y516941D01*
X178010Y515860D01*
X178010Y515860D01*
Y514740D01*
X172422D01*
X171968Y515700D01*
X211801Y555533D01*
X211801Y555533D01*
X212413Y556449D01*
X212628Y557530D01*
Y566387D01*
X213413Y566597D01*
X215545Y567828D01*
X217286Y569569D01*
X218517Y571701D01*
X219154Y574079D01*
Y576541D01*
X218517Y578919D01*
X217286Y581051D01*
X215545Y582792D01*
X213413Y584023D01*
X211035Y584660D01*
X208573D01*
X206195Y584023D01*
X204063Y582792D01*
X202322Y581051D01*
X201091Y578919D01*
X200454Y576541D01*
Y574079D01*
X201091Y571701D01*
X202322Y569569D01*
X204063Y567828D01*
X206195Y566597D01*
X206980Y566387D01*
Y558700D01*
X166137Y517857D01*
X165525Y516941D01*
X165310Y515860D01*
X165310Y515860D01*
Y514740D01*
X159665D01*
X158665Y514740D01*
X158365Y514740D01*
X157981D01*
X157567Y515740D01*
X186927Y545101D01*
X187701Y546258D01*
X187973Y547624D01*
Y566586D01*
X188013Y566597D01*
X190145Y567828D01*
X191886Y569569D01*
X193117Y571701D01*
X193754Y574079D01*
Y576541D01*
X193117Y578919D01*
X191886Y581051D01*
X190145Y582792D01*
X188013Y584023D01*
X185635Y584660D01*
X183173D01*
X180795Y584023D01*
X178663Y582792D01*
X176922Y581051D01*
X175691Y578919D01*
X175054Y576541D01*
Y574079D01*
X175691Y571701D01*
X176922Y569569D01*
X178663Y567828D01*
X180795Y566597D01*
X180835Y566586D01*
Y549102D01*
X173025Y541291D01*
X172025Y541706D01*
Y556951D01*
X158943D01*
Y545142D01*
X158889Y544869D01*
X158889Y544869D01*
Y543375D01*
X147599Y532085D01*
X145956Y532526D01*
X144112D01*
X142332Y532049D01*
X140736Y531127D01*
X139433Y529824D01*
X138698Y528552D01*
X137698Y528820D01*
Y544546D01*
X140903D01*
Y540329D01*
X153985D01*
Y556951D01*
X140903D01*
Y550194D01*
X137698D01*
Y558900D01*
X149679Y570881D01*
X150833Y570764D01*
X151522Y569569D01*
X153263Y567828D01*
X155395Y566597D01*
X157773Y565960D01*
X160235D01*
X162613Y566597D01*
X164745Y567828D01*
X166486Y569569D01*
X167717Y571701D01*
X168354Y574079D01*
Y576541D01*
X167717Y578919D01*
X167311Y579622D01*
X192751Y605063D01*
X193363Y605979D01*
X193578Y607060D01*
X193578Y607060D01*
Y677385D01*
X194363Y677595D01*
X196495Y678826D01*
X198236Y680567D01*
X199467Y682699D01*
X200104Y685077D01*
Y687539D01*
X199467Y689917D01*
X198236Y692049D01*
X196495Y693790D01*
X194363Y695021D01*
X191985Y695658D01*
X189523D01*
X187145Y695021D01*
X185013Y693790D01*
X183272Y692049D01*
X182041Y689917D01*
X181404Y687539D01*
Y685077D01*
X182041Y682699D01*
X183272Y680567D01*
X185013Y678826D01*
X187145Y677595D01*
X187930Y677385D01*
Y608230D01*
X163316Y583617D01*
X162613Y584023D01*
X160235Y584660D01*
X157773D01*
X155395Y584023D01*
X153263Y582792D01*
X151522Y581051D01*
X150291Y578919D01*
X149743Y576874D01*
X148854D01*
X147773Y576660D01*
X146857Y576047D01*
X143660Y572850D01*
X142763Y573368D01*
X142954Y574079D01*
Y576541D01*
X142317Y578919D01*
X141911Y579622D01*
X166081Y603793D01*
X166081Y603793D01*
X166693Y604709D01*
X166908Y605790D01*
Y667733D01*
X167693Y667943D01*
X169825Y669174D01*
X171566Y670915D01*
X172797Y673047D01*
X173434Y675425D01*
Y677887D01*
X172797Y680265D01*
X171566Y682397D01*
X169825Y684138D01*
X167693Y685369D01*
X165315Y686006D01*
X162853D01*
X160475Y685369D01*
X158343Y684138D01*
X156602Y682397D01*
X155371Y680265D01*
X154734Y677887D01*
Y675425D01*
X155371Y673047D01*
X156602Y670915D01*
X158343Y669174D01*
X160475Y667943D01*
X161260Y667733D01*
Y606960D01*
X137916Y583617D01*
X137213Y584023D01*
X134835Y584660D01*
X132373D01*
X129995Y584023D01*
X127863Y582792D01*
X126122Y581051D01*
X124891Y578919D01*
X124254Y576541D01*
Y574079D01*
X124623Y572702D01*
X123225Y571304D01*
X122613Y570387D01*
X122398Y569306D01*
X122398Y569306D01*
Y540690D01*
X121398Y540422D01*
X120917Y541254D01*
X119614Y542557D01*
X118140Y543408D01*
Y552319D01*
X118140Y552319D01*
X117925Y553400D01*
X117313Y554316D01*
X117313Y554316D01*
X111028Y560601D01*
Y566387D01*
X111813Y566597D01*
X113945Y567828D01*
X115686Y569569D01*
X116917Y571701D01*
X117554Y574079D01*
Y576541D01*
X116917Y578919D01*
X115686Y581051D01*
X113945Y582792D01*
X111813Y584023D01*
X109435Y584660D01*
X106973D01*
X104595Y584023D01*
X102463Y582792D01*
X100722Y581051D01*
X99491Y578919D01*
X98854Y576541D01*
Y574079D01*
X99491Y571701D01*
X100722Y569569D01*
X102463Y567828D01*
X104595Y566597D01*
X105380Y566387D01*
Y559431D01*
X105380Y559431D01*
X105424Y559207D01*
X104790Y558434D01*
X104234D01*
X102454Y557957D01*
X100858Y557035D01*
X99555Y555732D01*
X98704Y554258D01*
X94745D01*
Y555420D01*
X78123D01*
Y542339D01*
X94745D01*
Y548610D01*
X98704D01*
X99555Y547136D01*
X100858Y545833D01*
X102454Y544911D01*
X104234Y544434D01*
X106078D01*
X107858Y544911D01*
X109454Y545833D01*
X110757Y547136D01*
X111492Y548408D01*
X112492Y548140D01*
Y543408D01*
X111018Y542557D01*
X109715Y541254D01*
X108793Y539658D01*
X108316Y537878D01*
Y536034D01*
X108793Y534254D01*
X109715Y532658D01*
X111018Y531355D01*
X112614Y530433D01*
X114394Y529956D01*
X116238D01*
X117212Y530217D01*
X118029Y529401D01*
X117714Y528226D01*
Y526382D01*
X118191Y524602D01*
X119113Y523006D01*
X120416Y521703D01*
X122012Y520781D01*
X123792Y520304D01*
X125636D01*
X127416Y520781D01*
X129012Y521703D01*
X130315Y523006D01*
X131050Y524278D01*
X132050Y524010D01*
Y519430D01*
X132050Y519430D01*
X132265Y518349D01*
X132877Y517433D01*
X134646Y515664D01*
X134263Y514740D01*
X133265Y514740D01*
X132965Y514740D01*
X121565D01*
X120565Y514740D01*
X120265Y514740D01*
X108865D01*
X107865Y514740D01*
X107565Y514740D01*
X102118D01*
Y519729D01*
X101904Y520802D01*
X101297Y521712D01*
X94745Y528264D01*
Y537380D01*
X78123D01*
Y524299D01*
X90779D01*
X96510Y518568D01*
Y515447D01*
X95803Y514740D01*
X95165D01*
X94865Y514740D01*
X83505D01*
Y515780D01*
X77735D01*
Y505740D01*
Y495700D01*
X83505D01*
Y496740D01*
X87112D01*
Y479158D01*
X85618Y478295D01*
X84315Y476992D01*
X83393Y475396D01*
X82916Y473616D01*
Y471772D01*
X83393Y469992D01*
X84315Y468396D01*
X85618Y467093D01*
X87214Y466171D01*
X88994Y465694D01*
X90838D01*
X92618Y466171D01*
X94214Y467093D01*
X95517Y468396D01*
X96439Y469992D01*
X96916Y471772D01*
Y473616D01*
X96439Y475396D01*
X95517Y476992D01*
X94214Y478295D01*
X92720Y479158D01*
Y496033D01*
X93427Y496740D01*
X95865Y496740D01*
X96165Y496740D01*
X101810D01*
Y469786D01*
X77251Y445227D01*
X76639Y444311D01*
X76424Y443230D01*
X76424Y443230D01*
Y361036D01*
X74950Y360185D01*
X73647Y358882D01*
X72725Y357286D01*
X72248Y355506D01*
Y353662D01*
X72725Y351882D01*
X73647Y350286D01*
X74950Y348983D01*
X76546Y348061D01*
X78326Y347584D01*
X80170D01*
X81950Y348061D01*
X83546Y348983D01*
X84849Y350286D01*
X85771Y351882D01*
X86248Y353662D01*
Y355506D01*
X85771Y357286D01*
X84849Y358882D01*
X83546Y360185D01*
X82072Y361036D01*
Y442060D01*
X106631Y466619D01*
X106631Y466619D01*
X107243Y467535D01*
X107458Y468616D01*
Y496033D01*
X108165Y496740D01*
X108565D01*
X108865Y496740D01*
X120265D01*
X121265Y496740D01*
X121565Y496740D01*
X132965D01*
X133965Y496740D01*
X134265Y496740D01*
X140371D01*
Y466479D01*
X139720Y466103D01*
X138417Y464800D01*
X137495Y463204D01*
X137018Y461424D01*
Y459580D01*
X137495Y457800D01*
X138417Y456204D01*
X139720Y454901D01*
X141316Y453979D01*
X143096Y453502D01*
X144940D01*
X146720Y453979D01*
X148316Y454901D01*
X149619Y456204D01*
X150541Y457800D01*
X151018Y459580D01*
Y461424D01*
X150541Y463204D01*
X149619Y464800D01*
X148316Y466103D01*
X146720Y467025D01*
X146019Y467213D01*
Y496007D01*
X146665Y496740D01*
X147019Y496740D01*
X158365D01*
X159365Y496740D01*
X159665Y496740D01*
X171065D01*
X172065Y496740D01*
X172365Y496740D01*
X183765D01*
X184765Y496740D01*
X185065Y496740D01*
X196465D01*
X197465Y496740D01*
X197765Y496740D01*
X209165D01*
X210165Y496740D01*
X210465Y496740D01*
X221865D01*
X222165Y496740D01*
Y496740D01*
X222865D01*
Y496740D01*
X234565D01*
X234865Y496740D01*
Y496740D01*
X235565D01*
Y496740D01*
X247565D01*
Y508697D01*
X247619Y508970D01*
X247619Y508970D01*
Y512542D01*
X277722D01*
X281730Y508533D01*
X281290Y506890D01*
Y505046D01*
X281767Y503266D01*
X282689Y501670D01*
X283992Y500367D01*
X285588Y499445D01*
X287368Y498968D01*
X289212D01*
X290992Y499445D01*
X292588Y500367D01*
X293891Y501670D01*
X294813Y503266D01*
X295290Y505046D01*
Y506890D01*
X294813Y508670D01*
X293891Y510266D01*
X292588Y511569D01*
X290992Y512491D01*
X289212Y512968D01*
X287368D01*
X285725Y512528D01*
X280889Y517363D01*
X279973Y517975D01*
X278892Y518190D01*
X278892Y518190D01*
X246283D01*
X245202Y517975D01*
X244286Y517363D01*
X244286Y517363D01*
X242798Y515875D01*
X242186Y514959D01*
X242142Y514740D01*
X237085D01*
X236702Y515664D01*
X263044Y542006D01*
X322834D01*
X322834Y542006D01*
X323915Y542221D01*
X324831Y542833D01*
X352879Y570881D01*
X354033Y570764D01*
X354722Y569569D01*
X356463Y567828D01*
X358595Y566597D01*
X360973Y565960D01*
X363435D01*
X365813Y566597D01*
X367945Y567828D01*
X369686Y569569D01*
X370917Y571701D01*
X371554Y574079D01*
Y576541D01*
X370917Y578919D01*
X369686Y581051D01*
X367945Y582792D01*
X365813Y584023D01*
X363435Y584660D01*
X360973D01*
X358595Y584023D01*
X356463Y582792D01*
X354722Y581051D01*
X353491Y578919D01*
X352943Y576874D01*
X352054D01*
X350973Y576660D01*
X350057Y576047D01*
X350057Y576047D01*
X346860Y572850D01*
X345963Y573368D01*
X346154Y574079D01*
Y576541D01*
X345517Y578919D01*
X344286Y581051D01*
X342545Y582792D01*
X340413Y584023D01*
X338035Y584660D01*
X335573D01*
X333195Y584023D01*
X331063Y582792D01*
X329322Y581051D01*
X328091Y578919D01*
X327454Y576541D01*
X327289Y576240D01*
X326208Y576025D01*
X325292Y575412D01*
X325292Y575412D01*
X320849Y570969D01*
X320049Y571583D01*
X320117Y571701D01*
X320754Y574079D01*
Y576541D01*
X320117Y578919D01*
X318886Y581051D01*
X317145Y582792D01*
X315013Y584023D01*
X312635Y584660D01*
X310173D01*
X307795Y584023D01*
X305663Y582792D01*
X303922Y581051D01*
X302691Y578919D01*
X302054Y576541D01*
Y576239D01*
X301889D01*
X300808Y576025D01*
X299892Y575412D01*
X295449Y570969D01*
X294649Y571583D01*
X294717Y571701D01*
X295354Y574079D01*
Y576541D01*
X294717Y578919D01*
X293486Y581051D01*
X291745Y582792D01*
X289613Y584023D01*
X287235Y584660D01*
X284773D01*
X282395Y584023D01*
X281691Y583617D01*
X280062Y585246D01*
Y599003D01*
X283779D01*
Y614843D01*
X284779Y615257D01*
X288737Y611299D01*
Y599003D01*
X301819D01*
Y601024D01*
X303970D01*
X315337Y589657D01*
X316329Y588994D01*
X317500Y588761D01*
X395227D01*
X404576Y579412D01*
X404291Y578919D01*
X403654Y576541D01*
Y574079D01*
X404291Y571701D01*
X405522Y569569D01*
X407263Y567828D01*
X407396Y567751D01*
Y547938D01*
X407823Y545792D01*
X409039Y543973D01*
X444248Y508763D01*
Y497625D01*
X435731Y489107D01*
X426578D01*
X425603Y490082D01*
X423471Y491313D01*
X421093Y491950D01*
X418631D01*
X416253Y491313D01*
X416217Y491292D01*
X408415Y499093D01*
X407258Y499867D01*
X405892Y500139D01*
X319896D01*
X318530Y499867D01*
X317373Y499093D01*
X302078Y483799D01*
X292293D01*
Y467177D01*
X305375D01*
Y477002D01*
X321374Y493001D01*
X404414D01*
X411170Y486245D01*
X411149Y486209D01*
X410512Y483831D01*
Y482756D01*
X409719Y482147D01*
X409155Y482298D01*
X406693D01*
X404315Y481661D01*
X402183Y480430D01*
X400442Y478689D01*
X399211Y476557D01*
X398574Y474179D01*
Y473426D01*
X397781Y472817D01*
X397471Y472900D01*
X395009D01*
X392631Y472263D01*
X390499Y471032D01*
X388758Y469291D01*
X387527Y467159D01*
X386890Y464781D01*
Y462319D01*
X387527Y459941D01*
X388758Y457809D01*
X390499Y456068D01*
X392631Y454837D01*
X395009Y454200D01*
X397471D01*
X399849Y454837D01*
X401981Y456068D01*
X403722Y457809D01*
X404953Y459941D01*
X405590Y462319D01*
Y463072D01*
X406383Y463681D01*
X406693Y463598D01*
X409155D01*
X411533Y464235D01*
X413665Y465466D01*
X415406Y467207D01*
X416637Y469339D01*
X417274Y471717D01*
Y472792D01*
X418067Y473401D01*
X418631Y473250D01*
X421093D01*
X423471Y473887D01*
X425603Y475118D01*
X427344Y476859D01*
X427940Y477892D01*
X438053D01*
X440199Y478318D01*
X442019Y479534D01*
X452178Y489694D01*
X476248D01*
Y497586D01*
X484381D01*
X500181Y481786D01*
Y475757D01*
X499141D01*
Y467469D01*
X508962D01*
X518783D01*
Y475757D01*
X517743D01*
Y490724D01*
X514293D01*
X513878Y491724D01*
X521777Y499622D01*
X530300D01*
Y494924D01*
X541808D01*
Y515536D01*
X530300D01*
Y510838D01*
X519454D01*
X517308Y510411D01*
X515489Y509195D01*
X503479Y497186D01*
X502781Y496141D01*
X501786Y496042D01*
X490669Y507159D01*
X488849Y508375D01*
X486703Y508802D01*
X476248D01*
Y511647D01*
X501125Y536525D01*
X501899Y537682D01*
X502171Y539048D01*
Y636881D01*
X501899Y638246D01*
X501125Y639404D01*
X497091Y643439D01*
Y731074D01*
X499417Y731697D01*
X501549Y732928D01*
X503290Y734669D01*
X504521Y736801D01*
X505158Y739179D01*
Y741641D01*
X504521Y744019D01*
X503290Y746151D01*
X501549Y747892D01*
X499417Y749123D01*
X497039Y749760D01*
X494577D01*
X492199Y749123D01*
X490067Y747892D01*
X488326Y746151D01*
X487095Y744019D01*
X486458Y741641D01*
Y739179D01*
X487095Y736801D01*
X488326Y734669D01*
X489953Y733042D01*
Y641961D01*
X490225Y640595D01*
X490999Y639437D01*
X495033Y635403D01*
Y540526D01*
X471201Y516694D01*
X452178D01*
X430535Y538338D01*
X430949Y539338D01*
X432486D01*
X434691Y540251D01*
X436379Y541939D01*
X436722Y542768D01*
X454890D01*
X455282Y542159D01*
X455384Y541803D01*
X454502Y539674D01*
Y537286D01*
X455415Y535081D01*
X457103Y533393D01*
X459309Y532480D01*
X461696D01*
X463901Y533393D01*
X465589Y535081D01*
X466502Y537286D01*
Y539674D01*
X466181Y540448D01*
X468071Y542338D01*
X468683Y543254D01*
X468898Y544335D01*
X468898Y544335D01*
Y585740D01*
X468898Y585740D01*
X468683Y586821D01*
X468071Y587737D01*
X468071Y587737D01*
X447005Y608803D01*
X446089Y609415D01*
X445008Y609630D01*
X445008Y609630D01*
X410602D01*
X410344Y610596D01*
X410617Y610754D01*
X412358Y612495D01*
X413589Y614627D01*
X414226Y617005D01*
Y619467D01*
X413589Y621845D01*
X412358Y623977D01*
X410617Y625718D01*
X408485Y626949D01*
X406107Y627586D01*
X403645D01*
X401267Y626949D01*
X399135Y625718D01*
X398336Y624919D01*
X396938D01*
X395885Y625972D01*
X393753Y627203D01*
X391375Y627840D01*
X388913D01*
X386535Y627203D01*
X384403Y625972D01*
X383604Y625173D01*
X381952D01*
X380899Y626226D01*
X378767Y627457D01*
X376389Y628094D01*
X375080D01*
X365204Y637970D01*
Y655546D01*
X405860Y696202D01*
X406902Y697560D01*
X407557Y699141D01*
X407780Y700838D01*
Y720027D01*
X411474D01*
Y723371D01*
X424783D01*
Y722309D01*
X441865D01*
Y734896D01*
X424783D01*
Y730508D01*
X411474D01*
Y732527D01*
X407284D01*
X407165Y732617D01*
X406274Y732987D01*
X406473Y733987D01*
X412514D01*
Y740007D01*
X403224D01*
X393934D01*
Y733987D01*
X401301D01*
X401500Y732987D01*
X400609Y732617D01*
X400491Y732527D01*
X394974D01*
Y731134D01*
X384075D01*
X383856Y731462D01*
X383112Y731959D01*
X382234Y732134D01*
X379984D01*
Y744220D01*
X360934D01*
X341884D01*
Y733195D01*
X339634D01*
X338350Y732939D01*
X337262Y732212D01*
X336535Y731124D01*
X336279Y729840D01*
Y722010D01*
X341884D01*
Y720740D01*
X343154D01*
Y708286D01*
X343600D01*
X344014Y707286D01*
X339533Y702804D01*
X331031D01*
Y708311D01*
X316485D01*
Y691689D01*
X331031D01*
Y697196D01*
X340694D01*
X341767Y697410D01*
X342677Y698017D01*
X354005Y709346D01*
X356834D01*
X357712Y709521D01*
X358456Y710018D01*
X358953Y710762D01*
X359128Y711640D01*
Y729840D01*
X359119Y729885D01*
X359940Y730885D01*
X361099D01*
X361734Y730112D01*
X361679Y729840D01*
Y722010D01*
X367284D01*
X372888D01*
Y729840D01*
X372834Y730112D01*
X373469Y730885D01*
X374628D01*
X375449Y729885D01*
X375440Y729840D01*
Y727626D01*
X374803Y726673D01*
X374376Y724527D01*
Y720740D01*
X374803Y718594D01*
X375440Y717641D01*
Y711640D01*
X375615Y710762D01*
X376112Y710018D01*
X376856Y709521D01*
X377734Y709346D01*
X382234D01*
X383112Y709521D01*
X383856Y710018D01*
X384353Y710762D01*
X384528Y711640D01*
Y717641D01*
X385165Y718594D01*
X385428Y719919D01*
X394668D01*
Y703553D01*
X354012Y662898D01*
X352970Y661540D01*
X352315Y659959D01*
X352092Y658262D01*
Y638058D01*
X344061D01*
X286776Y695343D01*
Y744329D01*
X309883Y767436D01*
X337340D01*
Y761140D01*
X337515Y760262D01*
X338012Y759518D01*
X338756Y759021D01*
X339634Y758846D01*
X341884D01*
Y746760D01*
X359664D01*
Y760431D01*
X359119Y761095D01*
X359128Y761140D01*
Y779340D01*
X358953Y780218D01*
X358456Y780962D01*
X357712Y781459D01*
X356834Y781634D01*
X354005D01*
X347527Y788113D01*
X346617Y788720D01*
X345544Y788934D01*
X323385D01*
X323349Y789021D01*
X321661Y790709D01*
X319456Y791622D01*
X317069D01*
X314863Y790709D01*
X313175Y789021D01*
X312262Y786815D01*
Y784428D01*
X313175Y782223D01*
X314863Y780535D01*
X317069Y779622D01*
X319456D01*
X321661Y780535D01*
X323349Y782223D01*
X323805Y783326D01*
X344383D01*
X345381Y782328D01*
X345353Y782263D01*
X344791Y781503D01*
X344134Y781634D01*
X339634D01*
X338756Y781459D01*
X338012Y780962D01*
X337515Y780218D01*
X337340Y779340D01*
Y773044D01*
X308722D01*
X307649Y772830D01*
X306739Y772223D01*
X281989Y747473D01*
X281382Y746563D01*
X281168Y745490D01*
Y694182D01*
X281382Y693109D01*
X281989Y692199D01*
X340917Y633271D01*
X341827Y632664D01*
X342900Y632450D01*
X352774D01*
X352970Y631976D01*
X354012Y630618D01*
X365808Y618822D01*
Y617513D01*
X366445Y615135D01*
X367676Y613003D01*
X369417Y611262D01*
X370511Y610630D01*
X370243Y609630D01*
X337212D01*
X213471Y733371D01*
X212555Y733983D01*
X211474Y734198D01*
X211474Y734198D01*
X203744D01*
X203330Y735198D01*
X209576Y741444D01*
X210576Y741126D01*
Y737228D01*
X222576D01*
Y752228D01*
X210576D01*
Y747787D01*
X208534D01*
X208534Y747787D01*
X207363Y747554D01*
X206371Y746891D01*
X201914Y742433D01*
X200878Y742812D01*
X200739Y743509D01*
X200103Y744461D01*
X199767Y744685D01*
X199902Y745361D01*
Y747386D01*
X199759Y748103D01*
X199353Y748711D01*
X198745Y749117D01*
X198029Y749260D01*
X197225D01*
Y752207D01*
X203729Y758711D01*
X210662D01*
Y755770D01*
X222662D01*
Y770770D01*
X210662D01*
Y764829D01*
X202462D01*
X202462Y764829D01*
X201292Y764596D01*
X200299Y763933D01*
X200299Y763933D01*
X192003Y755637D01*
X191340Y754644D01*
X191202Y753950D01*
X190202Y754049D01*
Y757086D01*
X190059Y757803D01*
X189653Y758411D01*
X189045Y758817D01*
X188328Y758960D01*
X186304D01*
X185586Y758817D01*
X184979Y758411D01*
X184653D01*
X184045Y758817D01*
X183328Y758960D01*
X181303D01*
X180586Y758817D01*
X179979Y758411D01*
X179653D01*
X179045Y758817D01*
X178328Y758960D01*
X178177D01*
X176101Y761035D01*
X176394Y762508D01*
Y796155D01*
X176084Y797716D01*
X175200Y799039D01*
X175200Y799039D01*
X172271Y801968D01*
X170948Y802852D01*
X169387Y803162D01*
X169387Y803162D01*
X109609D01*
X108048Y802852D01*
X106725Y801968D01*
X106725Y801968D01*
X103796Y799039D01*
X102912Y797716D01*
X102602Y796155D01*
X102602Y796155D01*
Y736868D01*
X102602Y736868D01*
X102912Y735307D01*
X103796Y733984D01*
X120035Y717746D01*
X119652Y716822D01*
X111190D01*
Y722914D01*
X98708D01*
Y801469D01*
X102653Y805414D01*
X286983D01*
X297787Y794611D01*
X299606Y793395D01*
X301752Y792968D01*
X358611D01*
X368945Y782634D01*
X368531Y781634D01*
X365034D01*
X364156Y781459D01*
X363412Y780962D01*
X362915Y780218D01*
X362740Y779340D01*
Y761140D01*
X362749Y761095D01*
X362204Y760431D01*
Y746760D01*
X379984D01*
Y757994D01*
X380757Y758628D01*
X381232Y758534D01*
X395224D01*
Y755624D01*
X412786D01*
Y761798D01*
X413689Y761978D01*
X413693Y761980D01*
X524473D01*
X579603Y706851D01*
Y700470D01*
X566211D01*
Y672470D01*
X577596D01*
Y596390D01*
X569704D01*
Y564390D01*
X576306D01*
Y541786D01*
X575549Y541199D01*
X567262D01*
Y531378D01*
Y521557D01*
X575549D01*
X576376Y521139D01*
Y515536D01*
X576300D01*
Y494924D01*
X587808D01*
Y515536D01*
X587592D01*
Y522597D01*
X590517D01*
Y540159D01*
X587522D01*
Y564390D01*
X596704D01*
Y586280D01*
X597669Y586925D01*
X598989Y588244D01*
X688313D01*
X701087Y575470D01*
Y570008D01*
X642988D01*
X640842Y569581D01*
X639023Y568365D01*
X634337Y563679D01*
X633121Y561860D01*
X632694Y559714D01*
Y533756D01*
X633121Y531610D01*
X634337Y529791D01*
X637026Y527102D01*
X636533Y526180D01*
X636113Y526264D01*
X630304D01*
Y533710D01*
X614804D01*
Y520710D01*
X626033D01*
X626304Y520656D01*
X634951D01*
X644278Y511330D01*
X643785Y510408D01*
X643134Y510538D01*
X641806Y510274D01*
X640680Y509521D01*
X640485Y509230D01*
X639283D01*
X639088Y509521D01*
X637962Y510274D01*
X636634Y510538D01*
X635306Y510274D01*
X634180Y509521D01*
X633428Y508395D01*
X633163Y507067D01*
Y503998D01*
X630480D01*
X629407Y503784D01*
X628497Y503176D01*
X620825Y495505D01*
X620218Y494595D01*
X620004Y493522D01*
Y460705D01*
X588315Y429016D01*
X477288D01*
Y440924D01*
X460248D01*
X443208D01*
Y429016D01*
X364576D01*
X364377Y430016D01*
X365603Y430523D01*
X367291Y432211D01*
X368204Y434417D01*
Y436804D01*
X367291Y439009D01*
X365603Y440697D01*
X363397Y441610D01*
X361011D01*
X358805Y440697D01*
X357117Y439009D01*
X356880Y438434D01*
X323787D01*
Y446207D01*
X310705D01*
Y430016D01*
X310705Y429585D01*
X309941Y429016D01*
X306511D01*
X305747Y429585D01*
X305747Y430016D01*
Y446207D01*
X292665D01*
Y442752D01*
X288287D01*
X287904Y443676D01*
X292762Y448534D01*
X386706D01*
X394496Y440744D01*
X394320Y440088D01*
Y438244D01*
X394797Y436464D01*
X395719Y434868D01*
X397022Y433565D01*
X398618Y432643D01*
X400398Y432166D01*
X402242D01*
X404022Y432643D01*
X405618Y433565D01*
X406921Y434868D01*
X407843Y436464D01*
X408320Y438244D01*
Y440088D01*
X407843Y441868D01*
X406921Y443464D01*
X405618Y444767D01*
X404022Y445689D01*
X402242Y446166D01*
X400398D01*
X398618Y445689D01*
X397934Y445294D01*
X389873Y453355D01*
X388957Y453967D01*
X387876Y454182D01*
X387876Y454182D01*
X334924D01*
X334526Y455182D01*
X335547Y456204D01*
X336469Y457800D01*
X336946Y459580D01*
Y461424D01*
X336469Y463204D01*
X335547Y464800D01*
X334244Y466103D01*
X332648Y467025D01*
X330868Y467502D01*
X329024D01*
X327244Y467025D01*
X325648Y466103D01*
X324345Y464800D01*
X323640Y463580D01*
X293370D01*
X293370Y463580D01*
X292289Y463365D01*
X291373Y462753D01*
X291373Y462753D01*
X287687Y459067D01*
X286790Y459585D01*
X286908Y460024D01*
Y461868D01*
X286431Y463648D01*
X285509Y465244D01*
X284576Y466177D01*
X284990Y467177D01*
X287335D01*
Y483799D01*
X274253D01*
Y474248D01*
X271526D01*
X271526Y474248D01*
X270445Y474033D01*
X269529Y473421D01*
X269529Y473421D01*
X264852Y468744D01*
X263798D01*
X263065Y469390D01*
X263065Y469744D01*
Y481090D01*
X263065Y482090D01*
X263065Y482390D01*
Y494090D01*
X245065D01*
Y482390D01*
X245065Y481390D01*
X245065Y481090D01*
Y476534D01*
X216764D01*
X215913Y478008D01*
X214638Y479284D01*
X214643Y479412D01*
X214926Y480284D01*
X230632D01*
X230632Y480284D01*
X231713Y480499D01*
X232629Y481111D01*
X233655Y482136D01*
X235298Y481696D01*
X237142D01*
X238922Y482173D01*
X240518Y483095D01*
X241821Y484398D01*
X242743Y485994D01*
X243220Y487774D01*
Y489618D01*
X242743Y491398D01*
X241821Y492994D01*
X240518Y494297D01*
X238922Y495219D01*
X237142Y495696D01*
X235298D01*
X233518Y495219D01*
X231922Y494297D01*
X230619Y492994D01*
X229697Y491398D01*
X229220Y489618D01*
Y487774D01*
X229446Y486932D01*
X228678Y485932D01*
X207010D01*
X207010Y485932D01*
X205929Y485717D01*
X205013Y485105D01*
X205013Y485105D01*
X197901Y477993D01*
X197289Y477077D01*
X197074Y475996D01*
X197074Y475996D01*
Y436686D01*
X196150Y436304D01*
X196068Y436385D01*
X194472Y437307D01*
X192692Y437784D01*
X190848D01*
X189068Y437307D01*
X187472Y436385D01*
X186169Y435082D01*
X185247Y433486D01*
X184770Y431706D01*
Y429862D01*
X185247Y428082D01*
X186169Y426486D01*
X187472Y425183D01*
X188946Y424332D01*
Y339740D01*
X185065D01*
X184065Y339740D01*
X183765Y339740D01*
X172065D01*
Y339740D01*
X171365D01*
Y339740D01*
X159365D01*
Y339740D01*
X158665D01*
Y339740D01*
X146665D01*
Y339740D01*
X145965D01*
Y339740D01*
X133965D01*
Y339740D01*
X133265D01*
Y339740D01*
X121565D01*
X120565Y339740D01*
X120265Y339740D01*
X108565D01*
X108565Y339740D01*
X107865D01*
Y339740D01*
X107565Y339740D01*
X96165D01*
X95165Y339740D01*
X94738Y340167D01*
Y394674D01*
X119331Y419266D01*
X119938Y420176D01*
X120152Y421249D01*
Y476390D01*
X121646Y477253D01*
X122949Y478556D01*
X123871Y480152D01*
X124348Y481932D01*
Y483776D01*
X123871Y485556D01*
X122949Y487152D01*
X121646Y488455D01*
X120050Y489377D01*
X118270Y489854D01*
X116426D01*
X114646Y489377D01*
X113050Y488455D01*
X111747Y487152D01*
X110825Y485556D01*
X110348Y483776D01*
Y481932D01*
X110825Y480152D01*
X111747Y478556D01*
X113050Y477253D01*
X114544Y476390D01*
Y422410D01*
X89951Y397818D01*
X89344Y396908D01*
X89130Y395835D01*
Y339740D01*
X83505D01*
Y340780D01*
X77735D01*
Y330740D01*
Y320700D01*
X83505D01*
Y321740D01*
X87363D01*
Y309240D01*
X80360D01*
Y299389D01*
Y289539D01*
X88153D01*
Y290579D01*
X90996D01*
Y280079D01*
X91423Y277933D01*
X92638Y276113D01*
X125457Y243295D01*
X127276Y242079D01*
X128054Y241924D01*
Y227803D01*
X128000Y227530D01*
X128000Y227530D01*
Y216410D01*
X110947Y199357D01*
X110335Y198441D01*
X110120Y197360D01*
X110120Y197360D01*
Y188651D01*
X107883D01*
Y172029D01*
X120965D01*
Y188651D01*
X115768D01*
Y196190D01*
X132821Y213243D01*
X132821Y213243D01*
X133433Y214159D01*
X133648Y215240D01*
Y224760D01*
X153396D01*
Y222189D01*
X153263Y222112D01*
X151522Y220371D01*
X150291Y218239D01*
X149654Y215861D01*
Y213399D01*
X150291Y211021D01*
X151522Y208889D01*
X152766Y207645D01*
X151522Y206401D01*
X150291Y204269D01*
X149654Y201891D01*
Y199429D01*
X150291Y197051D01*
X151522Y194919D01*
X153263Y193178D01*
X155395Y191947D01*
X157773Y191310D01*
X160235D01*
X162613Y191947D01*
X164745Y193178D01*
X166486Y194919D01*
X167717Y197051D01*
X168354Y199429D01*
Y201891D01*
X167717Y204269D01*
X166486Y206401D01*
X165242Y207645D01*
X166486Y208889D01*
X167717Y211021D01*
X168354Y213399D01*
Y215861D01*
X167717Y218239D01*
X166486Y220371D01*
X164745Y222112D01*
X164612Y222189D01*
Y224760D01*
X166054D01*
Y252760D01*
X139096D01*
X138554Y252868D01*
X131745D01*
X102211Y282402D01*
Y290579D01*
X103129D01*
Y308200D01*
X94501D01*
Y321033D01*
X95208Y321740D01*
X95865D01*
X96165Y321740D01*
X102446D01*
X102486Y321541D01*
X103098Y320625D01*
X112492Y311231D01*
Y309982D01*
X111018Y309131D01*
X109715Y307828D01*
X108793Y306232D01*
X108316Y304452D01*
Y302608D01*
X108793Y300828D01*
X109715Y299232D01*
X111018Y297929D01*
X112614Y297007D01*
X114394Y296530D01*
X116238D01*
X118018Y297007D01*
X119614Y297929D01*
X120917Y299232D01*
X121839Y300828D01*
X122316Y302608D01*
Y304452D01*
X121839Y306232D01*
X120917Y307828D01*
X119614Y309131D01*
X118140Y309982D01*
Y312315D01*
X118338Y312482D01*
X119083Y312787D01*
X172690Y259180D01*
Y187894D01*
X139005D01*
Y188651D01*
X125923D01*
Y172029D01*
X139005D01*
Y182246D01*
X172690D01*
Y177420D01*
X158754D01*
Y162420D01*
X178254D01*
Y171132D01*
X179254Y170689D01*
Y162420D01*
X184635D01*
X198562Y148493D01*
X199479Y147881D01*
X200560Y147666D01*
X293238D01*
X293238Y147666D01*
X294319Y147881D01*
X295235Y148493D01*
X332073Y185331D01*
X332073Y185331D01*
X332685Y186247D01*
X332900Y187328D01*
Y254071D01*
X336617D01*
Y270693D01*
X323535D01*
Y254071D01*
X327252D01*
Y188498D01*
X292068Y153314D01*
X291057D01*
X290642Y154314D01*
X324323Y187995D01*
X324935Y188911D01*
X325150Y189992D01*
X325150Y189992D01*
Y228738D01*
X325150Y228738D01*
X324935Y229819D01*
X324323Y230735D01*
X296993Y258065D01*
Y270693D01*
X283911D01*
Y254071D01*
X292999D01*
X319502Y227568D01*
Y191162D01*
X316730Y188391D01*
X315954Y189028D01*
X316045Y189165D01*
X316260Y190246D01*
Y222504D01*
X316045Y223585D01*
X315433Y224501D01*
X315433Y224501D01*
X307642Y232292D01*
X306725Y232905D01*
X305645Y233120D01*
X305644Y233120D01*
X303089D01*
Y239451D01*
X290007D01*
Y222829D01*
X303089D01*
Y227471D01*
X304475D01*
X310612Y221334D01*
Y191416D01*
X282670Y163474D01*
X273294D01*
Y168650D01*
X265754D01*
Y169920D01*
X264484D01*
Y178460D01*
X260029D01*
X259618Y178960D01*
X259618Y178960D01*
Y182290D01*
X260542Y182672D01*
X260543Y182671D01*
X262128Y182015D01*
Y186944D01*
Y191873D01*
X260543Y191217D01*
X260542Y191216D01*
X259618Y191598D01*
Y201646D01*
X272221D01*
Y196159D01*
X285303D01*
Y212781D01*
X272221D01*
Y207294D01*
X259618D01*
Y241300D01*
X259618Y241300D01*
X259403Y242381D01*
X258791Y243297D01*
X258791Y243297D01*
X183658Y318430D01*
Y321033D01*
X184365Y321740D01*
X184765D01*
X185065Y321740D01*
X196765D01*
Y321740D01*
X197465D01*
Y321740D01*
X209165D01*
X210165Y321740D01*
X210465Y321740D01*
X221865D01*
X222865Y321740D01*
X223165Y321740D01*
X228830D01*
Y310896D01*
X229044Y309823D01*
X229651Y308913D01*
X247738Y290827D01*
X248647Y290220D01*
X249720Y290006D01*
X322891D01*
X383680Y229217D01*
Y74338D01*
X382978D01*
Y66798D01*
X380438D01*
Y74338D01*
X379512D01*
Y76186D01*
X379299Y77259D01*
X378691Y78169D01*
X375762Y81097D01*
Y82113D01*
X378019D01*
Y98735D01*
X364937D01*
Y82113D01*
X370154D01*
Y79936D01*
X370368Y78863D01*
X370975Y77953D01*
X373904Y75025D01*
Y73298D01*
X368348D01*
Y74338D01*
X364478D01*
Y66798D01*
X361938D01*
Y74338D01*
X358068D01*
X358068Y74338D01*
X357211Y74683D01*
X355567Y75944D01*
X353368Y76855D01*
X352278Y76999D01*
Y63048D01*
Y49097D01*
X353368Y49241D01*
X355567Y50152D01*
X357455Y51601D01*
X358904Y53489D01*
X359058Y53859D01*
X360140D01*
X360393Y53249D01*
X361659Y51983D01*
X363313Y51298D01*
X365103D01*
X366757Y51983D01*
X367719Y52945D01*
X368765Y52960D01*
X368955Y52886D01*
X369161Y52578D01*
X381557Y40181D01*
X382467Y39574D01*
X383540Y39360D01*
X407670D01*
X408743Y39574D01*
X409653Y40181D01*
X419063Y49591D01*
X419671Y50501D01*
X419825Y51277D01*
X420772Y51847D01*
X421202Y51559D01*
X422958Y51210D01*
X425458D01*
X427214Y51559D01*
X428702Y52554D01*
X428826Y52739D01*
X430056Y52780D01*
X430961Y51601D01*
X432849Y50152D01*
X435048Y49241D01*
X436138Y49097D01*
Y63048D01*
Y76999D01*
X435048Y76855D01*
X432849Y75944D01*
X431847Y75176D01*
X430550Y75335D01*
X430465Y75463D01*
X432009Y77007D01*
X432009Y77007D01*
X432893Y78330D01*
X433203Y79891D01*
Y86634D01*
X440294D01*
Y101834D01*
X439100D01*
Y236746D01*
X438877Y238443D01*
X438222Y240024D01*
X437180Y241382D01*
X359108Y319454D01*
Y320699D01*
X358471Y323077D01*
X357240Y325209D01*
X355499Y326950D01*
X353367Y328181D01*
X350989Y328818D01*
X349966D01*
X348694Y330090D01*
Y331685D01*
X348057Y334063D01*
X346826Y336195D01*
X345085Y337936D01*
X342953Y339167D01*
X341952Y339435D01*
X340312Y341075D01*
Y343115D01*
X339675Y345493D01*
X338444Y347625D01*
X337087Y348982D01*
X337501Y349982D01*
X348842D01*
X458186Y240638D01*
Y168148D01*
X458186Y168148D01*
X458401Y167067D01*
X459013Y166151D01*
X474105Y151059D01*
X475021Y150447D01*
X476102Y150232D01*
X476102Y150232D01*
X514508D01*
Y144556D01*
X538508D01*
Y161556D01*
X514508D01*
Y155880D01*
X477272D01*
X463834Y169318D01*
Y241808D01*
X463834Y241808D01*
X463619Y242889D01*
X463007Y243805D01*
X353182Y353630D01*
X353565Y354554D01*
X355192D01*
X463585Y246161D01*
X463585Y246161D01*
X464501Y245549D01*
X465582Y245334D01*
X486004D01*
X486402Y244334D01*
X485381Y243312D01*
X484518Y241817D01*
X480715D01*
X479349Y241546D01*
X478192Y240772D01*
X473343Y235923D01*
X472569Y234765D01*
X472298Y233400D01*
Y228275D01*
X469325D01*
Y211653D01*
X482407D01*
Y228275D01*
X479435D01*
Y231922D01*
X482193Y234680D01*
X485416D01*
X486684Y233413D01*
X488280Y232491D01*
X490060Y232014D01*
X491904D01*
X493684Y232491D01*
X495280Y233413D01*
X496583Y234716D01*
X497505Y236312D01*
X497982Y238092D01*
Y239936D01*
X497505Y241716D01*
X496583Y243312D01*
X495562Y244334D01*
X495960Y245334D01*
X591594D01*
X605000Y231928D01*
Y215422D01*
X629000D01*
Y232422D01*
X610920D01*
Y232826D01*
X610705Y233907D01*
X610093Y234823D01*
X610093Y234823D01*
X594761Y250155D01*
X593845Y250767D01*
X592764Y250982D01*
X592764Y250982D01*
X466752D01*
X398196Y319538D01*
X398610Y320538D01*
X470408D01*
X471481Y320752D01*
X472391Y321359D01*
X478113Y327081D01*
X478720Y327991D01*
X478934Y329064D01*
Y333100D01*
X479380D01*
Y341000D01*
X482280D01*
Y341446D01*
X488616D01*
X489937Y340125D01*
Y326469D01*
X500149D01*
X500157Y326426D01*
X500821Y325434D01*
X509393Y316861D01*
X509393Y316861D01*
X510386Y316198D01*
X511556Y315965D01*
X511556Y315965D01*
X546865D01*
X556996Y305834D01*
X556626Y304452D01*
Y302608D01*
X557103Y300828D01*
X558025Y299232D01*
X559328Y297929D01*
X560924Y297007D01*
X562704Y296530D01*
X564548D01*
X566328Y297007D01*
X567924Y297929D01*
X569227Y299232D01*
X570149Y300828D01*
X570626Y302608D01*
Y304452D01*
X570149Y306232D01*
X569227Y307828D01*
X567924Y309131D01*
X566328Y310053D01*
X564548Y310530D01*
X562704D01*
X561322Y310160D01*
X550295Y321187D01*
X549302Y321850D01*
X548132Y322083D01*
X548132Y322083D01*
X512823D01*
X510400Y324505D01*
X510783Y325429D01*
X512706D01*
Y335280D01*
Y345131D01*
X504913D01*
Y344091D01*
X493902D01*
X491760Y346233D01*
X490851Y346840D01*
X489778Y347054D01*
X483320D01*
Y347980D01*
X477880D01*
Y350520D01*
X483320D01*
Y352980D01*
X477880D01*
Y355520D01*
X483320D01*
Y358540D01*
X479380D01*
Y361158D01*
X489937D01*
Y355171D01*
X504913D01*
Y354131D01*
X512706D01*
Y363982D01*
Y373833D01*
X504913D01*
Y372793D01*
X493475D01*
X487589Y378680D01*
X486596Y379342D01*
X485426Y379575D01*
X485425Y379575D01*
X438312D01*
X432334Y385554D01*
X432704Y386936D01*
Y388780D01*
X432227Y390560D01*
X431305Y392156D01*
X430002Y393459D01*
X428406Y394381D01*
X426626Y394858D01*
X424782D01*
X423002Y394381D01*
X421406Y393459D01*
X420103Y392156D01*
X419181Y390560D01*
X418704Y388780D01*
Y386936D01*
X419181Y385156D01*
X420103Y383560D01*
X421406Y382257D01*
X423002Y381335D01*
X424782Y380858D01*
X426626D01*
X428008Y381228D01*
X434883Y374354D01*
X434883Y374354D01*
X435875Y373691D01*
X435914Y373683D01*
X445506Y364091D01*
Y360426D01*
X445720Y359353D01*
X446327Y358443D01*
X451697Y353074D01*
X451282Y352074D01*
X401728D01*
X365471Y388331D01*
X364555Y388943D01*
X363474Y389158D01*
X363474Y389158D01*
X291084D01*
X290003Y388943D01*
X289087Y388331D01*
X278409Y377654D01*
X276766Y378094D01*
X274922D01*
X273142Y377617D01*
X271546Y376695D01*
X270243Y375392D01*
X269321Y373796D01*
X268844Y372016D01*
Y370172D01*
X269321Y368392D01*
X270243Y366796D01*
X271546Y365493D01*
X273142Y364571D01*
X274922Y364094D01*
X276766D01*
X278546Y364571D01*
X280014Y365419D01*
X280628Y364618D01*
X277536Y361526D01*
X275892Y361967D01*
X274049D01*
X272268Y361490D01*
X270672Y360568D01*
X269369Y359265D01*
X268447Y357668D01*
X267970Y355888D01*
Y354045D01*
X268447Y352265D01*
X269369Y350668D01*
X270672Y349365D01*
X272268Y348444D01*
X273438Y348130D01*
X273580Y347057D01*
X272562Y346469D01*
X271259Y345166D01*
X270337Y343570D01*
X269860Y341790D01*
Y339946D01*
X270337Y338166D01*
X271259Y336570D01*
X272562Y335267D01*
X274158Y334345D01*
X275938Y333868D01*
X276389Y332958D01*
X276366Y332868D01*
X274848Y331991D01*
X273545Y330688D01*
X272623Y329092D01*
X272146Y327312D01*
Y325468D01*
X272623Y323688D01*
X273545Y322092D01*
X274848Y320789D01*
X276444Y319867D01*
X278224Y319390D01*
X280068D01*
X281848Y319867D01*
X283444Y320789D01*
X284747Y322092D01*
X285669Y323688D01*
X286146Y325468D01*
Y327312D01*
X285706Y328955D01*
X294873Y338123D01*
X294874Y338123D01*
X295486Y339040D01*
X295701Y340120D01*
X295701Y340121D01*
Y343522D01*
X306732Y354554D01*
X313185D01*
X313568Y353630D01*
X309915Y349977D01*
X309915Y349977D01*
X305548Y345610D01*
X304706Y345836D01*
X302862D01*
X301082Y345359D01*
X299486Y344437D01*
X298183Y343134D01*
X297261Y341538D01*
X296784Y339758D01*
Y337914D01*
X297261Y336134D01*
X298183Y334538D01*
X299486Y333235D01*
X301082Y332313D01*
X302862Y331836D01*
X304706D01*
X306486Y332313D01*
X308082Y333235D01*
X309385Y334538D01*
X310307Y336134D01*
X310784Y337914D01*
Y339758D01*
X310307Y341538D01*
X309998Y342072D01*
X313909Y345983D01*
X313909Y345983D01*
X313909Y345983D01*
X317908Y349982D01*
X324423D01*
X324837Y348982D01*
X323480Y347625D01*
X322249Y345493D01*
X321612Y343115D01*
Y340653D01*
X322249Y338275D01*
X323480Y336143D01*
X325221Y334402D01*
X327353Y333171D01*
X329368Y332631D01*
X329994Y331685D01*
Y329223D01*
X330631Y326845D01*
X331862Y324713D01*
X333603Y322972D01*
X335735Y321741D01*
X338113Y321104D01*
X339136D01*
X340408Y319832D01*
Y318237D01*
X341045Y315859D01*
X342276Y313727D01*
X344017Y311986D01*
X346149Y310755D01*
X348527Y310118D01*
X349900D01*
X425988Y234030D01*
Y101834D01*
X424794D01*
Y86634D01*
X425047D01*
Y81580D01*
X424507Y81040D01*
X420737D01*
X419176Y80730D01*
X417853Y79846D01*
X417853Y79846D01*
X414924Y76917D01*
X414040Y75594D01*
X413790Y74338D01*
X412978D01*
Y66798D01*
X410438D01*
Y74338D01*
X409033D01*
Y84395D01*
X417105D01*
Y97477D01*
X400484D01*
Y84395D01*
X403935D01*
Y73298D01*
X393960D01*
X393888Y73406D01*
Y232142D01*
X393674Y233215D01*
X393067Y234125D01*
X327593Y299599D01*
X326683Y300206D01*
X325610Y300420D01*
X252439D01*
X244104Y308755D01*
Y321740D01*
X247565D01*
Y339740D01*
X235565D01*
Y339740D01*
X234865D01*
Y339740D01*
X223165D01*
X222165Y339740D01*
X221865Y339740D01*
X218528D01*
Y346391D01*
X218313Y347472D01*
X217701Y348388D01*
X217701Y348388D01*
X216803Y349286D01*
X216835Y349342D01*
X217312Y351122D01*
Y352966D01*
X216835Y354746D01*
X215913Y356342D01*
X214610Y357645D01*
X213014Y358567D01*
X211234Y359044D01*
X209390D01*
X207610Y358567D01*
X206014Y357645D01*
X204711Y356342D01*
X203789Y354746D01*
X203722Y354497D01*
X202722Y354628D01*
Y471126D01*
X203722Y471257D01*
X203789Y471008D01*
X204711Y469412D01*
X206014Y468109D01*
X207610Y467187D01*
X209390Y466710D01*
X211234D01*
X213014Y467187D01*
X214610Y468109D01*
X215913Y469412D01*
X216764Y470886D01*
X244358D01*
X245065Y470179D01*
X245065Y468690D01*
X245065Y468390D01*
Y462757D01*
X233336D01*
X232485Y464231D01*
X231182Y465534D01*
X229585Y466455D01*
X227805Y466932D01*
X225962D01*
X224182Y466455D01*
X222585Y465534D01*
X221282Y464231D01*
X220361Y462634D01*
X219883Y460854D01*
Y459011D01*
X220361Y457231D01*
X221282Y455634D01*
X222585Y454331D01*
X224182Y453410D01*
X225962Y452933D01*
X227805D01*
X229585Y453410D01*
X231182Y454331D01*
X232485Y455634D01*
X233336Y457108D01*
X244238D01*
X245065Y456690D01*
Y455990D01*
X245065D01*
Y443990D01*
X245065D01*
Y443290D01*
X245065D01*
Y431590D01*
X245065Y430590D01*
X245065Y430290D01*
Y418590D01*
X245065Y418590D01*
Y417890D01*
X245065D01*
X245065Y417590D01*
Y405890D01*
X245065D01*
Y405190D01*
X245065D01*
Y393190D01*
X245065Y393190D01*
Y392490D01*
X245065D01*
X245065Y392190D01*
Y380490D01*
X245065D01*
Y379790D01*
X245065D01*
Y368090D01*
X245065Y367090D01*
X245065Y366790D01*
Y355390D01*
X245065Y354390D01*
X245065Y354090D01*
Y342390D01*
X263065D01*
Y354090D01*
X263065Y355090D01*
X263065Y355390D01*
Y366790D01*
X263065Y367790D01*
X263065Y368090D01*
Y374132D01*
X266072D01*
X267145Y374346D01*
X268055Y374953D01*
X289332Y396230D01*
X537065D01*
X537708Y395587D01*
Y367030D01*
X537922Y365957D01*
X538529Y365047D01*
X544625Y358951D01*
X545535Y358344D01*
X546608Y358130D01*
X710692D01*
X711765Y358344D01*
X712675Y358951D01*
X724867Y371143D01*
X725474Y372053D01*
X725688Y373126D01*
Y499110D01*
X725474Y500183D01*
X724867Y501093D01*
X709627Y516333D01*
X708717Y516940D01*
X707644Y517154D01*
X698671D01*
X698367Y518154D01*
X698451Y518209D01*
X700779Y520537D01*
X701386Y521447D01*
X701600Y522520D01*
Y524610D01*
X706046D01*
Y542110D01*
X691546D01*
Y524610D01*
X695573D01*
X695778Y523610D01*
X695202Y522996D01*
X690711D01*
X690640Y523010D01*
X680735D01*
X680355Y523891D01*
X680934Y524610D01*
X688046D01*
Y542110D01*
X673546D01*
Y532398D01*
X663824D01*
Y534570D01*
X655366D01*
X654824Y534678D01*
X645311D01*
X643910Y536079D01*
Y557391D01*
X645311Y558792D01*
X701087D01*
Y545400D01*
X729088D01*
Y583400D01*
X709018D01*
X694601Y597817D01*
X692782Y599033D01*
X690636Y599460D01*
X596666D01*
X594520Y599033D01*
X592701Y597817D01*
X591381Y596498D01*
X591204D01*
X590662Y596390D01*
X588812D01*
Y672470D01*
X604211D01*
Y674604D01*
X626618D01*
X628764Y675031D01*
X630583Y676247D01*
X642521Y688185D01*
X643737Y690004D01*
X644164Y692150D01*
Y699098D01*
X648056D01*
Y709055D01*
X648110Y709328D01*
X648110Y709328D01*
Y716252D01*
X674778Y742920D01*
X797660D01*
X803880Y736700D01*
Y734611D01*
X798163D01*
Y720551D01*
X815245D01*
Y734611D01*
X809528D01*
Y737870D01*
X809313Y738951D01*
X808701Y739867D01*
X808701Y739867D01*
X800827Y747741D01*
X799911Y748353D01*
X798830Y748568D01*
X798830Y748568D01*
X673608D01*
X672527Y748353D01*
X671611Y747741D01*
X671611Y747741D01*
X643289Y719419D01*
X642677Y718503D01*
X642462Y717422D01*
X642462Y717422D01*
Y712098D01*
X629056D01*
Y699098D01*
X632948D01*
Y694473D01*
X624295Y685820D01*
X604211D01*
Y700470D01*
X590818D01*
Y709173D01*
X590392Y711319D01*
X589176Y713139D01*
X530761Y771553D01*
X528942Y772769D01*
X526796Y773196D01*
X413826D01*
Y778879D01*
X404005D01*
X394184D01*
Y770592D01*
X393804Y769749D01*
X385592D01*
Y770240D01*
X385165Y772386D01*
X384592Y773244D01*
Y780526D01*
X384165Y782672D01*
X382949Y784491D01*
X364899Y802541D01*
X363080Y803757D01*
X360934Y804184D01*
X304075D01*
X293271Y814987D01*
X291452Y816203D01*
X289306Y816630D01*
D02*
G37*
G36*
X691109Y728401D02*
X685046D01*
Y720090D01*
X691109D01*
Y728401D01*
D02*
G37*
G36*
X682506D02*
X676442D01*
Y720090D01*
X682506D01*
Y728401D01*
D02*
G37*
G36*
X47230Y723954D02*
X28460D01*
Y710184D01*
X47230D01*
Y723954D01*
D02*
G37*
G36*
X25920D02*
X7150D01*
Y710184D01*
X25920D01*
Y723954D01*
D02*
G37*
G36*
X691109Y717550D02*
X685046D01*
Y709239D01*
X691109D01*
Y717550D01*
D02*
G37*
G36*
X682506D02*
X676442D01*
Y709239D01*
X682506D01*
Y717550D01*
D02*
G37*
G36*
X372888Y719470D02*
X368554D01*
Y708286D01*
X369534D01*
X370818Y708541D01*
X371906Y709268D01*
X372633Y710356D01*
X372888Y711640D01*
Y719470D01*
D02*
G37*
G36*
X366014D02*
X361679D01*
Y711640D01*
X361935Y710356D01*
X362662Y709268D01*
X363750Y708541D01*
X365034Y708286D01*
X366014D01*
Y719470D01*
D02*
G37*
G36*
X340614D02*
X336279D01*
Y711640D01*
X336535Y710356D01*
X337262Y709268D01*
X338350Y708541D01*
X339634Y708286D01*
X340614D01*
Y719470D01*
D02*
G37*
G36*
X427736Y709558D02*
Y705358D01*
X431936D01*
X431163Y707226D01*
X429604Y708785D01*
X427736Y709558D01*
D02*
G37*
G36*
X425196D02*
X423328Y708785D01*
X421769Y707226D01*
X420996Y705358D01*
X425196D01*
Y709558D01*
D02*
G37*
G36*
X606975Y810878D02*
X604605D01*
X602316Y810265D01*
X600264Y809080D01*
X598588Y807404D01*
X597403Y805352D01*
X596790Y803063D01*
Y800693D01*
X597403Y798404D01*
X598588Y796352D01*
X600182Y794758D01*
Y759344D01*
X600609Y757198D01*
X601825Y755379D01*
X606786Y750417D01*
Y734253D01*
X606653Y734176D01*
X604912Y732435D01*
X603681Y730303D01*
X603044Y727925D01*
Y725463D01*
X603681Y723085D01*
X604912Y720953D01*
X606177Y719688D01*
X606145Y719444D01*
X604404Y717703D01*
X603173Y715571D01*
X602536Y713193D01*
Y710731D01*
X603173Y708353D01*
X604404Y706221D01*
X606145Y704480D01*
X608277Y703249D01*
X610655Y702612D01*
X613117D01*
X615495Y703249D01*
X617627Y704480D01*
X619368Y706221D01*
X620599Y708353D01*
X621236Y710731D01*
Y713193D01*
X620599Y715571D01*
X619368Y717703D01*
X618103Y718968D01*
X618135Y719212D01*
X619876Y720953D01*
X621107Y723085D01*
X621744Y725463D01*
Y727925D01*
X621107Y730303D01*
X619876Y732435D01*
X618135Y734176D01*
X618002Y734253D01*
Y752740D01*
X617575Y754886D01*
X616359Y756705D01*
X611398Y761667D01*
Y794758D01*
X612992Y796352D01*
X614177Y798404D01*
X614790Y800693D01*
Y803063D01*
X614177Y805352D01*
X612992Y807404D01*
X611316Y809080D01*
X609264Y810265D01*
X606975Y810878D01*
D02*
G37*
G36*
X175006Y706764D02*
Y702564D01*
X179206D01*
X178433Y704432D01*
X176874Y705991D01*
X175006Y706764D01*
D02*
G37*
G36*
X172466D02*
X170598Y705991D01*
X169039Y704432D01*
X168266Y702564D01*
X172466D01*
Y706764D01*
D02*
G37*
G36*
X314555Y709351D02*
X307512D01*
Y701270D01*
X314555D01*
Y709351D01*
D02*
G37*
G36*
X304972D02*
X297929D01*
Y701270D01*
X304972D01*
Y709351D01*
D02*
G37*
G36*
X431936Y702818D02*
X427736D01*
Y698618D01*
X429604Y699391D01*
X431163Y700950D01*
X431936Y702818D01*
D02*
G37*
G36*
X425196D02*
X420996D01*
X421769Y700950D01*
X423328Y699391D01*
X425196Y698618D01*
Y702818D01*
D02*
G37*
G36*
X179206Y700024D02*
X175006D01*
Y695824D01*
X176874Y696597D01*
X178433Y698156D01*
X179206Y700024D01*
D02*
G37*
G36*
X172466D02*
X168266D01*
X169039Y698156D01*
X170598Y696597D01*
X172466Y695824D01*
Y700024D01*
D02*
G37*
G36*
X47230Y707644D02*
X28460D01*
Y693874D01*
X47230D01*
Y707644D01*
D02*
G37*
G36*
X25920D02*
X7150D01*
Y693874D01*
X25920D01*
Y707644D01*
D02*
G37*
G36*
X314555Y698730D02*
X307512D01*
Y690649D01*
X314555D01*
Y698730D01*
D02*
G37*
G36*
X304972D02*
X297929D01*
Y690649D01*
X304972D01*
Y698730D01*
D02*
G37*
G36*
X540251Y701510D02*
X521481D01*
Y687740D01*
X540251D01*
Y701510D01*
D02*
G37*
G36*
X518941D02*
X500171D01*
Y687740D01*
X518941D01*
Y701510D01*
D02*
G37*
G36*
X142185Y694436D02*
X133604D01*
Y686643D01*
X142185D01*
Y694436D01*
D02*
G37*
G36*
X131064D02*
X122483D01*
Y686643D01*
X131064D01*
Y694436D01*
D02*
G37*
G36*
X473202Y684666D02*
Y680466D01*
X477402D01*
X476629Y682334D01*
X475070Y683893D01*
X473202Y684666D01*
D02*
G37*
G36*
X470662D02*
X468794Y683893D01*
X467235Y682334D01*
X466462Y680466D01*
X470662D01*
Y684666D01*
D02*
G37*
G36*
X770796Y702960D02*
X768952D01*
X767172Y702483D01*
X765576Y701561D01*
X764273Y700258D01*
X763351Y698662D01*
X762874Y696882D01*
Y695038D01*
X763351Y693258D01*
X764273Y691662D01*
X765576Y690359D01*
X766320Y689929D01*
X766052Y688929D01*
X762164D01*
X761384Y688774D01*
X760722Y688332D01*
X760280Y687670D01*
X760125Y686890D01*
Y683890D01*
X760280Y683110D01*
X760429Y682887D01*
X759972Y682582D01*
X759300Y681576D01*
X759064Y680390D01*
Y680160D01*
X769464D01*
X779864D01*
Y680390D01*
X779628Y681576D01*
X778956Y682582D01*
X778499Y682887D01*
X778648Y683110D01*
X778803Y683890D01*
Y686890D01*
X778648Y687670D01*
X778206Y688332D01*
X777544Y688774D01*
X776764Y688929D01*
X773696D01*
X773428Y689929D01*
X774172Y690359D01*
X775475Y691662D01*
X776397Y693258D01*
X776874Y695038D01*
Y696882D01*
X776397Y698662D01*
X775475Y700258D01*
X774172Y701561D01*
X772576Y702483D01*
X770796Y702960D01*
D02*
G37*
G36*
X477402Y677926D02*
X473202D01*
Y673726D01*
X475070Y674499D01*
X476629Y676058D01*
X477402Y677926D01*
D02*
G37*
G36*
X470662D02*
X466462D01*
X467235Y676058D01*
X468794Y674499D01*
X470662Y673726D01*
Y677926D01*
D02*
G37*
G36*
X779864Y677620D02*
X769464D01*
X759064D01*
Y677390D01*
X759300Y676204D01*
X759677Y675640D01*
X759300Y675076D01*
X759064Y673890D01*
Y673660D01*
X769464D01*
X779864D01*
Y673890D01*
X779628Y675076D01*
X779251Y675640D01*
X779628Y676204D01*
X779864Y677390D01*
Y677620D01*
D02*
G37*
G36*
X540251Y685200D02*
X521481D01*
Y671430D01*
X540251D01*
Y685200D01*
D02*
G37*
G36*
X518941D02*
X500171D01*
Y671430D01*
X518941D01*
Y685200D01*
D02*
G37*
G36*
X730127Y649440D02*
X716357D01*
Y630670D01*
X730127D01*
Y649440D01*
D02*
G37*
G36*
X713818D02*
X700048D01*
Y630670D01*
X713818D01*
Y649440D01*
D02*
G37*
G36*
X73008Y646032D02*
X55008D01*
Y628032D01*
X73008D01*
Y646032D01*
D02*
G37*
G36*
X801624Y632088D02*
Y627888D01*
X805824D01*
X805051Y629756D01*
X803492Y631315D01*
X801624Y632088D01*
D02*
G37*
G36*
X799084D02*
X797216Y631315D01*
X795657Y629756D01*
X794884Y627888D01*
X799084D01*
Y632088D01*
D02*
G37*
G36*
X638556Y625484D02*
Y621284D01*
X642756D01*
X641983Y623152D01*
X640424Y624711D01*
X638556Y625484D01*
D02*
G37*
G36*
X636016D02*
X634148Y624711D01*
X632589Y623152D01*
X631816Y621284D01*
X636016D01*
Y625484D01*
D02*
G37*
G36*
X805824Y625348D02*
X801624D01*
Y621148D01*
X803492Y621921D01*
X805051Y623480D01*
X805824Y625348D01*
D02*
G37*
G36*
X799084D02*
X794884D01*
X795657Y623480D01*
X797216Y621921D01*
X799084Y621148D01*
Y625348D01*
D02*
G37*
G36*
X224028Y619134D02*
Y614934D01*
X228228D01*
X227455Y616802D01*
X225896Y618361D01*
X224028Y619134D01*
D02*
G37*
G36*
X221488D02*
X219620Y618361D01*
X218061Y616802D01*
X217288Y614934D01*
X221488D01*
Y619134D01*
D02*
G37*
G36*
X141224D02*
Y614934D01*
X145424D01*
X144651Y616802D01*
X143092Y618361D01*
X141224Y619134D01*
D02*
G37*
G36*
X138684D02*
X136816Y618361D01*
X135257Y616802D01*
X134484Y614934D01*
X138684D01*
Y619134D01*
D02*
G37*
G36*
X642756Y618744D02*
X638556D01*
Y614544D01*
X640424Y615317D01*
X641983Y616876D01*
X642756Y618744D01*
D02*
G37*
G36*
X636016D02*
X631816D01*
X632589Y616876D01*
X634148Y615317D01*
X636016Y614544D01*
Y618744D01*
D02*
G37*
G36*
X730127Y628130D02*
X716357D01*
Y609360D01*
X730127D01*
Y628130D01*
D02*
G37*
G36*
X713818D02*
X700048D01*
Y609360D01*
X713818D01*
Y628130D01*
D02*
G37*
G36*
X228228Y612394D02*
X224028D01*
Y608194D01*
X225896Y608967D01*
X227455Y610526D01*
X228228Y612394D01*
D02*
G37*
G36*
X221488D02*
X217288D01*
X218061Y610526D01*
X219620Y608967D01*
X221488Y608194D01*
Y612394D01*
D02*
G37*
G36*
X145424D02*
X141224D01*
Y608194D01*
X143092Y608967D01*
X144651Y610526D01*
X145424Y612394D01*
D02*
G37*
G36*
X138684D02*
X134484D01*
X135257Y610526D01*
X136816Y608967D01*
X138684Y608194D01*
Y612394D01*
D02*
G37*
G36*
X65193Y620632D02*
X62823D01*
X60534Y620019D01*
X58482Y618834D01*
X56806Y617158D01*
X55621Y615106D01*
X55008Y612817D01*
Y610447D01*
X55621Y608158D01*
X56806Y606106D01*
X58482Y604430D01*
X60534Y603245D01*
X62823Y602632D01*
X65193D01*
X67482Y603245D01*
X69534Y604430D01*
X71210Y606106D01*
X72395Y608158D01*
X73008Y610447D01*
Y612817D01*
X72395Y615106D01*
X71210Y617158D01*
X69534Y618834D01*
X67482Y620019D01*
X65193Y620632D01*
D02*
G37*
G36*
X536744Y597430D02*
X523474D01*
Y581660D01*
X536744D01*
Y597430D01*
D02*
G37*
G36*
X520934D02*
X507664D01*
Y581660D01*
X520934D01*
Y597430D01*
D02*
G37*
G36*
X388972Y585700D02*
X388874D01*
Y576580D01*
X397994D01*
Y576678D01*
X397286Y579320D01*
X395918Y581690D01*
X393984Y583624D01*
X391614Y584992D01*
X388972Y585700D01*
D02*
G37*
G36*
X386334D02*
X386236D01*
X383594Y584992D01*
X381224Y583624D01*
X379290Y581690D01*
X377922Y579320D01*
X377214Y576678D01*
Y576580D01*
X386334D01*
Y585700D01*
D02*
G37*
G36*
X84035Y584660D02*
X81573D01*
X79195Y584023D01*
X77063Y582792D01*
X75322Y581051D01*
X74091Y578919D01*
X73454Y576541D01*
Y574079D01*
X74091Y571701D01*
X74497Y570998D01*
X59979Y556479D01*
X59367Y555563D01*
X59152Y554482D01*
X59152Y554482D01*
Y537058D01*
X57678Y536207D01*
X56375Y534904D01*
X55453Y533308D01*
X54976Y531528D01*
Y529684D01*
X55453Y527904D01*
X56375Y526308D01*
X57678Y525005D01*
X59274Y524083D01*
X61054Y523606D01*
X62898D01*
X64678Y524083D01*
X66274Y525005D01*
X67577Y526308D01*
X68499Y527904D01*
X68976Y529684D01*
Y531528D01*
X68499Y533308D01*
X67577Y534904D01*
X66274Y536207D01*
X64800Y537058D01*
Y553312D01*
X78492Y567003D01*
X79195Y566597D01*
X81573Y565960D01*
X84035D01*
X86413Y566597D01*
X88545Y567828D01*
X90286Y569569D01*
X91517Y571701D01*
X92154Y574079D01*
Y576541D01*
X91517Y578919D01*
X90286Y581051D01*
X88545Y582792D01*
X86413Y584023D01*
X84035Y584660D01*
D02*
G37*
G36*
X397994Y574040D02*
X388874D01*
Y564920D01*
X388972D01*
X391614Y565628D01*
X393984Y566996D01*
X395918Y568930D01*
X397286Y571300D01*
X397994Y573942D01*
Y574040D01*
D02*
G37*
G36*
X386334D02*
X377214D01*
Y573942D01*
X377922Y571300D01*
X379290Y568930D01*
X381224Y566996D01*
X383594Y565628D01*
X386236Y564920D01*
X386334D01*
Y574040D01*
D02*
G37*
G36*
X536744Y579120D02*
X523474D01*
Y563350D01*
X536744D01*
Y579120D01*
D02*
G37*
G36*
X520934D02*
X507664D01*
Y563350D01*
X520934D01*
Y579120D01*
D02*
G37*
G36*
X32004Y566556D02*
Y562356D01*
X36204D01*
X35431Y564224D01*
X33872Y565783D01*
X32004Y566556D01*
D02*
G37*
G36*
X29464D02*
X27596Y565783D01*
X26037Y564224D01*
X25264Y562356D01*
X29464D01*
Y566556D01*
D02*
G37*
G36*
X36204Y559816D02*
X32004D01*
Y555616D01*
X33872Y556389D01*
X35431Y557948D01*
X36204Y559816D01*
D02*
G37*
G36*
X29464D02*
X25264D01*
X26037Y557948D01*
X27596Y556389D01*
X29464Y555616D01*
Y559816D01*
D02*
G37*
G36*
X631344Y554750D02*
X623824D01*
Y548480D01*
X631344D01*
Y554750D01*
D02*
G37*
G36*
X621284D02*
X613764D01*
Y548480D01*
X621284D01*
Y554750D01*
D02*
G37*
G36*
X664864Y550610D02*
X656844D01*
Y544590D01*
X664864D01*
Y550610D01*
D02*
G37*
G36*
X654304D02*
X646284D01*
Y544590D01*
X654304D01*
Y550610D01*
D02*
G37*
G36*
X631344Y545940D02*
X623824D01*
Y539670D01*
X631344D01*
Y545940D01*
D02*
G37*
G36*
X621284D02*
X613764D01*
Y539670D01*
X621284D01*
Y545940D01*
D02*
G37*
G36*
X534670Y542426D02*
Y538226D01*
X538870D01*
X538097Y540094D01*
X536538Y541653D01*
X534670Y542426D01*
D02*
G37*
G36*
X532130D02*
X530262Y541653D01*
X528703Y540094D01*
X527930Y538226D01*
X532130D01*
Y542426D01*
D02*
G37*
G36*
X664864Y542050D02*
X656844D01*
Y536030D01*
X664864D01*
Y542050D01*
D02*
G37*
G36*
X654304D02*
X646284D01*
Y536030D01*
X654304D01*
Y542050D01*
D02*
G37*
G36*
X564722Y541199D02*
X556435D01*
Y532648D01*
X564722D01*
Y541199D01*
D02*
G37*
G36*
X538870Y535686D02*
X534670D01*
Y531486D01*
X536538Y532259D01*
X538097Y533818D01*
X538870Y535686D01*
D02*
G37*
G36*
X532130D02*
X527930D01*
X528703Y533818D01*
X530262Y532259D01*
X532130Y531486D01*
Y535686D01*
D02*
G37*
G36*
X798068Y531758D02*
Y527558D01*
X802268D01*
X801495Y529426D01*
X799936Y530985D01*
X798068Y531758D01*
D02*
G37*
G36*
X795528D02*
X793660Y530985D01*
X792101Y529426D01*
X791328Y527558D01*
X795528D01*
Y531758D01*
D02*
G37*
G36*
X302420Y539130D02*
X300576D01*
X298796Y538653D01*
X297200Y537731D01*
X295897Y536428D01*
X294975Y534832D01*
X294498Y533052D01*
Y531208D01*
X294975Y529428D01*
X295897Y527832D01*
X297200Y526529D01*
X298796Y525607D01*
X300576Y525130D01*
X302420D01*
X304200Y525607D01*
X305796Y526529D01*
X307099Y527832D01*
X308021Y529428D01*
X308498Y531208D01*
Y533052D01*
X308021Y534832D01*
X307099Y536428D01*
X305796Y537731D01*
X304200Y538653D01*
X302420Y539130D01*
D02*
G37*
G36*
X365506Y527694D02*
Y523494D01*
X369706D01*
X368933Y525362D01*
X367374Y526921D01*
X365506Y527694D01*
D02*
G37*
G36*
X362966D02*
X361098Y526921D01*
X359539Y525362D01*
X358766Y523494D01*
X362966D01*
Y527694D01*
D02*
G37*
G36*
X564722Y530108D02*
X556435D01*
Y521557D01*
X564722D01*
Y530108D01*
D02*
G37*
G36*
X802268Y525018D02*
X798068D01*
Y520818D01*
X799936Y521591D01*
X801495Y523150D01*
X802268Y525018D01*
D02*
G37*
G36*
X795528D02*
X791328D01*
X792101Y523150D01*
X793660Y521591D01*
X795528Y520818D01*
Y525018D01*
D02*
G37*
G36*
X332900Y533796D02*
X331056D01*
X329276Y533319D01*
X327680Y532397D01*
X326377Y531094D01*
X325455Y529498D01*
X324978Y527718D01*
Y525874D01*
X325455Y524094D01*
X326377Y522498D01*
X327680Y521195D01*
X329276Y520273D01*
X331056Y519796D01*
X332900D01*
X334680Y520273D01*
X336276Y521195D01*
X337579Y522498D01*
X338501Y524094D01*
X338978Y525874D01*
Y527718D01*
X338501Y529498D01*
X337579Y531094D01*
X336276Y532397D01*
X334680Y533319D01*
X332900Y533796D01*
D02*
G37*
G36*
X738378Y522360D02*
Y518160D01*
X742578D01*
X741805Y520028D01*
X740246Y521587D01*
X738378Y522360D01*
D02*
G37*
G36*
X735838D02*
X733970Y521587D01*
X732411Y520028D01*
X731638Y518160D01*
X735838D01*
Y522360D01*
D02*
G37*
G36*
X369706Y520954D02*
X365506D01*
Y516754D01*
X367374Y517527D01*
X368933Y519086D01*
X369706Y520954D01*
D02*
G37*
G36*
X362966D02*
X358766D01*
X359539Y519086D01*
X361098Y517527D01*
X362966Y516754D01*
Y520954D01*
D02*
G37*
G36*
X742578Y515620D02*
X738378D01*
Y511420D01*
X740246Y512193D01*
X741805Y513752D01*
X742578Y515620D01*
D02*
G37*
G36*
X735838D02*
X731638D01*
X732411Y513752D01*
X733970Y512193D01*
X735838Y511420D01*
Y515620D01*
D02*
G37*
G36*
X75195Y515780D02*
X69425D01*
Y507010D01*
X75195D01*
Y515780D01*
D02*
G37*
G36*
X565848Y516576D02*
X560324D01*
Y506500D01*
X565848D01*
Y516576D01*
D02*
G37*
G36*
X557784D02*
X552260D01*
Y506500D01*
X557784D01*
Y516576D01*
D02*
G37*
G36*
X75195Y504470D02*
X69425D01*
Y495700D01*
X75195D01*
Y504470D01*
D02*
G37*
G36*
X565848Y503960D02*
X560324D01*
Y493884D01*
X565848D01*
Y503960D01*
D02*
G37*
G36*
X557784D02*
X552260D01*
Y493884D01*
X557784D01*
Y503960D01*
D02*
G37*
G36*
X767757Y491854D02*
X765387D01*
X763098Y491241D01*
X761046Y490056D01*
X759370Y488380D01*
X758185Y486328D01*
X757572Y484039D01*
Y481669D01*
X758185Y479380D01*
X759370Y477328D01*
X761046Y475652D01*
X763098Y474467D01*
X765387Y473854D01*
X767757D01*
X770046Y474467D01*
X772098Y475652D01*
X773774Y477328D01*
X774959Y479380D01*
X775572Y481669D01*
Y484039D01*
X774959Y486328D01*
X773774Y488380D01*
X772098Y490056D01*
X770046Y491241D01*
X767757Y491854D01*
D02*
G37*
G36*
X518783Y464930D02*
X510232D01*
Y456642D01*
X518783D01*
Y464930D01*
D02*
G37*
G36*
X507692D02*
X499141D01*
Y456642D01*
X507692D01*
Y464930D01*
D02*
G37*
G36*
X775572Y466454D02*
X757572D01*
Y448454D01*
X775572D01*
Y466454D01*
D02*
G37*
G36*
X577348Y456076D02*
X560324D01*
Y446000D01*
X577348D01*
Y456076D01*
D02*
G37*
G36*
X557784D02*
X540760D01*
Y446000D01*
X557784D01*
Y456076D01*
D02*
G37*
G36*
X477288Y456734D02*
X461518D01*
Y443464D01*
X477288D01*
Y456734D01*
D02*
G37*
G36*
X458978D02*
X443208D01*
Y443464D01*
X458978D01*
Y456734D01*
D02*
G37*
G36*
X577348Y443460D02*
X560324D01*
Y433384D01*
X577348D01*
Y443460D01*
D02*
G37*
G36*
X557784D02*
X540760D01*
Y433384D01*
X557784D01*
Y443460D01*
D02*
G37*
G36*
X174705Y424280D02*
X168935D01*
Y418510D01*
X174705D01*
Y424280D01*
D02*
G37*
G36*
X138395D02*
X132625D01*
Y418510D01*
X138395D01*
Y424280D01*
D02*
G37*
G36*
X166395D02*
X154935D01*
Y417240D01*
X152395D01*
Y424280D01*
X140935D01*
Y417240D01*
X139665D01*
Y415970D01*
X132625D01*
Y410200D01*
Y404510D01*
X139665D01*
Y401970D01*
X132625D01*
Y396200D01*
Y390510D01*
X139665D01*
Y389240D01*
X140935D01*
Y382200D01*
X152395D01*
Y389240D01*
X154935D01*
Y382200D01*
X166395D01*
Y389240D01*
X167665D01*
Y390510D01*
X174705D01*
Y396200D01*
Y401970D01*
X167665D01*
Y404510D01*
X174705D01*
Y410200D01*
Y415970D01*
X167665D01*
Y417240D01*
X166395D01*
Y424280D01*
D02*
G37*
G36*
X796290Y415172D02*
Y410972D01*
X800490D01*
X799717Y412840D01*
X798158Y414399D01*
X796290Y415172D01*
D02*
G37*
G36*
X793750D02*
X791882Y414399D01*
X790323Y412840D01*
X789550Y410972D01*
X793750D01*
Y415172D01*
D02*
G37*
G36*
X742696Y412124D02*
Y407924D01*
X746896D01*
X746123Y409792D01*
X744564Y411351D01*
X742696Y412124D01*
D02*
G37*
G36*
X740156D02*
X738288Y411351D01*
X736729Y409792D01*
X735956Y407924D01*
X740156D01*
Y412124D01*
D02*
G37*
G36*
X800490Y408432D02*
X796290D01*
Y404232D01*
X798158Y405005D01*
X799717Y406564D01*
X800490Y408432D01*
D02*
G37*
G36*
X793750D02*
X789550D01*
X790323Y406564D01*
X791882Y405005D01*
X793750Y404232D01*
Y408432D01*
D02*
G37*
G36*
X746896Y405384D02*
X742696D01*
Y401184D01*
X744564Y401957D01*
X746123Y403516D01*
X746896Y405384D01*
D02*
G37*
G36*
X740156D02*
X735956D01*
X736729Y403516D01*
X738288Y401957D01*
X740156Y401184D01*
Y405384D01*
D02*
G37*
G36*
X174705Y387970D02*
X168935D01*
Y382200D01*
X174705D01*
Y387970D01*
D02*
G37*
G36*
X138395D02*
X132625D01*
Y382200D01*
X138395D01*
Y387970D01*
D02*
G37*
G36*
X523039Y373833D02*
X515246D01*
Y365252D01*
X523039D01*
Y373833D01*
D02*
G37*
G36*
Y362712D02*
X515246D01*
Y354131D01*
X523039D01*
Y362712D01*
D02*
G37*
G36*
X539750Y354687D02*
Y351028D01*
X543409D01*
X542753Y352613D01*
X541335Y354031D01*
X539750Y354687D01*
D02*
G37*
G36*
X537210D02*
X535625Y354031D01*
X534207Y352613D01*
X533551Y351028D01*
X537210D01*
Y354687D01*
D02*
G37*
G36*
X543409Y348488D02*
X539750D01*
Y344829D01*
X541335Y345485D01*
X542753Y346903D01*
X543409Y348488D01*
D02*
G37*
G36*
X537210D02*
X533551D01*
X534207Y346903D01*
X535625Y345485D01*
X537210Y344829D01*
Y348488D01*
D02*
G37*
G36*
X523039Y345131D02*
X515246D01*
Y336550D01*
X523039D01*
Y345131D01*
D02*
G37*
G36*
X75195Y340780D02*
X69425D01*
Y332010D01*
X75195D01*
Y340780D01*
D02*
G37*
G36*
X523039Y334010D02*
X515246D01*
Y325429D01*
X523039D01*
Y334010D01*
D02*
G37*
G36*
X311404Y328812D02*
Y324612D01*
X315604D01*
X314831Y326480D01*
X313272Y328039D01*
X311404Y328812D01*
D02*
G37*
G36*
X308864D02*
X306996Y328039D01*
X305437Y326480D01*
X304664Y324612D01*
X308864D01*
Y328812D01*
D02*
G37*
G36*
X75195Y329470D02*
X69425D01*
Y320700D01*
X75195D01*
Y329470D01*
D02*
G37*
G36*
X315604Y322072D02*
X311404D01*
Y317872D01*
X313272Y318645D01*
X314831Y320204D01*
X315604Y322072D01*
D02*
G37*
G36*
X308864D02*
X304664D01*
X305437Y320204D01*
X306996Y318645D01*
X308864Y317872D01*
Y322072D01*
D02*
G37*
G36*
X696976Y305444D02*
Y301244D01*
X701176D01*
X700403Y303112D01*
X698844Y304671D01*
X696976Y305444D01*
D02*
G37*
G36*
X694436D02*
X692568Y304671D01*
X691009Y303112D01*
X690236Y301244D01*
X694436D01*
Y305444D01*
D02*
G37*
G36*
X77820Y309240D02*
X70027D01*
Y300659D01*
X77820D01*
Y309240D01*
D02*
G37*
G36*
X42418Y303920D02*
Y299720D01*
X46618D01*
X45845Y301588D01*
X44286Y303147D01*
X42418Y303920D01*
D02*
G37*
G36*
X39878D02*
X38010Y303147D01*
X36451Y301588D01*
X35678Y299720D01*
X39878D01*
Y303920D01*
D02*
G37*
G36*
X701176Y298704D02*
X696976D01*
Y294504D01*
X698844Y295277D01*
X700403Y296836D01*
X701176Y298704D01*
D02*
G37*
G36*
X694436D02*
X690236D01*
X691009Y296836D01*
X692568Y295277D01*
X694436Y294504D01*
Y298704D01*
D02*
G37*
G36*
X230124Y298586D02*
Y294386D01*
X234324D01*
X233551Y296254D01*
X231992Y297813D01*
X230124Y298586D01*
D02*
G37*
G36*
X227584D02*
X225716Y297813D01*
X224157Y296254D01*
X223384Y294386D01*
X227584D01*
Y298586D01*
D02*
G37*
G36*
X46618Y297180D02*
X42418D01*
Y292980D01*
X44286Y293753D01*
X45845Y295312D01*
X46618Y297180D01*
D02*
G37*
G36*
X39878D02*
X35678D01*
X36451Y295312D01*
X38010Y293753D01*
X39878Y292980D01*
Y297180D01*
D02*
G37*
G36*
X77820Y298119D02*
X70027D01*
Y289539D01*
X77820D01*
Y298119D01*
D02*
G37*
G36*
X234324Y291846D02*
X230124D01*
Y287646D01*
X231992Y288419D01*
X233551Y289978D01*
X234324Y291846D01*
D02*
G37*
G36*
X227584D02*
X223384D01*
X224157Y289978D01*
X225716Y288419D01*
X227584Y287646D01*
Y291846D01*
D02*
G37*
G36*
X307086Y288046D02*
X278638D01*
X277565Y287832D01*
X276655Y287225D01*
X270429Y280999D01*
X269822Y280089D01*
X269608Y279016D01*
Y270693D01*
X265871D01*
Y266459D01*
X258409D01*
X256891Y267977D01*
X254685Y268890D01*
X252299D01*
X250093Y267977D01*
X248405Y266289D01*
X247492Y264083D01*
Y261696D01*
X248405Y259491D01*
X250093Y257803D01*
X252299Y256890D01*
X254685D01*
X256891Y257803D01*
X258409Y259321D01*
X265871D01*
Y254071D01*
X273399D01*
Y239451D01*
X271967D01*
Y222829D01*
X279662D01*
X279708Y222596D01*
X280316Y221687D01*
X290207Y211795D01*
Y208261D01*
X290261Y207990D01*
Y196159D01*
X303343D01*
Y212781D01*
X295815D01*
Y212957D01*
X295602Y214030D01*
X294994Y214939D01*
X285103Y224831D01*
Y227349D01*
X285049Y227620D01*
Y239451D01*
X279007D01*
Y258591D01*
X278953Y258862D01*
Y270693D01*
X275216D01*
Y277855D01*
X279799Y282438D01*
X305925D01*
X309232Y279131D01*
Y270693D01*
X305495D01*
Y254071D01*
X318577D01*
Y270693D01*
X314840D01*
Y280292D01*
X314627Y281365D01*
X314019Y282275D01*
X309069Y287225D01*
X308159Y287832D01*
X307086Y288046D01*
D02*
G37*
G36*
X102094Y253800D02*
X83324D01*
Y240030D01*
X102094D01*
Y253800D01*
D02*
G37*
G36*
X80784D02*
X62014D01*
Y240030D01*
X80784D01*
Y253800D01*
D02*
G37*
G36*
X352552Y241436D02*
Y237236D01*
X356752D01*
X355979Y239104D01*
X354420Y240663D01*
X352552Y241436D01*
D02*
G37*
G36*
X350012D02*
X348144Y240663D01*
X346585Y239104D01*
X345812Y237236D01*
X350012D01*
Y241436D01*
D02*
G37*
G36*
X356752Y234696D02*
X352552D01*
Y230496D01*
X354420Y231269D01*
X355979Y232828D01*
X356752Y234696D01*
D02*
G37*
G36*
X350012D02*
X345812D01*
X346585Y232828D01*
X348144Y231269D01*
X350012Y230496D01*
Y234696D01*
D02*
G37*
G36*
X538000Y232422D02*
X514000D01*
Y226726D01*
X500447D01*
Y228275D01*
X487365D01*
Y211653D01*
X491102D01*
Y200783D01*
X483441D01*
Y185807D01*
X482401D01*
Y178014D01*
X492252D01*
X502103D01*
Y185807D01*
X501063D01*
Y200783D01*
X496710D01*
Y211653D01*
X500447D01*
Y221118D01*
X514000D01*
Y215422D01*
X538000D01*
Y232422D01*
D02*
G37*
G36*
X102094Y237490D02*
X83324D01*
Y223720D01*
X102094D01*
Y237490D01*
D02*
G37*
G36*
X80784D02*
X62014D01*
Y223720D01*
X80784D01*
Y237490D01*
D02*
G37*
G36*
X686816Y218068D02*
Y213868D01*
X691016D01*
X690243Y215736D01*
X688684Y217295D01*
X686816Y218068D01*
D02*
G37*
G36*
X684276D02*
X682408Y217295D01*
X680849Y215736D01*
X680076Y213868D01*
X684276D01*
Y218068D01*
D02*
G37*
G36*
X691016Y211328D02*
X686816D01*
Y207128D01*
X688684Y207901D01*
X690243Y209460D01*
X691016Y211328D01*
D02*
G37*
G36*
X684276D02*
X680076D01*
X680849Y209460D01*
X682408Y207901D01*
X684276Y207128D01*
Y211328D01*
D02*
G37*
G36*
X404622Y199780D02*
Y195580D01*
X408822D01*
X408049Y197448D01*
X406490Y199007D01*
X404622Y199780D01*
D02*
G37*
G36*
X402082D02*
X400214Y199007D01*
X398655Y197448D01*
X397882Y195580D01*
X402082D01*
Y199780D01*
D02*
G37*
G36*
X362966Y198764D02*
Y194564D01*
X367166D01*
X366393Y196432D01*
X364834Y197991D01*
X362966Y198764D01*
D02*
G37*
G36*
X360426D02*
X358558Y197991D01*
X356999Y196432D01*
X356226Y194564D01*
X360426D01*
Y198764D01*
D02*
G37*
G36*
X408822Y193040D02*
X404622D01*
Y188840D01*
X406490Y189613D01*
X408049Y191172D01*
X408822Y193040D01*
D02*
G37*
G36*
X402082D02*
X397882D01*
X398655Y191172D01*
X400214Y189613D01*
X402082Y188840D01*
Y193040D01*
D02*
G37*
G36*
X264668Y191873D02*
Y188214D01*
X268327D01*
X267671Y189799D01*
X266253Y191217D01*
X264668Y191873D01*
D02*
G37*
G36*
X367166Y192024D02*
X362966D01*
Y187824D01*
X364834Y188597D01*
X366393Y190156D01*
X367166Y192024D01*
D02*
G37*
G36*
X360426D02*
X356226D01*
X356999Y190156D01*
X358558Y188597D01*
X360426Y187824D01*
Y192024D01*
D02*
G37*
G36*
X268327Y185674D02*
X264668D01*
Y182015D01*
X266253Y182671D01*
X267671Y184089D01*
X268327Y185674D01*
D02*
G37*
G36*
X631040Y188462D02*
X619270D01*
Y180192D01*
X631040D01*
Y188462D01*
D02*
G37*
G36*
X539040D02*
X527270D01*
Y180192D01*
X539040D01*
Y188462D01*
D02*
G37*
G36*
X616730D02*
X604960D01*
Y180192D01*
X616730D01*
Y188462D01*
D02*
G37*
G36*
X524730D02*
X512960D01*
Y180192D01*
X524730D01*
Y188462D01*
D02*
G37*
G36*
X55626Y179714D02*
Y175514D01*
X59826D01*
X59053Y177382D01*
X57494Y178941D01*
X55626Y179714D01*
D02*
G37*
G36*
X53086D02*
X51218Y178941D01*
X49659Y177382D01*
X48886Y175514D01*
X53086D01*
Y179714D01*
D02*
G37*
G36*
X273294Y178460D02*
X267024D01*
Y171190D01*
X273294D01*
Y178460D01*
D02*
G37*
G36*
X631040Y177652D02*
X619270D01*
Y169382D01*
X631040D01*
Y177652D01*
D02*
G37*
G36*
X616730D02*
X604960D01*
Y169382D01*
X616730D01*
Y177652D01*
D02*
G37*
G36*
X539040D02*
X527270D01*
Y169382D01*
X539040D01*
Y177652D01*
D02*
G37*
G36*
X524730D02*
X512960D01*
Y169382D01*
X524730D01*
Y177652D01*
D02*
G37*
G36*
X59826Y172974D02*
X55626D01*
Y168774D01*
X57494Y169547D01*
X59053Y171106D01*
X59826Y172974D01*
D02*
G37*
G36*
X53086D02*
X48886D01*
X49659Y171106D01*
X51218Y169547D01*
X53086Y168774D01*
Y172974D01*
D02*
G37*
G36*
X502103Y175474D02*
X493522D01*
Y167681D01*
X502103D01*
Y175474D01*
D02*
G37*
G36*
X490982D02*
X482401D01*
Y167681D01*
X490982D01*
Y175474D01*
D02*
G37*
G36*
X334772Y158632D02*
Y154432D01*
X338972D01*
X338199Y156300D01*
X336640Y157859D01*
X334772Y158632D01*
D02*
G37*
G36*
X332232D02*
X330364Y157859D01*
X328805Y156300D01*
X328032Y154432D01*
X332232D01*
Y158632D01*
D02*
G37*
G36*
X406908Y152757D02*
Y149098D01*
X410567D01*
X409911Y150683D01*
X408493Y152101D01*
X406908Y152757D01*
D02*
G37*
G36*
X404368D02*
X402783Y152101D01*
X401365Y150683D01*
X400709Y149098D01*
X404368D01*
Y152757D01*
D02*
G37*
G36*
X338972Y151892D02*
X334772D01*
Y147692D01*
X336640Y148465D01*
X338199Y150024D01*
X338972Y151892D01*
D02*
G37*
G36*
X332232D02*
X328032D01*
X328805Y150024D01*
X330364Y148465D01*
X332232Y147692D01*
Y151892D01*
D02*
G37*
G36*
X629508Y161556D02*
X605508D01*
Y144556D01*
X629508D01*
Y161556D01*
D02*
G37*
G36*
X410567Y146558D02*
X406908D01*
Y142899D01*
X408493Y143555D01*
X409911Y144973D01*
X410567Y146558D01*
D02*
G37*
G36*
X404368D02*
X400709D01*
X401365Y144973D01*
X402783Y143555D01*
X404368Y142899D01*
Y146558D01*
D02*
G37*
G36*
X157754Y165420D02*
X150254D01*
Y135460D01*
X146714D01*
Y128190D01*
X161794D01*
Y135460D01*
X157754D01*
Y165420D01*
D02*
G37*
G36*
X686054Y129389D02*
Y125730D01*
X689713D01*
X689057Y127315D01*
X687639Y128733D01*
X686054Y129389D01*
D02*
G37*
G36*
X683514D02*
X681929Y128733D01*
X680511Y127315D01*
X679855Y125730D01*
X683514D01*
Y129389D01*
D02*
G37*
G36*
X689713Y123190D02*
X686054D01*
Y119531D01*
X687639Y120187D01*
X689057Y121605D01*
X689713Y123190D01*
D02*
G37*
G36*
X683514D02*
X679855D01*
X680511Y121605D01*
X681929Y120187D01*
X683514Y119531D01*
Y123190D01*
D02*
G37*
G36*
X418145Y116557D02*
X410065D01*
Y110246D01*
X418145D01*
Y116557D01*
D02*
G37*
G36*
X407525D02*
X399444D01*
Y110246D01*
X407525D01*
Y116557D01*
D02*
G37*
G36*
X539548Y117596D02*
X527778D01*
Y109326D01*
X539548D01*
Y117596D01*
D02*
G37*
G36*
X525238D02*
X513468D01*
Y109326D01*
X525238D01*
Y117596D01*
D02*
G37*
G36*
X418145Y107706D02*
X410065D01*
Y101395D01*
X418145D01*
Y107706D01*
D02*
G37*
G36*
X407525D02*
X399444D01*
Y101395D01*
X407525D01*
Y107706D01*
D02*
G37*
G36*
X630508Y116556D02*
X606508D01*
Y99556D01*
X630508D01*
Y116556D01*
D02*
G37*
G36*
X798830Y103514D02*
Y99314D01*
X803030D01*
X802257Y101182D01*
X800698Y102741D01*
X798830Y103514D01*
D02*
G37*
G36*
X796290D02*
X794422Y102741D01*
X792863Y101182D01*
X792090Y99314D01*
X796290D01*
Y103514D01*
D02*
G37*
G36*
X539548Y106786D02*
X527778D01*
Y98516D01*
X539548D01*
Y106786D01*
D02*
G37*
G36*
X525238D02*
X513468D01*
Y98516D01*
X525238D01*
Y106786D01*
D02*
G37*
G36*
X470834Y102874D02*
X463314D01*
Y95504D01*
X470834D01*
Y102874D01*
D02*
G37*
G36*
X460774D02*
X453254D01*
Y95504D01*
X460774D01*
Y102874D01*
D02*
G37*
G36*
X803030Y96774D02*
X798830D01*
Y92574D01*
X800698Y93347D01*
X802257Y94906D01*
X803030Y96774D01*
D02*
G37*
G36*
X796290D02*
X792090D01*
X792863Y94906D01*
X794422Y93347D01*
X796290Y92574D01*
Y96774D01*
D02*
G37*
G36*
X361019Y99775D02*
X354708D01*
Y91694D01*
X361019D01*
Y99775D01*
D02*
G37*
G36*
X352168D02*
X345857D01*
Y91694D01*
X352168D01*
Y99775D01*
D02*
G37*
G36*
X470834Y92964D02*
X463314D01*
Y85594D01*
X470834D01*
Y92964D01*
D02*
G37*
G36*
X460774D02*
X453254D01*
Y85594D01*
X460774D01*
Y92964D01*
D02*
G37*
G36*
X161794Y125650D02*
X146714D01*
Y118380D01*
X150254D01*
Y84920D01*
X157754D01*
Y118380D01*
X161794D01*
Y125650D01*
D02*
G37*
G36*
X361019Y89154D02*
X354708D01*
Y81073D01*
X361019D01*
Y89154D01*
D02*
G37*
G36*
X352168D02*
X345857D01*
Y81073D01*
X352168D01*
Y89154D01*
D02*
G37*
G36*
X679275Y80932D02*
X671482D01*
Y72351D01*
X679275D01*
Y80932D01*
D02*
G37*
G36*
X719889Y80717D02*
X712096D01*
Y72136D01*
X719889D01*
Y80717D01*
D02*
G37*
G36*
X588010Y69986D02*
Y65786D01*
X592210D01*
X591437Y67654D01*
X589878Y69213D01*
X588010Y69986D01*
D02*
G37*
G36*
X585470D02*
X583602Y69213D01*
X582043Y67654D01*
X581270Y65786D01*
X585470D01*
Y69986D01*
D02*
G37*
G36*
X349738Y76999D02*
X348648Y76855D01*
X346449Y75944D01*
X344561Y74495D01*
X343112Y72607D01*
X342201Y70408D01*
X341890Y68048D01*
Y64318D01*
X349738D01*
Y76999D01*
D02*
G37*
G36*
X438678D02*
Y64318D01*
X446526D01*
Y68048D01*
X446215Y70408D01*
X445304Y72607D01*
X443855Y74495D01*
X441967Y75944D01*
X439768Y76855D01*
X438678Y76999D01*
D02*
G37*
G36*
X679275Y69811D02*
X671482D01*
Y61230D01*
X679275D01*
Y69811D01*
D02*
G37*
G36*
X719889Y69596D02*
X712096D01*
Y61015D01*
X719889D01*
Y69596D01*
D02*
G37*
G36*
X504350Y126888D02*
X502506D01*
X500726Y126411D01*
X499130Y125489D01*
X497827Y124186D01*
X496905Y122590D01*
X496428Y120810D01*
Y118966D01*
X496905Y117186D01*
X497827Y115590D01*
X499130Y114287D01*
X499859Y113865D01*
Y84663D01*
X495317Y80120D01*
X494543Y78963D01*
X494271Y77597D01*
Y30336D01*
X488078D01*
Y12336D01*
X506078D01*
Y30336D01*
X501409D01*
Y76119D01*
X503428Y78138D01*
X504334Y77233D01*
X505491Y76459D01*
X506857Y76187D01*
X644043D01*
X646173Y74057D01*
Y62270D01*
X651393D01*
Y59289D01*
X651606Y58217D01*
X652214Y57307D01*
X662495Y47026D01*
X663404Y46418D01*
X664477Y46205D01*
X664871D01*
X665383Y45380D01*
X665380Y45205D01*
X665145Y44026D01*
Y43421D01*
X670247D01*
Y42151D01*
X671517D01*
Y37049D01*
X672122D01*
X673357Y37295D01*
X674404Y37994D01*
X675389Y37668D01*
Y33651D01*
X675389Y33651D01*
X675621Y32481D01*
X676284Y31488D01*
X683389Y24384D01*
Y21791D01*
X683052Y21566D01*
X683039Y21558D01*
X681854D01*
X681152Y22028D01*
X680322Y22193D01*
X676572D01*
X675743Y22028D01*
X675040Y21558D01*
X673854D01*
X673151Y22028D01*
X672322Y22193D01*
X670400D01*
X641828Y50765D01*
X640911Y51377D01*
X639831Y51592D01*
X639830Y51592D01*
X605892D01*
X605041Y53066D01*
X603738Y54369D01*
X602142Y55291D01*
X600362Y55768D01*
X598518D01*
X596738Y55291D01*
X595142Y54369D01*
X593839Y53066D01*
X592917Y51470D01*
X592440Y49690D01*
Y47846D01*
X592917Y46066D01*
X593086Y45773D01*
X576932Y29619D01*
X576752Y29723D01*
X574463Y30336D01*
X572093D01*
X569804Y29723D01*
X567752Y28538D01*
X566076Y26862D01*
X564891Y24810D01*
X564278Y22521D01*
Y20151D01*
X564891Y17862D01*
X566076Y15810D01*
X567752Y14134D01*
X569804Y12949D01*
X572093Y12336D01*
X574463D01*
X576752Y12949D01*
X578804Y14134D01*
X580480Y15810D01*
X581665Y17862D01*
X582278Y20151D01*
Y22521D01*
X581665Y24810D01*
X581096Y25795D01*
X597375Y42074D01*
X598518Y41768D01*
X600362D01*
X602142Y42245D01*
X603738Y43167D01*
X605041Y44470D01*
X605892Y45944D01*
X638661D01*
X666406Y18199D01*
Y16276D01*
X666571Y15447D01*
X667040Y14744D01*
X667743Y14274D01*
X668572Y14109D01*
X672322D01*
X673151Y14274D01*
X673854Y14744D01*
X674784D01*
X675328Y14253D01*
X675350Y13102D01*
X675232Y12984D01*
X619152D01*
X608614Y23522D01*
Y25298D01*
X610088Y26149D01*
X611391Y27452D01*
X612313Y29048D01*
X612790Y30828D01*
Y32672D01*
X612313Y34452D01*
X611391Y36048D01*
X610088Y37351D01*
X608492Y38273D01*
X606712Y38750D01*
X604868D01*
X603088Y38273D01*
X601492Y37351D01*
X600189Y36048D01*
X599267Y34452D01*
X598790Y32672D01*
Y30828D01*
X599267Y29048D01*
X600189Y27452D01*
X601492Y26149D01*
X602966Y25298D01*
Y22352D01*
X602966Y22352D01*
X603181Y21271D01*
X603793Y20355D01*
X615985Y8163D01*
X615985Y8163D01*
X616901Y7551D01*
X617982Y7336D01*
X617982Y7336D01*
X676402D01*
X676402Y7336D01*
X677483Y7551D01*
X678399Y8163D01*
X680444Y10208D01*
X680444Y10208D01*
X681057Y11125D01*
X681272Y12205D01*
X681272Y12205D01*
Y14355D01*
X681854Y14744D01*
X683040D01*
X683743Y14274D01*
X684572Y14109D01*
X688322D01*
X689152Y14274D01*
X689222Y14321D01*
X690202Y14126D01*
X690291Y13994D01*
X691338Y13295D01*
X692572Y13049D01*
X693177D01*
Y18151D01*
Y23253D01*
X692572D01*
X691338Y23008D01*
X690506Y22452D01*
X689749Y22713D01*
X689506Y22895D01*
Y25651D01*
X689506Y25651D01*
X689273Y26822D01*
X688610Y27814D01*
X688610Y27814D01*
X681506Y34918D01*
Y37407D01*
X681749Y37589D01*
X682506Y37850D01*
X683337Y37295D01*
X684572Y37049D01*
X685177D01*
Y42151D01*
Y47253D01*
X684572D01*
X683337Y47007D01*
X682291Y46308D01*
X682251Y46249D01*
X681251Y46553D01*
Y47544D01*
X681038Y48617D01*
X680430Y49527D01*
X678966Y50991D01*
X678056Y51599D01*
X676983Y51812D01*
X665639D01*
X657000Y60451D01*
Y62270D01*
X661149D01*
Y61230D01*
X668942D01*
Y71081D01*
Y80932D01*
X661149D01*
Y79892D01*
X657765D01*
Y96458D01*
X658322Y97015D01*
X688386D01*
X691242Y94160D01*
Y79677D01*
X686787D01*
Y62055D01*
X691644D01*
Y46553D01*
X690644Y46249D01*
X690604Y46308D01*
X689557Y47007D01*
X688322Y47253D01*
X687717D01*
Y42151D01*
Y37049D01*
X688322D01*
X689557Y37295D01*
X690604Y37994D01*
X690692Y38126D01*
X691673Y38321D01*
X691743Y38274D01*
X692572Y38110D01*
X696322D01*
X697151Y38274D01*
X697854Y38744D01*
X698324Y39447D01*
X698489Y40276D01*
Y44026D01*
X698324Y44855D01*
X697854Y45558D01*
X697251Y45961D01*
Y62055D01*
X701763D01*
Y61015D01*
X709556D01*
Y70866D01*
Y80717D01*
X701763D01*
Y79677D01*
X698379D01*
Y95638D01*
X698107Y97003D01*
X697334Y98161D01*
X692387Y103107D01*
X691230Y103881D01*
X689864Y104153D01*
X656844D01*
X655478Y103881D01*
X654321Y103107D01*
X651673Y100460D01*
X650900Y99302D01*
X650628Y97936D01*
Y81111D01*
X649628Y80696D01*
X648045Y82279D01*
X646887Y83053D01*
X645522Y83325D01*
X508335D01*
X506997Y84663D01*
Y113865D01*
X507726Y114287D01*
X509029Y115590D01*
X509951Y117186D01*
X510428Y118966D01*
Y120810D01*
X509951Y122590D01*
X509029Y124186D01*
X507726Y125489D01*
X506130Y126411D01*
X504350Y126888D01*
D02*
G37*
G36*
X592210Y63246D02*
X588010D01*
Y59046D01*
X589878Y59819D01*
X591437Y61378D01*
X592210Y63246D01*
D02*
G37*
G36*
X585470D02*
X581270D01*
X582043Y61378D01*
X583602Y59819D01*
X585470Y59046D01*
Y63246D01*
D02*
G37*
G36*
X120396Y57540D02*
Y53340D01*
X124596D01*
X123823Y55208D01*
X122264Y56767D01*
X120396Y57540D01*
D02*
G37*
G36*
X117856D02*
X115988Y56767D01*
X114429Y55208D01*
X113656Y53340D01*
X117856D01*
Y57540D01*
D02*
G37*
G36*
X349738Y61778D02*
X341890D01*
Y58048D01*
X342201Y55688D01*
X343112Y53489D01*
X344561Y51601D01*
X346449Y50152D01*
X348648Y49241D01*
X349738Y49097D01*
Y61778D01*
D02*
G37*
G36*
X446526Y61778D02*
X438678D01*
Y49097D01*
X439768Y49241D01*
X441967Y50152D01*
X443855Y51601D01*
X445304Y53489D01*
X446215Y55688D01*
X446526Y58048D01*
Y61778D01*
D02*
G37*
G36*
X124596Y50800D02*
X120396D01*
Y46600D01*
X122264Y47373D01*
X123823Y48932D01*
X124596Y50800D01*
D02*
G37*
G36*
X117856D02*
X113656D01*
X114429Y48932D01*
X115988Y47373D01*
X117856Y46600D01*
Y50800D01*
D02*
G37*
G36*
X314198Y42808D02*
Y38608D01*
X318398D01*
X317625Y40476D01*
X316066Y42035D01*
X314198Y42808D01*
D02*
G37*
G36*
X311658D02*
X309790Y42035D01*
X308231Y40476D01*
X307458Y38608D01*
X311658D01*
Y42808D01*
D02*
G37*
G36*
X668977Y40881D02*
X665145D01*
Y40276D01*
X665391Y39041D01*
X666091Y37994D01*
X667138Y37295D01*
X668372Y37049D01*
X668977D01*
Y40881D01*
D02*
G37*
G36*
X318398Y36068D02*
X314198D01*
Y31868D01*
X316066Y32641D01*
X317625Y34200D01*
X318398Y36068D01*
D02*
G37*
G36*
X311658D02*
X307458D01*
X308231Y34200D01*
X309790Y32641D01*
X311658Y31868D01*
Y36068D01*
D02*
G37*
G36*
X352278Y40249D02*
Y26068D01*
X360126D01*
Y31298D01*
X359815Y33658D01*
X358904Y35857D01*
X357455Y37745D01*
X355567Y39194D01*
X353368Y40105D01*
X352278Y40249D01*
D02*
G37*
G36*
X349738D02*
X348648Y40105D01*
X346449Y39194D01*
X344561Y37745D01*
X343112Y35857D01*
X342201Y33658D01*
X341890Y31298D01*
Y26068D01*
X349738D01*
Y40249D01*
D02*
G37*
G36*
X438678D02*
Y26068D01*
X446526D01*
Y31298D01*
X446215Y33658D01*
X445304Y35857D01*
X443855Y37745D01*
X441967Y39194D01*
X439768Y40105D01*
X438678Y40249D01*
D02*
G37*
G36*
X415748Y37338D02*
X409478D01*
Y26068D01*
X415748D01*
Y37338D01*
D02*
G37*
G36*
X406938D02*
X400668D01*
Y26068D01*
X406938D01*
Y37338D01*
D02*
G37*
G36*
X387748D02*
X381478D01*
Y26068D01*
X387748D01*
Y37338D01*
D02*
G37*
G36*
X378938D02*
X372668D01*
Y26068D01*
X378938D01*
Y37338D01*
D02*
G37*
G36*
X436138Y40249D02*
X435048Y40105D01*
X432849Y39194D01*
X430961Y37745D01*
X429512Y35857D01*
X428601Y33658D01*
X428290Y31298D01*
Y26068D01*
X436138D01*
Y40249D01*
D02*
G37*
G36*
X255254Y119920D02*
X168254D01*
Y106920D01*
X161280D01*
Y71202D01*
X160754Y70420D01*
X160280Y70420D01*
X147754D01*
Y59420D01*
X160280D01*
X160754Y59420D01*
X161280Y58638D01*
Y39960D01*
X155524D01*
Y24690D01*
X161794D01*
Y30920D01*
X168280D01*
Y103920D01*
X255254D01*
Y119920D01*
D02*
G37*
G36*
X152984Y39960D02*
X146714D01*
Y24690D01*
X152984D01*
Y39960D01*
D02*
G37*
G36*
X523800Y31376D02*
X523748D01*
Y22606D01*
X532518D01*
Y22658D01*
X531834Y25211D01*
X530512Y27501D01*
X528643Y29370D01*
X526353Y30692D01*
X523800Y31376D01*
D02*
G37*
G36*
X521208D02*
X521156D01*
X518603Y30692D01*
X516313Y29370D01*
X514444Y27501D01*
X513122Y25211D01*
X512438Y22658D01*
Y22606D01*
X521208D01*
Y31376D01*
D02*
G37*
G36*
X696322Y23253D02*
X695717D01*
Y19421D01*
X699549D01*
Y20026D01*
X699304Y21261D01*
X698604Y22308D01*
X697557Y23008D01*
X696322Y23253D01*
D02*
G37*
G36*
X295754Y21106D02*
Y17049D01*
X297609D01*
X297095Y18969D01*
X296007Y20853D01*
X295754Y21106D01*
D02*
G37*
G36*
X282754Y20804D02*
X281694Y18969D01*
X281180Y17049D01*
X282754D01*
Y20804D01*
D02*
G37*
G36*
Y14509D02*
X281180D01*
X281532Y13197D01*
X282754Y14420D01*
Y14509D01*
D02*
G37*
G36*
X699549Y16881D02*
X695717D01*
Y13049D01*
X696322D01*
X697557Y13295D01*
X698604Y13994D01*
X699304Y15041D01*
X699549Y16276D01*
Y16881D01*
D02*
G37*
G36*
X549063Y30336D02*
X546693D01*
X544404Y29723D01*
X542352Y28538D01*
X540676Y26862D01*
X539491Y24810D01*
X538878Y22521D01*
Y20151D01*
X539491Y17862D01*
X540676Y15810D01*
X542352Y14134D01*
X544404Y12949D01*
X546693Y12336D01*
X549063D01*
X551352Y12949D01*
X553404Y14134D01*
X555080Y15810D01*
X556265Y17862D01*
X556878Y20151D01*
Y22521D01*
X556265Y24810D01*
X555080Y26862D01*
X553404Y28538D01*
X551352Y29723D01*
X549063Y30336D01*
D02*
G37*
G36*
X415748Y23528D02*
X409478D01*
Y12258D01*
X415748D01*
Y23528D01*
D02*
G37*
G36*
X406938D02*
X400668D01*
Y12258D01*
X406938D01*
Y23528D01*
D02*
G37*
G36*
X387748D02*
X381478D01*
Y12258D01*
X387748D01*
Y23528D01*
D02*
G37*
G36*
X378938D02*
X372668D01*
Y12258D01*
X378938D01*
Y23528D01*
D02*
G37*
G36*
X532518Y20066D02*
X523748D01*
Y11296D01*
X523800D01*
X526353Y11980D01*
X528643Y13302D01*
X530512Y15171D01*
X531834Y17461D01*
X532518Y20014D01*
Y20066D01*
D02*
G37*
G36*
X521208D02*
X512438D01*
Y20014D01*
X513122Y17461D01*
X514444Y15171D01*
X516313Y13302D01*
X518603Y11980D01*
X521156Y11296D01*
X521208D01*
Y20066D01*
D02*
G37*
G36*
X793882Y69000D02*
X789318D01*
X784809Y68286D01*
X780468Y66875D01*
X776401Y64803D01*
X772708Y62120D01*
X769480Y58892D01*
X766797Y55199D01*
X764725Y51132D01*
X763314Y46791D01*
X762600Y42282D01*
Y37718D01*
X763314Y33209D01*
X764725Y28868D01*
X766797Y24801D01*
X769480Y21108D01*
X772708Y17880D01*
X776401Y15197D01*
X780468Y13125D01*
X784809Y11714D01*
X789318Y11000D01*
X793882D01*
X798391Y11714D01*
X802732Y13125D01*
X806799Y15197D01*
X810492Y17880D01*
X813720Y21108D01*
X816403Y24801D01*
X818475Y28868D01*
X819886Y33209D01*
X820600Y37718D01*
Y42282D01*
X819886Y46791D01*
X818475Y51132D01*
X816403Y55199D01*
X813720Y58892D01*
X810492Y62120D01*
X806799Y64803D01*
X802732Y66875D01*
X798391Y68286D01*
X793882Y69000D01*
D02*
G37*
G36*
X42282D02*
X37718D01*
X33209Y68286D01*
X28868Y66875D01*
X24801Y64803D01*
X21108Y62120D01*
X17880Y58892D01*
X15197Y55199D01*
X13125Y51132D01*
X11714Y46791D01*
X11000Y42282D01*
Y37718D01*
X11714Y33209D01*
X13125Y28868D01*
X15197Y24801D01*
X17880Y21108D01*
X21108Y17880D01*
X24801Y15197D01*
X28868Y13125D01*
X33209Y11714D01*
X37718Y11000D01*
X42282D01*
X46791Y11714D01*
X51132Y13125D01*
X55199Y15197D01*
X58892Y17880D01*
X62120Y21108D01*
X64803Y24801D01*
X66875Y28868D01*
X68286Y33209D01*
X69000Y37718D01*
Y42282D01*
X68286Y46791D01*
X66875Y51132D01*
X64803Y55199D01*
X62120Y58892D01*
X58892Y62120D01*
X55199Y64803D01*
X51132Y66875D01*
X46791Y68286D01*
X42282Y69000D01*
D02*
G37*
G36*
X297609Y14509D02*
X295754D01*
Y10453D01*
X296007Y10705D01*
X297095Y12590D01*
X297609Y14509D01*
D02*
G37*
G36*
X277256Y22918D02*
X251756D01*
Y9418D01*
X277256D01*
Y9420D01*
X277254D01*
Y12920D01*
X277256D01*
Y22918D01*
D02*
G37*
G36*
X446526Y23528D02*
X438678D01*
Y9347D01*
X439768Y9491D01*
X441967Y10402D01*
X443855Y11851D01*
X445304Y13739D01*
X446215Y15938D01*
X446526Y18298D01*
Y23528D01*
D02*
G37*
G36*
X360126Y23528D02*
X352278D01*
Y9347D01*
X353368Y9491D01*
X355567Y10402D01*
X357455Y11851D01*
X358904Y13739D01*
X359815Y15938D01*
X360126Y18298D01*
Y23528D01*
D02*
G37*
G36*
X349738D02*
X341890D01*
Y18298D01*
X342201Y15938D01*
X343112Y13739D01*
X344561Y11851D01*
X346449Y10402D01*
X348648Y9491D01*
X349738Y9347D01*
Y23528D01*
D02*
G37*
G36*
X436138Y23528D02*
X428290D01*
Y18298D01*
X428601Y15938D01*
X429512Y13739D01*
X430961Y11851D01*
X432849Y10402D01*
X435048Y9491D01*
X436138Y9347D01*
Y23528D01*
D02*
G37*
G36*
X294722Y9420D02*
X290665D01*
Y7565D01*
X292584Y8079D01*
X294468Y9167D01*
X294722Y9420D01*
D02*
G37*
G36*
X288125D02*
X284068D01*
X284321Y9167D01*
X286205Y8079D01*
X288125Y7565D01*
Y9420D01*
D02*
G37*
G36*
X161794Y22150D02*
X155524D01*
Y6880D01*
X161794D01*
Y22150D01*
D02*
G37*
G36*
X152984D02*
X146714D01*
Y6880D01*
X152984D01*
Y22150D01*
D02*
G37*
%LPD*%
G36*
X670884Y523318D02*
X660702Y513136D01*
X660039Y512144D01*
X659839Y511139D01*
X659388Y510828D01*
X658806Y510626D01*
X657868Y511253D01*
X657404Y511345D01*
Y500694D01*
Y490042D01*
X657868Y490135D01*
X659338Y491117D01*
X659839Y491866D01*
X660180D01*
X661306Y491114D01*
X662634Y490850D01*
X663962Y491114D01*
X665088Y491866D01*
X665283Y492158D01*
X666485D01*
X666680Y491866D01*
X667806Y491114D01*
X669134Y490850D01*
X670462Y491114D01*
X671588Y491866D01*
X671783Y492158D01*
X672985D01*
X673180Y491866D01*
X674306Y491114D01*
X675634Y490850D01*
X676962Y491114D01*
X678088Y491866D01*
X678283Y492158D01*
X679485D01*
X679680Y491866D01*
X680806Y491114D01*
X682134Y490850D01*
X683462Y491114D01*
X684588Y491866D01*
X685340Y492992D01*
X685541Y494001D01*
X706681D01*
X708498Y492259D01*
X708499Y492254D01*
X708480Y492234D01*
X708825Y491857D01*
X708853Y491883D01*
X708867Y491881D01*
X711241Y489293D01*
X711183Y489126D01*
X710031Y488864D01*
X709067Y489828D01*
X706935Y491059D01*
X704557Y491696D01*
X702095D01*
X699717Y491059D01*
X697585Y489828D01*
X695844Y488087D01*
X694613Y485955D01*
X693976Y483577D01*
Y481115D01*
X694613Y478737D01*
X695844Y476605D01*
X696495Y475954D01*
X696569Y474842D01*
X694828Y473101D01*
X693597Y470969D01*
X692960Y468591D01*
Y466129D01*
X693097Y465618D01*
X691804Y464325D01*
X683514D01*
X682148Y464053D01*
X680991Y463279D01*
X676698Y458987D01*
X675774Y459369D01*
Y471170D01*
X660654D01*
Y457600D01*
X674005D01*
X674387Y456676D01*
X673150Y455439D01*
X672681Y454737D01*
X671450Y454357D01*
X670868Y454745D01*
X670404Y454838D01*
Y444186D01*
Y433535D01*
X670868Y433627D01*
X672338Y434609D01*
X672839Y435359D01*
X673180D01*
X674306Y434607D01*
X675634Y434342D01*
X676962Y434607D01*
X677565Y435010D01*
X678565Y434475D01*
Y423869D01*
X676999D01*
Y410788D01*
X693621D01*
Y423869D01*
X685703D01*
Y444186D01*
X685604Y444679D01*
Y450560D01*
X685340Y451888D01*
X684588Y453013D01*
X683462Y453766D01*
X683064Y453845D01*
X682735Y454930D01*
X684992Y457187D01*
X693282D01*
X694647Y457459D01*
X695805Y458233D01*
X697128Y459556D01*
X698701Y458647D01*
X701079Y458010D01*
X703541D01*
X705919Y458647D01*
X708051Y459878D01*
X709792Y461619D01*
X710698Y463189D01*
X711698Y462921D01*
Y379621D01*
X700895Y368818D01*
X649768D01*
X649637Y369818D01*
X650910Y370159D01*
X652506Y371081D01*
X653809Y372384D01*
X654231Y373113D01*
X660934D01*
X662299Y373385D01*
X663457Y374159D01*
X682046Y392748D01*
X693621D01*
Y405829D01*
X676999D01*
Y397794D01*
X659455Y380251D01*
X654231D01*
X653809Y380980D01*
X652506Y382283D01*
X650910Y383205D01*
X649130Y383682D01*
X647286D01*
X645506Y383205D01*
X643910Y382283D01*
X642607Y380980D01*
X641685Y379384D01*
X641208Y377604D01*
Y375760D01*
X641685Y373980D01*
X642607Y372384D01*
X643910Y371081D01*
X645506Y370159D01*
X646779Y369818D01*
X646648Y368818D01*
X554627D01*
X549158Y374287D01*
Y400050D01*
X548944Y401123D01*
X548337Y402033D01*
X544781Y405589D01*
X543871Y406196D01*
X542798Y406410D01*
X277846D01*
X276773Y406196D01*
X275864Y405589D01*
X264065Y393790D01*
X263065Y394204D01*
Y397754D01*
X263144D01*
X264216Y397967D01*
X265126Y398575D01*
X275227Y408676D01*
X598259D01*
X599332Y408890D01*
X600242Y409497D01*
X600974Y410229D01*
X601008Y410195D01*
X601009Y410195D01*
X601031Y410228D01*
X601703Y410970D01*
X631731Y441441D01*
X633230D01*
Y434409D01*
X636117D01*
X636499Y433485D01*
X635632Y432618D01*
X633229D01*
X631473Y432269D01*
X629984Y431274D01*
X628053Y429343D01*
X627595Y429466D01*
X625133D01*
X622755Y428829D01*
X620623Y427598D01*
X618882Y425857D01*
X617651Y423725D01*
X617014Y421347D01*
Y420322D01*
X615735D01*
X613357Y419685D01*
X611225Y418454D01*
X609484Y416713D01*
X608253Y414581D01*
X607616Y412203D01*
Y409741D01*
X608253Y407363D01*
X609484Y405231D01*
X611225Y403490D01*
X613357Y402259D01*
X615735Y401622D01*
X618197D01*
X620575Y402259D01*
X622707Y403490D01*
X624448Y405231D01*
X625679Y407363D01*
X626316Y409741D01*
Y410766D01*
X627595D01*
X629973Y411403D01*
X632105Y412634D01*
X633846Y414375D01*
X635077Y416507D01*
X635714Y418885D01*
Y421347D01*
X635365Y422648D01*
X635870Y423306D01*
X636183Y423460D01*
X637847Y423791D01*
X639335Y424785D01*
X640330Y426274D01*
X640565Y427457D01*
X645561Y432453D01*
X646270Y433514D01*
X646545Y433748D01*
X647270Y434048D01*
X647900Y433627D01*
X648364Y433535D01*
Y444186D01*
Y454838D01*
X647900Y454745D01*
X646430Y453763D01*
X645929Y453013D01*
X645588D01*
X644462Y453766D01*
X643134Y454030D01*
X641806Y453766D01*
X641038Y453253D01*
X640038Y453715D01*
Y453963D01*
X634749D01*
X634366Y454887D01*
X636221Y456741D01*
X636828Y457651D01*
X637042Y458724D01*
Y482256D01*
X641994Y487208D01*
X642994Y486794D01*
Y473710D01*
X658114D01*
Y487280D01*
X643481D01*
X643066Y488280D01*
X644263Y489477D01*
X644871Y490386D01*
X644981Y490940D01*
X645117Y491076D01*
X645724Y491985D01*
X645749Y492107D01*
X645783Y492158D01*
X646985D01*
X647180Y491866D01*
X648306Y491114D01*
X649634Y490850D01*
X650962Y491114D01*
X652088Y491866D01*
X652429D01*
X652930Y491117D01*
X654400Y490135D01*
X654864Y490042D01*
Y500694D01*
Y511345D01*
X654400Y511253D01*
X653073Y510367D01*
X652420Y510519D01*
X652022Y510712D01*
X651898Y511338D01*
X651290Y512248D01*
X640594Y522944D01*
X641118Y523834D01*
X642988Y523462D01*
X647324D01*
Y522070D01*
X663824D01*
Y524242D01*
X670501D01*
X670884Y523318D01*
D02*
G37*
G36*
X396275Y342173D02*
X397191Y341561D01*
X398272Y341346D01*
X454980D01*
Y341000D01*
X456840D01*
Y338770D01*
X461130D01*
Y337500D01*
X462400D01*
Y332060D01*
X465420D01*
Y333100D01*
X473326D01*
Y330225D01*
X469247Y326146D01*
X398417D01*
X360631Y363933D01*
X359721Y364540D01*
X358648Y364754D01*
X297942D01*
X296869Y364540D01*
X295959Y363933D01*
X279448Y347421D01*
X278392Y347705D01*
X278251Y348778D01*
X279268Y349365D01*
X280572Y350668D01*
X281493Y352265D01*
X281970Y354045D01*
Y355888D01*
X281530Y357532D01*
X301157Y377160D01*
X361288D01*
X396275Y342173D01*
D02*
G37*
G36*
X152610Y315990D02*
X152610Y315990D01*
X152825Y314909D01*
X153437Y313993D01*
X232380Y235050D01*
Y181477D01*
X228487Y177584D01*
X228377Y177420D01*
X223254D01*
Y162420D01*
X228635D01*
X236741Y154314D01*
X236327Y153314D01*
X210770D01*
X210388Y154238D01*
X210521Y154371D01*
X211177Y155956D01*
X206248D01*
Y158496D01*
X211177D01*
X210521Y160081D01*
X209182Y161420D01*
X209222Y161784D01*
X209488Y162420D01*
X211254D01*
Y177420D01*
X205873D01*
X202106Y181187D01*
X202106Y181187D01*
X196626Y186666D01*
Y188299D01*
X204340D01*
Y198120D01*
Y207941D01*
X196626D01*
Y266192D01*
X196411Y267273D01*
X195799Y268189D01*
X195799Y268189D01*
X145558Y318430D01*
Y320909D01*
X145965Y321740D01*
X146665D01*
Y321740D01*
X152610D01*
Y315990D01*
D02*
G37*
%LPC*%
G36*
X675774Y487280D02*
X660654D01*
Y473710D01*
X675774D01*
Y487280D01*
D02*
G37*
G36*
X658114Y471170D02*
X642994D01*
Y457600D01*
X658114D01*
Y471170D01*
D02*
G37*
G36*
X650904Y454838D02*
Y444186D01*
Y433535D01*
X650936Y433541D01*
X651429Y432619D01*
X644202Y425392D01*
X643207Y423904D01*
X642858Y422148D01*
Y413634D01*
X623702Y394478D01*
X598082D01*
X597270Y395885D01*
X595529Y397626D01*
X593397Y398857D01*
X591019Y399494D01*
X588557D01*
X586179Y398857D01*
X584047Y397626D01*
X583311Y396890D01*
X582575Y397626D01*
X580443Y398857D01*
X578065Y399494D01*
X575603D01*
X573225Y398857D01*
X571093Y397626D01*
X569352Y395885D01*
X568121Y393753D01*
X567484Y391375D01*
Y388913D01*
X568121Y386535D01*
X569352Y384403D01*
X571093Y382662D01*
X573225Y381431D01*
X575603Y380794D01*
X578065D01*
X580443Y381431D01*
X582575Y382662D01*
X583311Y383398D01*
X584047Y382662D01*
X586179Y381431D01*
X588557Y380794D01*
X591019D01*
X593397Y381431D01*
X595529Y382662D01*
X597270Y384403D01*
X597789Y385302D01*
X625602D01*
X627358Y385651D01*
X628846Y386646D01*
X650690Y408490D01*
X651685Y409978D01*
X652034Y411734D01*
Y420247D01*
X653598Y421812D01*
X653697Y421770D01*
X654423Y421222D01*
X653844Y419061D01*
Y416599D01*
X654481Y414221D01*
X655712Y412089D01*
X656956Y410845D01*
X655712Y409601D01*
X654481Y407469D01*
X653844Y405091D01*
Y402629D01*
X654481Y400251D01*
X655712Y398119D01*
X657453Y396378D01*
X659585Y395147D01*
X661963Y394510D01*
X664425D01*
X666803Y395147D01*
X668935Y396378D01*
X670676Y398119D01*
X671907Y400251D01*
X672544Y402629D01*
Y405091D01*
X671907Y407469D01*
X670676Y409601D01*
X669432Y410845D01*
X670676Y412089D01*
X671907Y414221D01*
X672544Y416599D01*
Y419061D01*
X671907Y421439D01*
X670676Y423571D01*
X668935Y425312D01*
X667746Y425998D01*
Y428176D01*
X667396Y429932D01*
X666402Y431421D01*
X665693Y431894D01*
Y433565D01*
X666693Y434099D01*
X667400Y433627D01*
X667864Y433535D01*
Y444186D01*
Y454838D01*
X667400Y454745D01*
X665930Y453763D01*
X665429Y453013D01*
X665088D01*
X663962Y453766D01*
X662634Y454030D01*
X661306Y453766D01*
X660180Y453013D01*
X659985Y452722D01*
X658783D01*
X658588Y453013D01*
X657462Y453766D01*
X656134Y454030D01*
X654806Y453766D01*
X653680Y453013D01*
X653339D01*
X652838Y453763D01*
X651368Y454745D01*
X650904Y454838D01*
D02*
G37*
G36*
X448310Y338718D02*
Y334518D01*
X452510D01*
X451737Y336386D01*
X450178Y337945D01*
X448310Y338718D01*
D02*
G37*
G36*
X445770D02*
X443902Y337945D01*
X442343Y336386D01*
X441570Y334518D01*
X445770D01*
Y338718D01*
D02*
G37*
G36*
X459860Y336230D02*
X456840D01*
Y332060D01*
X459860D01*
Y336230D01*
D02*
G37*
G36*
X452510Y331978D02*
X448310D01*
Y327778D01*
X450178Y328551D01*
X451737Y330110D01*
X452510Y331978D01*
D02*
G37*
G36*
X445770D02*
X441570D01*
X442343Y330110D01*
X443902Y328551D01*
X445770Y327778D01*
Y331978D01*
D02*
G37*
G36*
X208026Y224131D02*
Y220472D01*
X211685D01*
X211029Y222057D01*
X209611Y223475D01*
X208026Y224131D01*
D02*
G37*
G36*
X205486D02*
X203901Y223475D01*
X202483Y222057D01*
X201827Y220472D01*
X205486D01*
Y224131D01*
D02*
G37*
G36*
X211685Y217932D02*
X208026D01*
Y214273D01*
X209611Y214929D01*
X211029Y216347D01*
X211685Y217932D01*
D02*
G37*
G36*
X205486D02*
X201827D01*
X202483Y216347D01*
X203901Y214929D01*
X205486Y214273D01*
Y217932D01*
D02*
G37*
G36*
X221902Y231028D02*
X220058D01*
X218278Y230551D01*
X216682Y229629D01*
X215379Y228326D01*
X214457Y226730D01*
X213980Y224950D01*
Y223106D01*
X214457Y221326D01*
X215379Y219730D01*
X216682Y218427D01*
X216969Y218261D01*
Y206901D01*
X215168D01*
Y207941D01*
X206880D01*
Y198120D01*
Y188299D01*
X213176D01*
Y177420D01*
X212254D01*
Y162420D01*
X222254D01*
Y177420D01*
X221332D01*
Y188981D01*
X221690Y189339D01*
X230135D01*
Y206901D01*
X225125D01*
Y218338D01*
X225278Y218427D01*
X226581Y219730D01*
X227503Y221326D01*
X227980Y223106D01*
Y224950D01*
X227503Y226730D01*
X226581Y228326D01*
X225278Y229629D01*
X223682Y230551D01*
X221902Y231028D01*
D02*
G37*
%LPD*%
D10*
X667004Y465074D02*
X669134Y462944D01*
Y443686D02*
Y462944D01*
X649634Y463706D02*
X651510Y465582D01*
X649634Y443686D02*
Y463706D01*
X146665Y403240D02*
X153665D01*
X160665D01*
X153665Y410240D02*
Y417240D01*
X139665Y403240D02*
X146665D01*
X160665D02*
X167665D01*
X396484Y68416D02*
Y68774D01*
X391834Y69124D02*
X396134D01*
X396484Y68774D01*
X406484Y68416D02*
Y87145D01*
X408795Y89456D01*
D11*
X598991Y412212D02*
G03*
X599004Y412225I-1768J1768D01*
G01*
X710933Y493777D02*
G03*
X710438Y494284I-7499J-6826D01*
G01*
X379070Y812038D02*
X382320Y808788D01*
Y807974D02*
Y808788D01*
X334010Y812038D02*
X379070D01*
X318770Y786130D02*
X345544D01*
X318262Y785622D02*
X318770Y786130D01*
X345544D02*
X353314Y778360D01*
Y771510D02*
Y778360D01*
Y771510D02*
X354584Y770240D01*
X395324Y48414D02*
X395478Y48260D01*
X389228Y48414D02*
X395324D01*
X381808Y55834D02*
X389228Y48414D01*
X402306Y48738D02*
X411608Y58040D01*
Y66698D01*
X395956Y48738D02*
X402306D01*
X411608Y66698D02*
X411708Y66798D01*
X395478Y48260D02*
X395956Y48738D01*
X381808Y55834D02*
Y66698D01*
X182316Y741374D02*
X194166D01*
X179816Y738874D02*
X182316Y741374D01*
X177316Y736374D02*
X179816Y738874D01*
X165466Y736374D02*
X177316D01*
X179816Y738874D02*
X182316Y736374D01*
Y724524D02*
Y736374D01*
X425208Y64398D02*
Y66798D01*
Y64398D02*
X426558Y63048D01*
X381708Y66798D02*
X381808Y66698D01*
X426558Y63048D02*
X437408D01*
X205770Y157704D02*
X206248Y157226D01*
X202722Y157704D02*
X205770D01*
X195254Y169920D02*
X197504Y167670D01*
Y162922D02*
Y167670D01*
Y162922D02*
X202722Y157704D01*
X497960Y335280D02*
Y336068D01*
X489778Y344250D02*
X497960Y336068D01*
X477880Y344250D02*
X489778D01*
X358648Y361950D02*
X397256Y323342D01*
X470408D01*
X476130Y329064D01*
Y337500D01*
X448310Y360426D02*
Y365252D01*
Y360426D02*
X454152Y354584D01*
X459046D01*
X459380Y354250D01*
X91934Y330740D02*
Y395835D01*
X437045Y376517D02*
X448310Y365252D01*
X89916Y503722D02*
X91934Y505740D01*
X274066Y411480D02*
X598259D01*
X599004Y412225D02*
X629829Y443506D01*
X635980Y443872D02*
X636634Y443686D01*
X629829Y443506D02*
X630568Y444245D01*
X634667D02*
X635980Y443872D01*
X630568Y444245D02*
X634667D01*
X598259Y411480D02*
X598991Y412212D01*
X278508Y231140D02*
X282299Y227349D01*
X276203Y233445D02*
X278508Y231140D01*
X386484Y68416D02*
Y230378D01*
X249720Y292810D02*
X324052D01*
X386484Y230378D01*
X386708Y58046D02*
Y66798D01*
Y58046D02*
X390144Y54610D01*
X401608Y66698D02*
X401708Y66798D01*
X401608Y56930D02*
Y66698D01*
X390144Y54610D02*
X399288D01*
X401608Y56930D01*
X231634Y310896D02*
X249720Y292810D01*
X231634Y310896D02*
Y330740D01*
X86434Y530839D02*
X88204D01*
X99314Y519729D01*
Y508291D02*
X101865Y505740D01*
X99314Y508291D02*
Y519729D01*
X391459Y69499D02*
X391834Y69124D01*
X391459Y69499D02*
Y72091D01*
X391084Y72466D02*
X391459Y72091D01*
X391084Y72466D02*
Y232142D01*
X241300Y307594D02*
Y327706D01*
X244334Y330740D01*
X251278Y297616D02*
X325610D01*
X391084Y232142D01*
X241300Y307594D02*
X251278Y297616D01*
X297942Y361950D02*
X358648D01*
X276860Y340868D02*
X297942Y361950D01*
X89916Y472694D02*
Y503722D01*
X256834Y424590D02*
X258456Y426212D01*
X589476D01*
X622808Y459544D01*
X630480Y501194D02*
X636634D01*
X622808Y459544D02*
Y493522D01*
X630480Y501194D01*
X540512Y367030D02*
Y396748D01*
X288170Y399034D02*
X538226D01*
X540512Y396748D01*
Y367030D02*
X546608Y360934D01*
X710692D01*
X266072Y376936D02*
X288170Y399034D01*
X256834Y373790D02*
X259980Y376936D01*
X266072D01*
X675634Y501194D02*
Y509329D01*
X676780Y510475D01*
Y511085D01*
X680045Y514350D01*
X707644D01*
X710692Y360934D02*
X722884Y373126D01*
X707644Y514350D02*
X722884Y499110D01*
Y373126D02*
Y499110D01*
X546354Y373126D02*
Y400050D01*
X542798Y403606D02*
X546354Y400050D01*
X277846Y403606D02*
X542798D01*
X553466Y366014D02*
X702056D01*
X546354Y373126D02*
X553466Y366014D01*
X682134Y497593D02*
Y501194D01*
Y497593D02*
X682923Y496805D01*
X256834Y386490D02*
X259247Y388903D01*
X263144D02*
X277846Y403606D01*
X259247Y388903D02*
X263144D01*
X702056Y366014D02*
X714502Y378460D01*
X710933Y493777D02*
X713844Y490603D01*
X707807Y496805D02*
X710438Y494284D01*
X682923Y496805D02*
X707807D01*
X713844Y490603D02*
X714502Y489886D01*
Y378460D02*
Y489886D01*
X267716Y418846D02*
X594360D01*
X256834Y411890D02*
X259217Y414273D01*
X263144D02*
X267716Y418846D01*
X259217Y414273D02*
X263144D01*
X643134Y493058D02*
Y501194D01*
X642280Y492205D02*
X643134Y493058D01*
X642280Y491459D02*
Y492205D01*
X594360Y418846D02*
X634238Y458724D01*
Y483417D01*
X642280Y491459D01*
X258202Y400558D02*
X263144D01*
X256834Y399190D02*
X258202Y400558D01*
X263144D02*
X274066Y411480D01*
X91934Y395835D02*
X117348Y421249D01*
Y482854D01*
X676983Y49009D02*
X678447Y47544D01*
X654196Y59289D02*
Y71081D01*
X664477Y49009D02*
X676983D01*
X654196Y59289D02*
X664477Y49009D01*
X678447Y42151D02*
Y47544D01*
X694447Y42151D02*
Y70503D01*
X694810Y70866D01*
X406781Y472948D02*
X407924D01*
X272412Y262382D02*
Y279016D01*
X278638Y285242D01*
X307086D01*
X312036Y280292D01*
Y262382D02*
Y280292D01*
X293011Y208261D02*
X296802Y204470D01*
X293011Y208261D02*
Y212957D01*
X282299Y223669D02*
Y227349D01*
Y223669D02*
X293011Y212957D01*
X272412Y262382D02*
X276203Y258591D01*
Y233445D02*
Y258591D01*
X342900Y635254D02*
X358648D01*
X283972Y694182D02*
X342900Y635254D01*
X358648Y658114D02*
X359156Y657606D01*
X669988Y510793D02*
X679401Y520206D01*
X669134Y501194D02*
Y509329D01*
X669988Y510183D02*
Y510793D01*
X669134Y509329D02*
X669988Y510183D01*
X679401Y520206D02*
X690640D01*
X690626Y520192D02*
X690640Y520206D01*
X690626Y520192D02*
X696468D01*
X698796Y522520D02*
Y533360D01*
X696468Y520192D02*
X698796Y522520D01*
X492252Y192760D02*
X493906Y194414D01*
Y219964D01*
X497697Y223922D02*
X526000D01*
X493906Y220131D02*
X497697Y223922D01*
X407670Y42164D02*
X417080Y51574D01*
Y66170D01*
X383540Y42164D02*
X407670D01*
X371144Y54560D02*
Y66362D01*
Y54560D02*
X383540Y42164D01*
X370708Y66798D02*
X371144Y66362D01*
X354584Y713890D02*
Y720740D01*
X340694Y700000D02*
X354584Y713890D01*
X322758Y700000D02*
X340694D01*
X417080Y66170D02*
X417708Y66798D01*
X376708D02*
Y76186D01*
X372958Y79936D02*
X376708Y76186D01*
X372958Y79936D02*
Y90424D01*
X636113Y523460D02*
X649307Y510265D01*
X626304Y523460D02*
X636113D01*
X649307Y501521D02*
Y510265D01*
Y501521D02*
X649634Y501194D01*
X622554Y527210D02*
X626304Y523460D01*
X283972Y745490D02*
X308722Y770240D01*
X283972Y694182D02*
Y745490D01*
X308722Y770240D02*
X341884D01*
D13*
X104634Y468616D02*
Y505740D01*
X79248Y443230D02*
X104634Y468616D01*
X79248Y354584D02*
Y443230D01*
X191516Y332758D02*
X191770Y333012D01*
Y430784D01*
X433324Y747137D02*
X446147D01*
X452120Y753110D01*
X416814Y802386D02*
Y802640D01*
X411480Y807974D02*
X416814Y802640D01*
X401320Y807974D02*
X411480D01*
X605790Y22352D02*
Y31750D01*
Y22352D02*
X617982Y10160D01*
X573278Y21336D02*
Y21971D01*
X599440Y48133D01*
Y48768D01*
X639831D02*
X670447Y18151D01*
X599440Y48768D02*
X639831D01*
X112944Y180340D02*
Y197360D01*
X477962Y363982D02*
X497960D01*
X476130Y361000D02*
Y362150D01*
X477962Y363982D01*
X363474Y386334D02*
X400558Y349250D01*
X459380D01*
X398272Y344170D02*
X459232D01*
X362458Y379984D02*
X398272Y344170D01*
X139504Y508970D02*
X143195Y505279D01*
X279314Y474654D02*
Y475488D01*
X131064Y575149D02*
Y575310D01*
X254076Y459933D02*
X260064Y465920D01*
X226884Y459933D02*
X254076D01*
X715518Y732346D02*
X721996D01*
X723484Y730858D01*
Y730610D02*
Y730858D01*
Y730610D02*
X725164Y728930D01*
X728264D01*
X329692Y597408D02*
X441565D01*
X456946Y582027D01*
X210046Y717054D02*
X329692Y597408D01*
X291592Y451358D02*
X387876D01*
X400068Y439166D01*
X280162Y439928D02*
X291592Y451358D01*
X400068Y439166D02*
X401320D01*
X246283Y515366D02*
X278892D01*
X244795Y508970D02*
Y513878D01*
X246283Y515366D01*
X241565Y505740D02*
X244795Y508970D01*
X278892Y515366D02*
X288290Y505968D01*
X291084Y386334D02*
X363474D01*
X275844Y371094D02*
X291084Y386334D01*
X279314Y475488D02*
X279908Y474894D01*
X260064Y465920D02*
X266022D01*
X271526Y471424D02*
X276084D01*
X279314Y474654D01*
X266022Y465920D02*
X271526Y471424D01*
X164084Y605790D02*
Y676656D01*
X133604Y575310D02*
X164084Y605790D01*
X131064Y575310D02*
X133604D01*
X279908Y460946D02*
Y474894D01*
X124714Y527304D02*
X125222Y527812D01*
Y569306D01*
X131064Y575149D01*
X256794Y178960D02*
Y204724D01*
X250254Y172420D02*
X256794Y178960D01*
X250254Y169920D02*
Y172420D01*
X180834Y317260D02*
Y330740D01*
Y317260D02*
X256794Y241300D01*
Y204724D02*
Y241300D01*
X257048Y204470D02*
X278762D01*
X256794Y204724D02*
X257048Y204470D01*
X177396Y718970D02*
Y724444D01*
X177316Y724524D02*
X177396Y724444D01*
Y718970D02*
X179312Y717054D01*
X210046D01*
X456946Y559562D02*
Y582027D01*
X452020Y554636D02*
X456946Y559562D01*
X449480Y554636D02*
X452020D01*
X448818Y553974D02*
X449480Y554636D01*
X230632Y483108D02*
X236220Y488696D01*
X207010Y483108D02*
X230632D01*
X199898Y475996D02*
X207010Y483108D01*
X199898Y348386D02*
X206234Y342050D01*
X199898Y348386D02*
Y475996D01*
X206234Y330740D02*
Y342050D01*
X187316Y724524D02*
X210196D01*
X332486Y602234D02*
X443159D01*
X461486Y583908D01*
X210196Y724524D02*
X332486Y602234D01*
X431292Y545338D02*
X431546Y545592D01*
X455107D01*
X461486Y551971D01*
Y583908D01*
X256834Y437290D02*
X259472Y439928D01*
X280162D01*
X297174D01*
X299206Y437896D01*
X676402Y10160D02*
X678447Y12205D01*
X617982Y10160D02*
X676402D01*
X678447Y12205D02*
Y18151D01*
X210312Y351783D02*
Y352044D01*
Y351783D02*
X215704Y346391D01*
Y333970D02*
Y346391D01*
Y333970D02*
X218934Y330740D01*
X61976Y530606D02*
Y554482D01*
X82804Y575310D01*
X137174Y185070D02*
X175514D01*
Y176138D02*
Y185070D01*
X175484Y172150D02*
Y176108D01*
X173254Y169920D02*
X175484Y172150D01*
Y176108D02*
X175514Y176138D01*
X133944Y181840D02*
X137174Y185070D01*
X133944Y180340D02*
Y181840D01*
X117334Y318530D02*
X175514Y260350D01*
Y185070D02*
Y260350D01*
X117334Y318530D02*
Y330740D01*
X286004Y557530D02*
X301889Y573415D01*
X309509D02*
X311404Y575310D01*
X301889Y573415D02*
X309509D01*
X248412Y557530D02*
X286004D01*
X206234Y505740D02*
Y515352D01*
X248412Y557530D01*
X209804D02*
Y575310D01*
X168134Y508740D02*
Y515860D01*
X209804Y557530D01*
X194166Y731374D02*
X211474D01*
X293370Y460756D02*
X329692D01*
X329946Y460502D01*
X211474Y731374D02*
X336042Y606806D01*
X445008D01*
X284734Y452120D02*
X293370Y460756D01*
X258964Y452120D02*
X284734D01*
X256834Y449990D02*
X258964Y452120D01*
X445008Y606806D02*
X466074Y585740D01*
X460502Y538763D02*
X466074Y544335D01*
X460502Y538480D02*
Y538763D01*
X466074Y544335D02*
Y585740D01*
X465582Y248158D02*
X592764D01*
X356362Y357378D02*
X465582Y248158D01*
X592764D02*
X608096Y232826D01*
Y229652D02*
Y232826D01*
Y229652D02*
X613826Y223922D01*
X617000D01*
X305562Y357378D02*
X356362D01*
X104634Y330740D02*
X105095Y330279D01*
Y322622D02*
Y330279D01*
Y322622D02*
X115316Y312401D01*
Y303530D02*
Y312401D01*
X279146Y326390D02*
X292876Y340120D01*
Y344692D02*
X305562Y357378D01*
X292876Y340120D02*
Y344692D01*
X228254Y169920D02*
X230484Y167690D01*
Y164566D02*
Y167690D01*
Y164566D02*
X239480Y155570D01*
X235204Y180307D02*
Y236220D01*
X230484Y172150D02*
Y175587D01*
X235204Y180307D01*
X228254Y169920D02*
X230484Y172150D01*
X155434Y315990D02*
X235204Y236220D01*
X155434Y315990D02*
Y330740D01*
X239480Y155570D02*
X287904D01*
X290452Y260612D02*
Y262382D01*
X287904Y155570D02*
X322326Y189992D01*
Y228738D01*
X290452Y260612D02*
X322326Y228738D01*
X200108Y179190D02*
X200109D01*
X204024Y175275D01*
Y172150D02*
X206254Y169920D01*
X204024Y172150D02*
Y175275D01*
X193802Y185497D02*
Y266192D01*
Y185497D02*
X200108Y179190D01*
X142734Y317260D02*
X193802Y266192D01*
X142734Y317260D02*
Y330740D01*
X144694Y547370D02*
X145964Y548640D01*
X139504Y508970D02*
Y514800D01*
X157744Y574050D02*
X159004Y575310D01*
X148854Y574050D02*
X157744D01*
X134874Y547370D02*
X144694D01*
X134874D02*
Y560070D01*
X148854Y574050D01*
X274970Y354967D02*
X299988Y379984D01*
X362458D01*
X134874Y519430D02*
X139504Y514800D01*
X134874Y519430D02*
Y547370D01*
X190754Y607060D02*
Y686308D01*
X159004Y575310D02*
X190754Y607060D01*
X143195Y461325D02*
Y505279D01*
Y461325D02*
X144018Y460502D01*
X461010Y168148D02*
Y241808D01*
Y168148D02*
X476102Y153056D01*
X526508D01*
X311912Y347980D02*
Y347980D01*
X303784Y339852D02*
X311912Y347980D01*
X303784Y338836D02*
Y339852D01*
X316738Y352806D02*
X350012D01*
X461010Y241808D01*
X311912Y347980D02*
X316738Y352806D01*
X108204Y559431D02*
Y575310D01*
X255154Y473710D02*
X256834Y475390D01*
X210312Y473710D02*
X255154D01*
X108204Y559431D02*
X115316Y552319D01*
Y536956D02*
Y552319D01*
X261874Y544830D02*
X322834D01*
X352054Y574050D01*
X232649Y515605D02*
X261874Y544830D01*
X232649Y506755D02*
Y515605D01*
X231634Y505740D02*
X232649Y506755D01*
X360944Y574050D02*
X362204Y575310D01*
X352054Y574050D02*
X360944D01*
X241484Y164566D02*
X245399Y160650D01*
X239254Y169920D02*
X241484Y167690D01*
Y164566D02*
Y167690D01*
X245364Y179154D02*
Y237490D01*
X243484Y177190D02*
Y177274D01*
X241484Y175190D02*
X243484Y177190D01*
Y177274D02*
X245364Y179154D01*
X241484Y172150D02*
Y175190D01*
X239254Y169920D02*
X241484Y172150D01*
X168134Y314720D02*
X245364Y237490D01*
X168134Y314720D02*
Y330740D01*
X245399Y160650D02*
X283840D01*
X313436Y190246D01*
Y222504D01*
X305645Y230295D02*
X313436Y222504D01*
X296548Y231140D02*
X297393Y230295D01*
X305645D01*
X256794Y551180D02*
X305054D01*
X327289Y573415D01*
X334909D01*
X336804Y575310D01*
X219395Y506201D02*
Y513781D01*
X256794Y551180D01*
X218934Y505740D02*
X219395Y506201D01*
X112944Y197360D02*
X130824Y215240D01*
Y227530D01*
X142054Y238760D01*
X88989Y551434D02*
X105156D01*
X86434Y548879D02*
X88989Y551434D01*
X319532Y435610D02*
X362204D01*
X317246Y437896D02*
X319532Y435610D01*
X161713Y544869D02*
X165484Y548640D01*
X145034Y525526D02*
X161713Y542205D01*
Y544869D01*
X129032Y320802D02*
Y328313D01*
Y320802D02*
X186484Y263350D01*
X184254Y169920D02*
X186484Y172150D01*
Y263350D01*
Y164566D02*
X200560Y150490D01*
X184254Y169920D02*
X186484Y167690D01*
Y164566D02*
Y167690D01*
X200560Y150490D02*
X293238D01*
X330076Y187328D01*
Y262382D01*
X232686Y567712D02*
Y572792D01*
X235204Y575310D01*
X180834Y515860D02*
X232686Y567712D01*
X180834Y505740D02*
Y515860D01*
X250466Y572792D02*
X258086D01*
X260604Y575310D01*
X193534Y505740D02*
Y515860D01*
X250466Y572792D01*
X798830Y745744D02*
X806704Y737870D01*
X673608Y745744D02*
X798830D01*
X806704Y726581D02*
Y737870D01*
X645286Y717422D02*
X673608Y745744D01*
X641556Y705598D02*
X645286Y709328D01*
Y717422D01*
X638556Y705598D02*
X641556D01*
X277238Y584076D02*
X286004Y575310D01*
X277238Y584076D02*
Y607314D01*
X702920Y719430D02*
X728264D01*
X702310Y718820D02*
X702920Y719430D01*
X730504Y697230D02*
Y708250D01*
X729234Y708960D02*
X729794D01*
X730504Y708250D01*
X728264Y709930D02*
X729234Y708960D01*
X769874Y685800D02*
Y695960D01*
X769464Y685390D02*
X769874Y685800D01*
X711864Y665890D02*
X769464D01*
X713994Y686120D02*
Y698500D01*
X711864Y685390D02*
X713264D01*
X713994Y686120D01*
X806485Y710840D02*
X806704Y711059D01*
X776295Y710840D02*
X806485D01*
X768964D02*
X776295D01*
X753364Y719430D02*
X754513Y718281D01*
X761523D01*
X768964Y710840D01*
D17*
X382320Y807974D02*
D03*
X401320D02*
D03*
D18*
X433324Y747137D02*
D03*
Y728603D02*
D03*
D19*
X354584Y770240D02*
D03*
X367284Y720740D02*
D03*
X341884D02*
D03*
X379984Y770240D02*
D03*
Y720740D02*
D03*
X341884Y770240D02*
D03*
X354584Y720740D02*
D03*
X367284Y770240D02*
D03*
D20*
X139965Y505740D02*
D03*
X203465Y330740D02*
D03*
X190765D02*
D03*
X178065Y505740D02*
D03*
X101865D02*
D03*
X241565Y330740D02*
D03*
X228865D02*
D03*
X216165D02*
D03*
X101865D02*
D03*
X114565D02*
D03*
X152665D02*
D03*
X165365D02*
D03*
X241565Y505740D02*
D03*
X228865D02*
D03*
X216165D02*
D03*
X203465D02*
D03*
X190765D02*
D03*
X165365D02*
D03*
X152665D02*
D03*
X127265D02*
D03*
X114565D02*
D03*
X89165D02*
D03*
X178065Y330740D02*
D03*
X139965D02*
D03*
X76465Y505740D02*
D03*
Y330740D02*
D03*
X89165D02*
D03*
X127265D02*
D03*
D21*
X254065Y462690D02*
D03*
Y449990D02*
D03*
Y437290D02*
D03*
Y475390D02*
D03*
Y348390D02*
D03*
Y361090D02*
D03*
Y373790D02*
D03*
Y386490D02*
D03*
Y399190D02*
D03*
Y411890D02*
D03*
Y424590D02*
D03*
Y488090D02*
D03*
D22*
X167665Y417240D02*
D03*
X139665D02*
D03*
X153665D02*
D03*
Y403240D02*
D03*
X167665D02*
D03*
Y389240D02*
D03*
X153665D02*
D03*
X139665Y403240D02*
D03*
Y389240D02*
D03*
D23*
X513976Y335280D02*
D03*
Y363982D02*
D03*
X670212Y71081D02*
D03*
X710826Y70866D02*
D03*
X79090Y299389D02*
D03*
X95106D02*
D03*
X654196Y71081D02*
D03*
X694810Y70866D02*
D03*
X497960Y363982D02*
D03*
Y335280D02*
D03*
D24*
X656134Y500694D02*
D03*
X669134Y444186D02*
D03*
X649634D02*
D03*
X636634Y500694D02*
D03*
X675634D02*
D03*
X682134D02*
D03*
X643134D02*
D03*
X669134D02*
D03*
X662634D02*
D03*
X649634D02*
D03*
X682134Y444186D02*
D03*
X675634D02*
D03*
X662634D02*
D03*
X656134D02*
D03*
X643134D02*
D03*
D25*
X683776Y718820D02*
D03*
X702310D02*
D03*
D26*
X132334Y695706D02*
D03*
X492252Y176744D02*
D03*
X132334Y711722D02*
D03*
X778764Y728098D02*
D03*
Y712082D02*
D03*
X492252Y192760D02*
D03*
D27*
X205610Y198120D02*
D03*
X565992Y531378D02*
D03*
X221618Y198120D02*
D03*
X581999Y531378D02*
D03*
D28*
X508962Y466199D02*
D03*
X404005Y780149D02*
D03*
X508962Y482207D02*
D03*
X404005Y764141D02*
D03*
D29*
X408795Y108976D02*
D03*
X86434Y530839D02*
D03*
Y548879D02*
D03*
X685310Y399288D02*
D03*
Y417328D02*
D03*
X408795Y90936D02*
D03*
D30*
X769464Y678890D02*
D03*
Y672390D02*
D03*
X711864D02*
D03*
Y678890D02*
D03*
X769464Y665890D02*
D03*
Y685390D02*
D03*
X711864D02*
D03*
Y665890D02*
D03*
D31*
X715088Y629400D02*
D03*
Y564400D02*
D03*
D32*
X655574Y543320D02*
D03*
X403224Y741277D02*
D03*
X655574Y528320D02*
D03*
X403224Y726277D02*
D03*
D33*
X622554Y547210D02*
D03*
Y527210D02*
D03*
D34*
X559054Y505230D02*
D03*
X536054D02*
D03*
X582054D02*
D03*
D35*
X520211Y686470D02*
D03*
X82054Y238760D02*
D03*
X27190Y708914D02*
D03*
X147054Y238760D02*
D03*
X585211Y686470D02*
D03*
X92190Y708914D02*
D03*
D36*
X522204Y580390D02*
D03*
X583204D02*
D03*
D37*
X559054Y444730D02*
D03*
D38*
X618000Y178922D02*
D03*
X526508Y108056D02*
D03*
X526000Y178922D02*
D03*
X617000Y223922D02*
D03*
X526508Y153056D02*
D03*
X526000Y223922D02*
D03*
X618508Y108056D02*
D03*
X617508Y153056D02*
D03*
D39*
X194166Y741374D02*
D03*
X165466Y736374D02*
D03*
X194166Y731374D02*
D03*
Y736374D02*
D03*
Y746374D02*
D03*
X165466D02*
D03*
Y741374D02*
D03*
Y731374D02*
D03*
D40*
X237576Y744728D02*
D03*
X237662Y763270D02*
D03*
X216576Y744728D02*
D03*
X216662Y763270D02*
D03*
D42*
X460248Y442194D02*
D03*
Y503194D02*
D03*
D43*
X182316Y724524D02*
D03*
X177316D02*
D03*
X187316D02*
D03*
X177316Y753224D02*
D03*
X172316D02*
D03*
X187316D02*
D03*
X182316D02*
D03*
X172316Y724524D02*
D03*
D44*
X462044Y94234D02*
D03*
X432544D02*
D03*
D45*
X265754Y169920D02*
D03*
X154254Y126920D02*
D03*
D46*
X195254Y169920D02*
D03*
X250254D02*
D03*
X173254D02*
D03*
X228254D02*
D03*
X206254D02*
D03*
X239254D02*
D03*
X217254D02*
D03*
X184254D02*
D03*
X163754D02*
D03*
D47*
X289395Y15779D02*
D03*
D48*
X154254Y23420D02*
D03*
D49*
X306242Y700000D02*
D03*
X323758D02*
D03*
D50*
X353438Y90424D02*
D03*
X280794Y475488D02*
D03*
X278762Y204470D02*
D03*
X299206Y437896D02*
D03*
X132464Y180340D02*
D03*
X290452Y262382D02*
D03*
X147444Y548640D02*
D03*
X296548Y231140D02*
D03*
X114424Y180340D02*
D03*
X278508Y231140D02*
D03*
X296802Y204470D02*
D03*
X272412Y262382D02*
D03*
X317246Y437896D02*
D03*
X295278Y607314D02*
D03*
X298834Y475488D02*
D03*
X475866Y219964D02*
D03*
X312036Y262382D02*
D03*
X165484Y548640D02*
D03*
X330076Y262382D02*
D03*
X371478Y90424D02*
D03*
X277238Y607314D02*
D03*
X493906Y219964D02*
D03*
D51*
X425208Y66798D02*
D03*
X363208D02*
D03*
X417708D02*
D03*
X370708D02*
D03*
D52*
X411708D02*
D03*
X381708D02*
D03*
X386708D02*
D03*
X401708D02*
D03*
X391708D02*
D03*
X396708D02*
D03*
X406708D02*
D03*
X376708D02*
D03*
D53*
X408208Y24798D02*
D03*
X380208D02*
D03*
D54*
X694447Y18151D02*
D03*
X686447Y42151D02*
D03*
X670247D02*
D03*
X694447D02*
D03*
X686447Y18151D02*
D03*
X678447Y42151D02*
D03*
Y18151D02*
D03*
X670447D02*
D03*
D55*
X461130Y337500D02*
D03*
Y361000D02*
D03*
X466130D02*
D03*
X471130D02*
D03*
X476130D02*
D03*
X466130Y337500D02*
D03*
X471130D02*
D03*
X476130D02*
D03*
D56*
X477880Y354250D02*
D03*
Y349250D02*
D03*
X459380Y344250D02*
D03*
Y349250D02*
D03*
Y354250D02*
D03*
X477880Y344250D02*
D03*
D57*
X636634Y444186D02*
D03*
D58*
X698796Y533360D02*
D03*
X680796D02*
D03*
D59*
X806704Y727581D02*
D03*
Y710059D02*
D03*
D60*
X638556Y705598D02*
D03*
Y735598D02*
D03*
D61*
X753364Y728930D02*
D03*
X728264D02*
D03*
Y719430D02*
D03*
Y709930D02*
D03*
X753364D02*
D03*
Y719430D02*
D03*
D62*
X154254Y64920D02*
D03*
D67*
X659384Y472440D02*
D03*
D83*
X387604Y575310D02*
D03*
X133604D02*
D03*
X82804D02*
D03*
X311404D02*
D03*
X209804D02*
D03*
X159004D02*
D03*
X108204D02*
D03*
X362204D02*
D03*
X336804D02*
D03*
X184404D02*
D03*
X413004D02*
D03*
X235204D02*
D03*
X260604D02*
D03*
X286004D02*
D03*
D84*
X437408Y63048D02*
D03*
X351008D02*
D03*
D85*
Y24798D02*
D03*
X437408D02*
D03*
D86*
X438404Y575310D02*
D03*
D87*
X424208Y55798D02*
D03*
D88*
X364208D02*
D03*
X452120Y753110D02*
D03*
X416814Y802386D02*
D03*
X334010Y812038D02*
D03*
X318262Y785622D02*
D03*
X333502Y153162D02*
D03*
X800354Y626618D02*
D03*
X364236Y522224D02*
D03*
X310134Y323342D02*
D03*
X351282Y235966D02*
D03*
X222758Y613664D02*
D03*
X695706Y299974D02*
D03*
X685546Y212598D02*
D03*
X797560Y98044D02*
D03*
X139954Y613664D02*
D03*
X30734Y561086D02*
D03*
X312928Y37338D02*
D03*
X119126Y52070D02*
D03*
X228854Y293116D02*
D03*
X637286Y620014D02*
D03*
X426466Y704088D02*
D03*
X471932Y679196D02*
D03*
X310388Y738124D02*
D03*
X173736Y701294D02*
D03*
X560070Y784606D02*
D03*
X725424Y783590D02*
D03*
X685292Y771144D02*
D03*
X533400Y536956D02*
D03*
X447040Y333248D02*
D03*
X741426Y406654D02*
D03*
X795020Y409702D02*
D03*
X796798Y526288D02*
D03*
X737108Y516890D02*
D03*
X586740Y64516D02*
D03*
X54356Y174244D02*
D03*
X41148Y298450D02*
D03*
X403352Y194310D02*
D03*
X361696Y193294D02*
D03*
X650494Y479298D02*
D03*
X667766Y479044D02*
D03*
X667004Y465074D02*
D03*
X659384Y472440D02*
D03*
X651510Y465582D02*
D03*
X559308Y444246D02*
D03*
X570738D02*
D03*
X547624Y443738D02*
D03*
X371602Y753110D02*
D03*
X350266Y752348D02*
D03*
X360934Y745490D02*
D03*
X179816Y738874D02*
D03*
X372364Y737870D02*
D03*
X349758Y738378D02*
D03*
X448818Y553974D02*
D03*
X431292Y545338D02*
D03*
X460502Y538480D02*
D03*
X362204Y435610D02*
D03*
X253492Y262890D02*
D03*
D91*
X360934Y745490D02*
D03*
D92*
X179816Y738874D02*
D03*
D93*
X616966Y410972D02*
X617093D01*
X625315Y419194D02*
Y420116D01*
X617093Y410972D02*
X625315Y419194D01*
Y420116D02*
X633229Y428030D01*
X636091D01*
X625602Y389890D02*
X647446Y411734D01*
Y422148D01*
X590042Y389890D02*
X625602D01*
X576834Y390144D02*
X589788D01*
X590042Y389890D01*
X396240Y463550D02*
X397383D01*
X406781Y472948D01*
X407924D02*
X409067D01*
X418719Y482600D01*
X419862D01*
X647446Y422148D02*
X656134Y430836D01*
X663194Y403860D02*
Y417830D01*
X663158Y417866D02*
X663194Y417830D01*
X663158Y417866D02*
Y428176D01*
X753314Y728880D02*
X753364Y728930D01*
X746743Y728880D02*
X753314D01*
X740599Y722736D02*
X746743Y728880D01*
X740599Y693834D02*
Y722736D01*
X725656Y678890D02*
X740599Y693834D01*
X723594Y678890D02*
X725656D01*
X778304Y728980D02*
X778354Y728930D01*
X753414Y728980D02*
X778304D01*
X753364Y728930D02*
X753414Y728980D01*
X667004Y675640D02*
X682244D01*
D94*
X407022Y767159D02*
X411543D01*
X404005Y764141D02*
X407022Y767159D01*
X526796Y767588D02*
X585211Y709173D01*
X411543Y767159D02*
X411972Y767588D01*
X526796D01*
X381232Y764141D02*
X404005D01*
X378984Y771240D02*
Y780526D01*
X301752Y798576D02*
X360934D01*
X378984Y780526D01*
Y771240D02*
X379984Y770240D01*
Y765390D02*
Y770240D01*
Y765390D02*
X381232Y764141D01*
X159004Y200660D02*
Y214630D01*
X96603Y280079D02*
Y297892D01*
X129422Y247260D02*
X138554D01*
X96603Y280079D02*
X129422Y247260D01*
X95106Y299389D02*
X96603Y297892D01*
X159004Y214630D02*
Y230260D01*
X150504Y238760D02*
X159004Y230260D01*
X420761Y483499D02*
X438053D01*
X413004Y547938D02*
X457748Y503194D01*
X413004Y547938D02*
Y575310D01*
X438404D01*
X419862Y482600D02*
X420761Y483499D01*
X438053D02*
X457748Y503194D01*
X462748D02*
X486703D01*
X506212Y482453D02*
Y483685D01*
Y482453D02*
X507444D01*
X486703Y503194D02*
X506212Y483685D01*
X507444Y482453D02*
Y493220D01*
X519454Y505230D01*
X536054D01*
X138554Y247260D02*
X147054Y238760D01*
X100330Y811022D02*
X289306D01*
X301752Y798576D01*
X583204Y582890D02*
X591204Y590890D01*
X596666Y593852D02*
X690636D01*
X583204Y580390D02*
Y582890D01*
X593704Y590890D02*
X596666Y593852D01*
X591204Y590890D02*
X593704D01*
X583204Y580390D02*
Y684463D01*
X690636Y593852D02*
X715088Y569400D01*
X642988Y564400D02*
X715088D01*
X638556Y692150D02*
Y705598D01*
X585211Y686470D02*
Y709173D01*
X591469Y680212D02*
X626618D01*
X585211Y686470D02*
X591469Y680212D01*
X626618D02*
X638556Y692150D01*
X583204Y684463D02*
X585211Y686470D01*
X715088Y564400D02*
Y569400D01*
X638302Y559714D02*
X642988Y564400D01*
X638302Y533756D02*
Y559714D01*
Y533756D02*
X642988Y529070D01*
X582246Y534128D02*
X584246D01*
X654824Y529070D02*
X655574Y528320D01*
X642988Y529070D02*
X654824D01*
X581984Y505300D02*
Y531378D01*
Y505300D02*
X582054Y505230D01*
X93100Y803792D02*
X100330Y811022D01*
X581914Y579100D02*
X583204Y580390D01*
X581914Y537940D02*
Y579100D01*
X581496Y531378D02*
Y533378D01*
X582246Y534128D01*
X93100Y709824D02*
Y803792D01*
X94490Y711214D02*
X132334D01*
X93100Y709824D02*
X94490Y711214D01*
X92190Y708914D02*
X93100Y709824D01*
X702818Y481838D02*
X703326Y482346D01*
X702310Y467360D02*
X702818Y467868D01*
Y481838D01*
X611886Y711962D02*
X612140Y712216D01*
Y726440D02*
X612394Y726694D01*
X612140Y712216D02*
Y726440D01*
X612394Y726694D02*
Y752740D01*
X605790Y759344D02*
X612394Y752740D01*
X635556Y735598D02*
X638556D01*
X631190Y739964D02*
X635556Y735598D01*
X631190Y739964D02*
Y801878D01*
X605790Y759344D02*
Y801878D01*
X380984Y725527D02*
X402474D01*
X379984Y724527D02*
X380984Y725527D01*
X379984Y720740D02*
Y724527D01*
D95*
X662865Y510973D02*
X680796Y528904D01*
X548132Y319024D02*
X563626Y303530D01*
X511556Y319024D02*
X548132D01*
X502983Y327597D02*
X511556Y319024D01*
X502983Y327597D02*
Y330257D01*
X497960Y335280D02*
X502983Y330257D01*
X425704Y387858D02*
X437045Y376517D01*
X485426D02*
X497960Y363982D01*
X437045Y376517D02*
X485426D01*
X207518Y701802D02*
X208475Y700845D01*
Y695887D02*
Y700845D01*
X237662Y763270D02*
X255524D01*
X261366Y729488D02*
Y757428D01*
X255524Y763270D02*
X261366Y757428D01*
X208475Y695887D02*
X295278Y609084D01*
X253746Y721868D02*
X261366Y729488D01*
X678447Y33651D02*
Y42151D01*
Y33651D02*
X686447Y25651D01*
Y18151D02*
Y25651D01*
X396494Y591820D02*
X413004Y575310D01*
X295278Y607314D02*
Y609084D01*
Y607314D02*
X298509Y604083D01*
X305237D01*
X317500Y591820D01*
X396494D01*
X156718Y738124D02*
X159818Y741224D01*
X165316D01*
X157916Y751374D02*
X162766Y746524D01*
X157915Y751374D02*
X157916D01*
X680796Y531860D02*
Y533360D01*
X662865Y501425D02*
Y510973D01*
X662634Y501194D02*
X662865Y501425D01*
X165316Y741224D02*
X165466Y741374D01*
X194166Y753474D02*
X202462Y761770D01*
X194166Y746374D02*
Y753474D01*
X215162Y761770D02*
X216662Y763270D01*
X202462Y761770D02*
X215162D01*
X208534Y744728D02*
X216576D01*
X200180Y736374D02*
X208534Y744728D01*
X194166Y736374D02*
X200180D01*
X663158Y428176D02*
Y428176D01*
X662634Y428700D02*
X663158Y428176D01*
X662634Y428700D02*
Y443686D01*
D96*
X677256Y528320D02*
X680796Y531860D01*
X217254Y169920D02*
Y190671D01*
X218864Y192281D01*
Y195870D01*
X220980Y224028D02*
X221047Y223961D01*
Y198187D02*
X221114Y198120D01*
X218864Y195870D02*
X221114Y198120D01*
X221047Y198187D02*
Y223961D01*
X420737Y76962D02*
X426196D01*
X417808Y74033D02*
X420737Y76962D01*
X426196D02*
X429125Y79891D01*
Y90815D01*
X417808Y66898D02*
Y74033D01*
X125730Y748538D02*
X135791Y738477D01*
X151130Y758160D02*
Y782828D01*
Y758160D02*
X157915Y751374D01*
X172316Y762508D02*
Y796155D01*
X169387Y799084D02*
X172316Y796155D01*
X106680Y736868D02*
Y796155D01*
X109609Y799084D02*
X169387D01*
X106680Y796155D02*
X109609Y799084D01*
X655574Y528320D02*
X677256D01*
X106680Y736868D02*
X132334Y711214D01*
X125730Y748538D02*
Y782828D01*
X429125Y90815D02*
X432544Y94234D01*
D97*
X497078Y21336D02*
X497840Y22098D01*
Y77597D01*
X654196Y71869D02*
Y97936D01*
Y71081D02*
Y71869D01*
X300314Y476988D02*
X319896Y496570D01*
X405892D01*
X419862Y482600D01*
X152665Y505740D02*
X153677Y506752D01*
Y516897D01*
X184404Y547624D01*
Y575310D01*
X90932Y303563D02*
X95106Y299389D01*
X90932Y303563D02*
Y328973D01*
X475866Y219964D02*
Y233400D01*
X480715Y238249D02*
X490217D01*
X475866Y233400D02*
X480715Y238249D01*
X503428Y83185D02*
Y119888D01*
X490217Y238249D02*
X490982Y239014D01*
X694810Y70866D02*
Y95638D01*
X654196Y97936D02*
X656844Y100584D01*
X689864D02*
X694810Y95638D01*
X656844Y100584D02*
X689864D01*
X460248Y503194D02*
X462748D01*
X493522Y641961D02*
Y733717D01*
X494143Y734338D02*
Y738745D01*
X683540Y399288D02*
X685310D01*
X493522Y641961D02*
X498602Y636881D01*
X462748Y503194D02*
X498602Y539048D01*
X493522Y733717D02*
X494143Y734338D01*
Y738745D02*
X495808Y740410D01*
X498602Y539048D02*
Y636881D01*
X89165Y330740D02*
X90932Y328973D01*
X253492Y262890D02*
X271904D01*
X272412Y262382D01*
X497840Y77597D02*
X503428Y83185D01*
X660934Y376682D02*
X683540Y399288D01*
X648208Y376682D02*
X660934D01*
X506857Y79756D02*
X645522D01*
X649673Y76392D02*
X654196Y71869D01*
X503428Y83185D02*
X506857Y79756D01*
X645522D02*
X648886Y76392D01*
X649673D01*
X693282Y460756D02*
X696365Y463839D01*
X699956Y467360D02*
X702310D01*
X675674Y452916D02*
X683514Y460756D01*
X693282D01*
X696435Y463839D02*
X699956Y467360D01*
X696365Y463839D02*
X696435D01*
X135791Y738477D02*
X156364D01*
X636091Y428030D02*
X643038Y434977D01*
Y444090D01*
X643134Y444186D01*
X656134Y430836D02*
Y443686D01*
X172316Y759774D02*
X177316Y754774D01*
X172316Y753224D02*
Y759774D01*
X177316Y753224D02*
Y754774D01*
X172316Y759774D02*
Y762508D01*
X675674Y450463D02*
Y452916D01*
X685175Y417328D02*
X685310D01*
X682134Y420369D02*
X685175Y417328D01*
X682134Y420369D02*
Y444186D01*
X656134Y443686D02*
X656134Y443686D01*
X432661Y726940D02*
X433324Y727603D01*
X403887Y726940D02*
X432661D01*
X711864Y678890D02*
X723594D01*
X684598Y675640D02*
X687808Y678850D01*
X707644D01*
X687808Y672430D02*
X705104D01*
X684598Y675640D02*
X687808Y672430D01*
D98*
X358648Y635254D02*
Y658114D01*
X403224Y726277D02*
X403887Y726940D01*
X402474Y725527D02*
X403224Y726277D01*
X401224Y724277D02*
X402474Y725527D01*
X390144Y618490D02*
X390271Y618363D01*
X390017Y618617D02*
X390144Y618490D01*
X358648Y658114D02*
Y658262D01*
X338827Y330685D02*
X349758Y319754D01*
X401224Y700838D02*
Y724277D01*
X358648Y658262D02*
X401224Y700838D01*
X432544Y94234D02*
Y236746D01*
X349822Y319468D02*
X432544Y236746D01*
X375285Y618617D02*
X390017D01*
X338827Y330685D02*
Y333288D01*
X330962Y341153D02*
X338827Y333288D01*
X330962Y341153D02*
Y341884D01*
X349758Y319468D02*
Y319754D01*
Y319468D02*
X349822D01*
X358648Y635254D02*
X375158Y618744D01*
X390271Y618363D02*
X404749D01*
X404876Y618236D01*
D99*
X497078Y21336D02*
D03*
X523494Y805688D02*
D03*
X631190Y801878D02*
D03*
X125730Y782828D02*
D03*
D100*
X547878Y21336D02*
D03*
X573278D02*
D03*
X522478D02*
D03*
X498094Y805688D02*
D03*
X472694D02*
D03*
X447294D02*
D03*
X766572Y482854D02*
D03*
X605790Y801878D02*
D03*
X64008Y611632D02*
D03*
X151130Y782828D02*
D03*
D101*
X146665Y403240D02*
D03*
Y389240D02*
D03*
Y417240D02*
D03*
X160665Y389240D02*
D03*
Y403240D02*
D03*
Y417240D02*
D03*
X139665Y396240D02*
D03*
Y410240D02*
D03*
X153665Y396240D02*
D03*
Y410240D02*
D03*
X167665Y396240D02*
D03*
Y410240D02*
D03*
D102*
X766572Y457454D02*
D03*
X64008Y637032D02*
D03*
D103*
X40000Y40000D02*
D03*
X791600D02*
D03*
Y783790D02*
D03*
X40000D02*
D03*
D104*
X191770Y430784D02*
D03*
X605790Y31750D02*
D03*
X599440Y48768D02*
D03*
X425704Y387858D02*
D03*
X401320Y439166D02*
D03*
X288290Y505968D02*
D03*
X301498Y532130D02*
D03*
X331978Y526796D02*
D03*
X275844Y371094D02*
D03*
X226884Y459933D02*
D03*
X279908Y460946D02*
D03*
X124714Y527304D02*
D03*
X236220Y488696D02*
D03*
X79248Y354584D02*
D03*
X210312Y352044D02*
D03*
X61976Y530606D02*
D03*
X329946Y460502D02*
D03*
X115316Y303530D02*
D03*
X279146Y326390D02*
D03*
X276860Y340868D02*
D03*
X89916Y472694D02*
D03*
X274970Y354967D02*
D03*
X144018Y460502D02*
D03*
X303784Y338836D02*
D03*
X210312Y473710D02*
D03*
X115316Y536956D02*
D03*
X220980Y224028D02*
D03*
X117348Y482854D02*
D03*
X105156Y551434D02*
D03*
X207518Y701802D02*
D03*
X253746Y721868D02*
D03*
X503428Y119888D02*
D03*
X490982Y239014D02*
D03*
X563626Y303530D02*
D03*
X145034Y525526D02*
D03*
X648208Y376682D02*
D03*
X715518Y732346D02*
D03*
X730504Y697230D02*
D03*
X769874Y695960D02*
D03*
X713994Y698500D02*
D03*
D105*
X616966Y410972D02*
D03*
X626364Y420116D02*
D03*
X589788Y390144D02*
D03*
X576834D02*
D03*
X164084Y676656D02*
D03*
X190754Y686308D02*
D03*
X159004Y200660D02*
D03*
Y214630D02*
D03*
X396240Y463550D02*
D03*
X407924Y472948D02*
D03*
X419862Y482600D02*
D03*
X495808Y740410D02*
D03*
X703326Y482346D02*
D03*
X702310Y467360D02*
D03*
X611886Y711962D02*
D03*
X612394Y726694D02*
D03*
X375158Y618744D02*
D03*
X390144Y618490D02*
D03*
X663194Y417830D02*
D03*
Y403860D02*
D03*
X330962Y341884D02*
D03*
X339344Y330454D02*
D03*
X349758Y319468D02*
D03*
X404876Y618236D02*
D03*
X667004Y675640D02*
D03*
X682244D02*
D03*
D106*
X395478Y48260D02*
D03*
X684784Y124460D02*
D03*
X538480Y349758D02*
D03*
X203200Y786638D02*
D03*
X251460Y789178D02*
D03*
X206756Y219202D02*
D03*
X405638Y147828D02*
D03*
X263398Y186944D02*
D03*
X206248Y157226D02*
D03*
M02*
