G04*
G04 #@! TF.GenerationSoftware,Altium Limited,Altium Designer,26.3.0 (6)*
G04*
G04 Layer_Color=128*
%FSLAX44Y44*%
%MOMM*%
G71*
G04*
G04 #@! TF.SameCoordinates,A193BC64-9647-4758-90A1-BE3C94D63F3F*
G04*
G04*
G04 #@! TF.FilePolarity,Positive*
G04*
G01*
G75*
%ADD15C,0.1270*%
D15*
X492578Y21336D02*
X501578D01*
X497078Y16836D02*
Y25836D01*
X543378Y21336D02*
X552378D01*
X547878Y16836D02*
Y25836D01*
X568778Y21336D02*
X577778D01*
X573278Y16836D02*
Y25836D01*
X517978Y21336D02*
X526978D01*
X522478Y16836D02*
Y25836D01*
X145165Y403240D02*
X148165D01*
X146665Y401740D02*
Y404740D01*
X145165Y389240D02*
X148165D01*
X146665Y387740D02*
Y390740D01*
X145165Y417240D02*
X148165D01*
X146665Y415740D02*
Y418740D01*
X159165Y389240D02*
X162165D01*
X160665Y387740D02*
Y390740D01*
X159165Y403240D02*
X162165D01*
X160665Y401740D02*
Y404740D01*
X159165Y417240D02*
X162165D01*
X160665Y415740D02*
Y418740D01*
X138165Y396240D02*
X141165D01*
X139665Y394740D02*
Y397740D01*
X138165Y410240D02*
X141165D01*
X139665Y408740D02*
Y411740D01*
X152165Y396240D02*
X155165D01*
X153665Y394740D02*
Y397740D01*
X152165Y410240D02*
X155165D01*
X153665Y408740D02*
Y411740D01*
X166165Y396240D02*
X169165D01*
X167665Y394740D02*
Y397740D01*
X166165Y410240D02*
X169165D01*
X167665Y408740D02*
Y411740D01*
X493594Y805688D02*
X502594D01*
X498094Y801188D02*
Y810188D01*
X382504Y575310D02*
X392704D01*
X387604Y570210D02*
Y580410D01*
X434408Y63048D02*
X440408D01*
X437408Y60048D02*
Y66048D01*
X348008Y63048D02*
X354008D01*
X351008Y60048D02*
Y66048D01*
X348008Y24798D02*
X354008D01*
X351008Y21798D02*
Y27798D01*
X434408Y24798D02*
X440408D01*
X437408Y21798D02*
Y27798D01*
X128504Y575310D02*
X138704D01*
X133604Y570210D02*
Y580410D01*
X468194Y805688D02*
X477194D01*
X472694Y801188D02*
Y810188D01*
X77704Y575310D02*
X87904D01*
X82804Y570210D02*
Y580410D01*
X306304Y575310D02*
X316504D01*
X311404Y570210D02*
Y580410D01*
X204704Y575310D02*
X214904D01*
X209804Y570210D02*
Y580410D01*
X153904Y575310D02*
X164104D01*
X159004Y570210D02*
Y580410D01*
X442794Y805688D02*
X451794D01*
X447294Y801188D02*
Y810188D01*
X103104Y575310D02*
X113304D01*
X108204Y570210D02*
Y580410D01*
X357104Y575310D02*
X367304D01*
X362204Y570210D02*
Y580410D01*
X331704Y575310D02*
X341904D01*
X336804Y570210D02*
Y580410D01*
X179304Y575310D02*
X189504D01*
X184404Y570210D02*
Y580410D01*
X407904Y575310D02*
X418104D01*
X413004Y570210D02*
Y580410D01*
X433304Y575310D02*
X443504D01*
X438404Y570210D02*
Y580410D01*
X518994Y805688D02*
X527994D01*
X523494Y801188D02*
Y810188D01*
X230104Y575310D02*
X240304D01*
X235204Y570210D02*
Y580410D01*
X255504Y575310D02*
X265704D01*
X260604Y570210D02*
Y580410D01*
X421208Y55798D02*
X427208D01*
X424208Y52798D02*
Y58798D01*
X361208Y55798D02*
X367208D01*
X364208Y52798D02*
Y58798D01*
X762072Y482854D02*
X771072D01*
X766572Y478354D02*
Y487354D01*
X762072Y457454D02*
X771072D01*
X766572Y452954D02*
Y461954D01*
X601290Y801878D02*
X610290D01*
X605790Y797378D02*
Y806378D01*
X626690Y801878D02*
X635690D01*
X631190Y797378D02*
Y806378D01*
X59508Y637032D02*
X68508D01*
X64008Y632532D02*
Y641532D01*
X59508Y611632D02*
X68508D01*
X64008Y607132D02*
Y616132D01*
X146630Y782828D02*
X155630D01*
X151130Y778328D02*
Y787328D01*
X121230Y782828D02*
X130230D01*
X125730Y778328D02*
Y787328D01*
X280904Y575310D02*
X291104D01*
X286004Y570210D02*
Y580410D01*
X24000Y40000D02*
X56000D01*
X40000Y24000D02*
Y56000D01*
X775600Y40000D02*
X807600D01*
X791600Y24000D02*
Y56000D01*
X775600Y783790D02*
X807600D01*
X791600Y767790D02*
Y799790D01*
X24000Y783790D02*
X56000D01*
X40000Y767790D02*
Y799790D01*
X189770Y430784D02*
X193770D01*
X191770Y428784D02*
Y432784D01*
X613410Y410972D02*
X620522D01*
X616966Y407416D02*
Y414528D01*
X622808Y420116D02*
X629920D01*
X626364Y416560D02*
Y423672D01*
X586232Y390144D02*
X593344D01*
X589788Y386588D02*
Y393700D01*
X573278Y390144D02*
X580390D01*
X576834Y386588D02*
Y393700D01*
X450620Y753110D02*
X453620D01*
X452120Y751610D02*
Y754610D01*
X415314Y802386D02*
X418314D01*
X416814Y800886D02*
Y803886D01*
X332510Y812038D02*
X335510D01*
X334010Y810538D02*
Y813538D01*
X316762Y785622D02*
X319762D01*
X318262Y784122D02*
Y787122D01*
X603790Y31750D02*
X607790D01*
X605790Y29750D02*
Y33750D01*
X597440Y48768D02*
X601440D01*
X599440Y46768D02*
Y50768D01*
X332002Y153162D02*
X335002D01*
X333502Y151662D02*
Y154662D01*
X798854Y626618D02*
X801854D01*
X800354Y625118D02*
Y628118D01*
X362736Y522224D02*
X365736D01*
X364236Y520724D02*
Y523724D01*
X308634Y323342D02*
X311634D01*
X310134Y321842D02*
Y324842D01*
X349782Y235966D02*
X352782D01*
X351282Y234466D02*
Y237466D01*
X221258Y613664D02*
X224258D01*
X222758Y612164D02*
Y615164D01*
X694206Y299974D02*
X697206D01*
X695706Y298474D02*
Y301474D01*
X684046Y212598D02*
X687046D01*
X685546Y211098D02*
Y214098D01*
X796060Y98044D02*
X799060D01*
X797560Y96544D02*
Y99544D01*
X138454Y613664D02*
X141454D01*
X139954Y612164D02*
Y615164D01*
X29234Y561086D02*
X32234D01*
X30734Y559586D02*
Y562586D01*
X311428Y37338D02*
X314428D01*
X312928Y35838D02*
Y38838D01*
X117626Y52070D02*
X120626D01*
X119126Y50570D02*
Y53570D01*
X227354Y293116D02*
X230354D01*
X228854Y291616D02*
Y294616D01*
X635786Y620014D02*
X638786D01*
X637286Y618514D02*
Y621514D01*
X424966Y704088D02*
X427966D01*
X426466Y702588D02*
Y705588D01*
X470432Y679196D02*
X473432D01*
X471932Y677696D02*
Y680696D01*
X308888Y738124D02*
X311888D01*
X310388Y736624D02*
Y739624D01*
X172236Y701294D02*
X175236D01*
X173736Y699794D02*
Y702794D01*
X558570Y784606D02*
X561570D01*
X560070Y783106D02*
Y786106D01*
X723924Y783590D02*
X726924D01*
X725424Y782090D02*
Y785090D01*
X683792Y771144D02*
X686792D01*
X685292Y769644D02*
Y772644D01*
X531900Y536956D02*
X534900D01*
X533400Y535456D02*
Y538456D01*
X445540Y333248D02*
X448540D01*
X447040Y331748D02*
Y334748D01*
X739926Y406654D02*
X742926D01*
X741426Y405154D02*
Y408154D01*
X793520Y409702D02*
X796520D01*
X795020Y408202D02*
Y411202D01*
X795298Y526288D02*
X798298D01*
X796798Y524788D02*
Y527788D01*
X735608Y516890D02*
X738608D01*
X737108Y515390D02*
Y518390D01*
X585240Y64516D02*
X588240D01*
X586740Y63016D02*
Y66016D01*
X52856Y174244D02*
X55856D01*
X54356Y172744D02*
Y175744D01*
X39648Y298450D02*
X42648D01*
X41148Y296950D02*
Y299950D01*
X401852Y194310D02*
X404852D01*
X403352Y192810D02*
Y195810D01*
X360196Y193294D02*
X363196D01*
X361696Y191794D02*
Y194794D01*
X394228Y48260D02*
X396728D01*
X395478Y47010D02*
Y49510D01*
X648994Y479298D02*
X651994D01*
X650494Y477798D02*
Y480798D01*
X666266Y479044D02*
X669266D01*
X667766Y477544D02*
Y480544D01*
X665504Y465074D02*
X668504D01*
X667004Y463574D02*
Y466574D01*
X657884Y472440D02*
X660884D01*
X659384Y470940D02*
Y473940D01*
X650010Y465582D02*
X653010D01*
X651510Y464082D02*
Y467082D01*
X557808Y444246D02*
X560808D01*
X559308Y442746D02*
Y445746D01*
X569238Y444246D02*
X572238D01*
X570738Y442746D02*
Y445746D01*
X546124Y443738D02*
X549124D01*
X547624Y442238D02*
Y445238D01*
X683534Y124460D02*
X686034D01*
X684784Y123210D02*
Y125710D01*
X537230Y349758D02*
X539730D01*
X538480Y348508D02*
Y351008D01*
X370102Y753110D02*
X373102D01*
X371602Y751610D02*
Y754610D01*
X348766Y752348D02*
X351766D01*
X350266Y750848D02*
Y753848D01*
X359434Y745490D02*
X362434D01*
X360934Y743990D02*
Y746990D01*
X201950Y786638D02*
X204450D01*
X203200Y785388D02*
Y787888D01*
X250210Y789178D02*
X252710D01*
X251460Y787928D02*
Y790428D01*
X178316Y738874D02*
X181316D01*
X179816Y737374D02*
Y740374D01*
X370864Y737870D02*
X373864D01*
X372364Y736370D02*
Y739370D01*
X348258Y738378D02*
X351258D01*
X349758Y736878D02*
Y739878D01*
X205506Y219202D02*
X208006D01*
X206756Y217952D02*
Y220452D01*
X404388Y147828D02*
X406888D01*
X405638Y146578D02*
Y149078D01*
X262148Y186944D02*
X264648D01*
X263398Y185694D02*
Y188194D01*
X204998Y157226D02*
X207498D01*
X206248Y155976D02*
Y158476D01*
X423704Y387858D02*
X427704D01*
X425704Y385858D02*
Y389858D01*
X399320Y439166D02*
X403320D01*
X401320Y437166D02*
Y441166D01*
X286290Y505968D02*
X290290D01*
X288290Y503968D02*
Y507968D01*
X299498Y532130D02*
X303498D01*
X301498Y530130D02*
Y534130D01*
X329978Y526796D02*
X333978D01*
X331978Y524796D02*
Y528796D01*
X273844Y371094D02*
X277844D01*
X275844Y369094D02*
Y373094D01*
X224883Y459933D02*
X228883D01*
X226884Y457933D02*
Y461932D01*
X160528Y676656D02*
X167640D01*
X164084Y673100D02*
Y680212D01*
X277908Y460946D02*
X281908D01*
X279908Y458946D02*
Y462946D01*
X122714Y527304D02*
X126714D01*
X124714Y525304D02*
Y529304D01*
X447318Y553974D02*
X450318D01*
X448818Y552474D02*
Y555474D01*
X234220Y488696D02*
X238220D01*
X236220Y486696D02*
Y490696D01*
X429792Y545338D02*
X432792D01*
X431292Y543838D02*
Y546838D01*
X77248Y354584D02*
X81248D01*
X79248Y352584D02*
Y356584D01*
X208312Y352044D02*
X212312D01*
X210312Y350044D02*
Y354044D01*
X59976Y530606D02*
X63976D01*
X61976Y528606D02*
Y532606D01*
X327946Y460502D02*
X331946D01*
X329946Y458502D02*
Y462502D01*
X459002Y538480D02*
X462002D01*
X460502Y536980D02*
Y539980D01*
X113316Y303530D02*
X117316D01*
X115316Y301530D02*
Y305530D01*
X277146Y326390D02*
X281146D01*
X279146Y324390D02*
Y328390D01*
X274860Y340868D02*
X278860D01*
X276860Y338868D02*
Y342868D01*
X87916Y472694D02*
X91916D01*
X89916Y470694D02*
Y474694D01*
X272970Y354967D02*
X276970D01*
X274970Y352967D02*
Y356967D01*
X187198Y686308D02*
X194310D01*
X190754Y682752D02*
Y689864D01*
X142018Y460502D02*
X146018D01*
X144018Y458502D02*
Y462502D01*
X301784Y338836D02*
X305784D01*
X303784Y336836D02*
Y340836D01*
X208312Y473710D02*
X212312D01*
X210312Y471710D02*
Y475710D01*
X113316Y536956D02*
X117316D01*
X115316Y534956D02*
Y538956D01*
X155448Y200660D02*
X162560D01*
X159004Y197104D02*
Y204216D01*
X155448Y214630D02*
X162560D01*
X159004Y211074D02*
Y218186D01*
X218980Y224028D02*
X222980D01*
X220980Y222028D02*
Y226028D01*
X115348Y482854D02*
X119348D01*
X117348Y480854D02*
Y484854D01*
X103156Y551434D02*
X107156D01*
X105156Y549434D02*
Y553434D01*
X205518Y701802D02*
X209518D01*
X207518Y699802D02*
Y703802D01*
X251746Y721868D02*
X255746D01*
X253746Y719868D02*
Y723868D01*
X360704Y435610D02*
X363704D01*
X362204Y434110D02*
Y437110D01*
X392684Y463550D02*
X399796D01*
X396240Y459994D02*
Y467106D01*
X501428Y119888D02*
X505428D01*
X503428Y117888D02*
Y121888D01*
X488982Y239014D02*
X492982D01*
X490982Y237014D02*
Y241014D01*
X561626Y303530D02*
X565626D01*
X563626Y301530D02*
Y305530D01*
X404368Y472948D02*
X411480D01*
X407924Y469392D02*
Y476504D01*
X416306Y482600D02*
X423418D01*
X419862Y479044D02*
Y486156D01*
X492252Y740410D02*
X499364D01*
X495808Y736854D02*
Y743966D01*
X251992Y262890D02*
X254992D01*
X253492Y261390D02*
Y264390D01*
X143034Y525526D02*
X147034D01*
X145034Y523526D02*
Y527526D01*
X646208Y376682D02*
X650208D01*
X648208Y374682D02*
Y378682D01*
X699770Y482346D02*
X706882D01*
X703326Y478790D02*
Y485902D01*
X698754Y467360D02*
X705866D01*
X702310Y463804D02*
Y470916D01*
X608330Y711962D02*
X615442D01*
X611886Y708406D02*
Y715518D01*
X608838Y726694D02*
X615950D01*
X612394Y723138D02*
Y730250D01*
X713518Y732346D02*
X717518D01*
X715518Y730346D02*
Y734346D01*
X371602Y618744D02*
X378714D01*
X375158Y615188D02*
Y622300D01*
X386588Y618490D02*
X393700D01*
X390144Y614934D02*
Y622046D01*
X659638Y417830D02*
X666750D01*
X663194Y414274D02*
Y421386D01*
X659638Y403860D02*
X666750D01*
X663194Y400304D02*
Y407416D01*
X327406Y341884D02*
X334518D01*
X330962Y338328D02*
Y345440D01*
X335788Y330454D02*
X342900D01*
X339344Y326898D02*
Y334010D01*
X346202Y319468D02*
X353314D01*
X349758Y315912D02*
Y323024D01*
X401320Y618236D02*
X408432D01*
X404876Y614680D02*
Y621792D01*
X663448Y675640D02*
X670560D01*
X667004Y672084D02*
Y679196D01*
X728504Y697230D02*
X732504D01*
X730504Y695230D02*
Y699230D01*
X767874Y695960D02*
X771874D01*
X769874Y693960D02*
Y697960D01*
X711994Y698500D02*
X715994D01*
X713994Y696500D02*
Y700500D01*
X678688Y675640D02*
X685800D01*
X682244Y672084D02*
Y679196D01*
M02*
