M48
;Layer_Color=9474304
;FILE_FORMAT=4:4
METRIC,TZ
;TYPE=PLATED
T01F00S00C0.2500
T02F00S00C0.3000
T03F00S00C0.4000
T05F00S00C0.7112
T06F00S00C0.9000
T07F00S00C1.0200
;TYPE=NON_PLATED
T08F00S00C0.6000
T11F00S00C3.2000
%
T01
X684784Y124460
X538480Y349758
X405638Y147828
X395478Y48260
X263398Y186944
X206248Y157226
X206756Y219202
X203200Y786638
X251460Y789178
T02
X586740Y64516
X797560Y98044
X685546Y212598
X695706Y299974
X447040Y333248
X310134Y323342
X228854Y293116
X253492Y262890
X351282Y235966
X361696Y193294
X403352Y194310
X333502Y153162
X312928Y37338
X119126Y52070
X54356Y174244
X41148Y298450
X30734Y561086
X139954Y613664
X222758
X173736Y701294
X179816Y738874
X310388Y738124
X349758Y738378
X350266Y752348
X360934Y745490
X371602Y753110
X372364Y737870
X426466Y704088
X471932Y679196
X452120Y753110
X448818Y553974
X431292Y545338
X460502Y538480
X364236Y522224
X362204Y435610
X160665Y417240
X146665
Y403240
X139665Y410240
Y396240
X146665Y389240
X160665
X153665Y396240
X160665Y403240
X153665Y410240
X167665
Y396240
X547624Y443738
X559308Y444246
X570738
X651510Y465582
X650494Y479298
X659384Y472440
X667766Y479044
X667004Y465074
X737108Y516890
X796798Y526288
X800354Y626618
X637286Y620014
X533400Y536956
X741426Y406654
X795020Y409702
X725424Y783590
X685292Y771144
X560070Y784606
X416814Y802386
X334010Y812038
X318262Y785622
T03
X605790Y31750
X599440Y48768
X563626Y303530
X490982Y239014
X503428Y119888
X220980Y224028
X210312Y352044
X274970Y354967
X276860Y340868
X279146Y326390
X303784Y338836
X115316Y303530
X79248Y354584
X89916Y472694
X117348Y482854
X124714Y527304
X115316Y536956
X105156Y551434
X61976Y530606
X145034Y525526
X144018Y460502
X191770Y430784
X210312Y473710
X226884Y459933
X236220Y488696
X288290Y505968
X301498Y532130
X331978Y526796
X329946Y460502
X279908Y460946
X275844Y371094
X425704Y387858
X401320Y439166
X253746Y721868
X207518Y701802
X713994Y698500
X730504Y697230
X769874Y695960
X715518Y732346
X648208Y376682
T05
X159004Y200660
Y214630
X349758Y319468
X339344Y330454
X330962Y341884
X396240Y463550
X407924Y472948
X419862Y482600
X404876Y618236
X390144Y618490
X375158Y618744
X495808Y740410
X190754Y686308
X164084Y676656
X611886Y711962
X612394Y726694
X667004Y675640
X682244
X703326Y482346
X702310Y467360
X663194Y417830
Y403860
X626364Y420116
X616966Y410972
X589788Y390144
X576834
T06
X547878Y21336
X573278
X522478
X497078
X64008Y611632
Y637032
X766572Y482854
Y457454
X631190Y801878
X605790
X523494Y805688
X498094
X472694
X447294
X151130Y782828
X125730
T07
X82804Y575310
X108204
X133604
X159004
X184404
X209804
X235204
X260604
X286004
X311404
X336804
X362204
X387604
X413004
X438404
T08
X364208Y55798
T11
X791600Y40000
X40000
X791600Y783790
X40000
M30
