G04*
G04 #@! TF.GenerationSoftware,Altium Limited,Altium Designer,26.3.0 (6)*
G04*
G04 Layer_Color=16711935*
%FSLAX44Y44*%
%MOMM*%
G71*
G04*
G04 #@! TF.SameCoordinates,A193BC64-9647-4758-90A1-BE3C94D63F3F*
G04*
G04*
G04 #@! TF.FilePolarity,Negative*
G04*
G01*
G75*
%ADD81R,1.7032X1.7032*%
%ADD82C,1.7032*%
%ADD83C,1.5700*%
G04:AMPARAMS|DCode=84|XSize=2.3mm|YSize=1.3mm|CornerRadius=0.65mm|HoleSize=0mm|Usage=FLASHONLY|Rotation=90.000|XOffset=0mm|YOffset=0mm|HoleType=Round|Shape=RoundedRectangle|*
%AMROUNDEDRECTD84*
21,1,2.3000,0.0000,0,0,90.0*
21,1,1.0000,1.3000,0,0,90.0*
1,1,1.3000,0.0000,0.5000*
1,1,1.3000,0.0000,-0.5000*
1,1,1.3000,0.0000,-0.5000*
1,1,1.3000,0.0000,0.5000*
%
%ADD84ROUNDEDRECTD84*%
G04:AMPARAMS|DCode=85|XSize=2.6mm|YSize=1.3mm|CornerRadius=0.65mm|HoleSize=0mm|Usage=FLASHONLY|Rotation=90.000|XOffset=0mm|YOffset=0mm|HoleType=Round|Shape=RoundedRectangle|*
%AMROUNDEDRECTD85*
21,1,2.6000,0.0000,0,0,90.0*
21,1,1.3000,1.3000,0,0,90.0*
1,1,1.3000,0.0000,0.6500*
1,1,1.3000,0.0000,-0.6500*
1,1,1.3000,0.0000,-0.6500*
1,1,1.3000,0.0000,0.6500*
%
%ADD85ROUNDEDRECTD85*%
%ADD86R,1.5700X1.5700*%
G04:AMPARAMS|DCode=87|XSize=0.85mm|YSize=0.6mm|CornerRadius=0.3mm|HoleSize=0mm|Usage=FLASHONLY|Rotation=0.000|XOffset=0mm|YOffset=0mm|HoleType=Round|Shape=RoundedRectangle|*
%AMROUNDEDRECTD87*
21,1,0.8500,0.0000,0,0,0.0*
21,1,0.2500,0.6000,0,0,0.0*
1,1,0.6000,0.1250,0.0000*
1,1,0.6000,-0.1250,0.0000*
1,1,0.6000,-0.1250,0.0000*
1,1,0.6000,0.1250,0.0000*
%
%ADD87ROUNDEDRECTD87*%
%ADD88C,0.6000*%
%ADD89R,1.7032X1.7032*%
%ADD90C,5.7032*%
D81*
X497078Y21336D02*
D03*
X523494Y805688D02*
D03*
X631190Y801878D02*
D03*
X125730Y782828D02*
D03*
D82*
X547878Y21336D02*
D03*
X573278D02*
D03*
X522478D02*
D03*
X498094Y805688D02*
D03*
X472694D02*
D03*
X447294D02*
D03*
X766572Y482854D02*
D03*
X605790Y801878D02*
D03*
X64008Y611632D02*
D03*
X151130Y782828D02*
D03*
D83*
X387604Y575310D02*
D03*
X133604D02*
D03*
X82804D02*
D03*
X311404D02*
D03*
X209804D02*
D03*
X159004D02*
D03*
X108204D02*
D03*
X362204D02*
D03*
X336804D02*
D03*
X184404D02*
D03*
X413004D02*
D03*
X235204D02*
D03*
X260604D02*
D03*
X286004D02*
D03*
D84*
X437408Y63048D02*
D03*
X351008D02*
D03*
D85*
Y24798D02*
D03*
X437408D02*
D03*
D86*
X438404Y575310D02*
D03*
D87*
X424208Y55798D02*
D03*
D88*
X364208D02*
D03*
D89*
X766572Y457454D02*
D03*
X64008Y637032D02*
D03*
D90*
X40000Y40000D02*
D03*
X791600D02*
D03*
Y783790D02*
D03*
X40000D02*
D03*
M02*
