G04*
G04 #@! TF.GenerationSoftware,Altium Limited,Altium Designer,26.3.0 (6)*
G04*
G04 Layer_Color=8388736*
%FSLAX44Y44*%
%MOMM*%
G71*
G04*
G04 #@! TF.SameCoordinates,A193BC64-9647-4758-90A1-BE3C94D63F3F*
G04*
G04*
G04 #@! TF.FilePolarity,Negative*
G04*
G01*
G75*
%ADD17R,0.9000X1.1000*%
%ADD18R,1.4082X0.9587*%
%ADD23R,1.3046X1.4621*%
G04:AMPARAMS|DCode=24|XSize=1.6554mm|YSize=0.3808mm|CornerRadius=0.1904mm|HoleSize=0mm|Usage=FLASHONLY|Rotation=90.000|XOffset=0mm|YOffset=0mm|HoleType=Round|Shape=RoundedRectangle|*
%AMROUNDEDRECTD24*
21,1,1.6554,0.0000,0,0,90.0*
21,1,1.2747,0.3808,0,0,90.0*
1,1,0.3808,0.0000,0.6373*
1,1,0.3808,0.0000,-0.6373*
1,1,0.3808,0.0000,-0.6373*
1,1,0.3808,0.0000,0.6373*
%
%ADD24ROUNDEDRECTD24*%
%ADD25R,0.9587X1.4082*%
%ADD26R,1.4621X1.3046*%
%ADD27R,1.4034X1.4562*%
%ADD28R,1.4562X1.4034*%
%ADD29R,1.3621X1.0081*%
%ADD32R,1.3500X0.9500*%
%ADD33R,1.2500X1.0000*%
%ADD34R,0.8508X1.7612*%
%ADD36R,2.4000X2.9000*%
%ADD37R,3.1508X1.7612*%
%ADD38R,2.1000X1.4000*%
%ADD40R,0.9000X1.2000*%
%ADD42R,2.9000X2.4000*%
%ADD45R,1.0000X1.2000*%
%ADD46R,0.7000X1.2000*%
%ADD47C,1.1447*%
%ADD48R,1.0000X2.8000*%
%ADD49R,1.1546X1.3621*%
%ADD50R,1.0081X1.3621*%
%ADD51R,0.5200X1.0000*%
%ADD52R,0.2700X1.0000*%
%ADD53R,1.0000X2.0000*%
%ADD57R,0.3808X1.6554*%
%ADD59R,1.4082X1.1061*%
%ADD60R,1.6000X1.0000*%
%ADD62R,1.0000X0.8000*%
G04:AMPARAMS|DCode=63|XSize=2.1732mm|YSize=0.8032mm|CornerRadius=0.1766mm|HoleSize=0mm|Usage=FLASHONLY|Rotation=90.000|XOffset=0mm|YOffset=0mm|HoleType=Round|Shape=RoundedRectangle|*
%AMROUNDEDRECTD63*
21,1,2.1732,0.4500,0,0,90.0*
21,1,1.8200,0.8032,0,0,90.0*
1,1,0.3532,0.2250,0.9100*
1,1,0.3532,0.2250,-0.9100*
1,1,0.3532,-0.2250,-0.9100*
1,1,0.3532,-0.2250,0.9100*
%
%ADD63ROUNDEDRECTD63*%
%ADD64R,1.1032X1.7032*%
%ADD65R,1.7032X1.1032*%
%ADD66R,1.1032X1.1032*%
%ADD67R,2.7700X2.4600*%
G04:AMPARAMS|DCode=68|XSize=1.7632mm|YSize=0.6032mm|CornerRadius=0.1516mm|HoleSize=0mm|Usage=FLASHONLY|Rotation=180.000|XOffset=0mm|YOffset=0mm|HoleType=Round|Shape=RoundedRectangle|*
%AMROUNDEDRECTD68*
21,1,1.7632,0.3000,0,0,180.0*
21,1,1.4600,0.6032,0,0,180.0*
1,1,0.3032,-0.7300,0.1500*
1,1,0.3032,0.7300,0.1500*
1,1,0.3032,0.7300,-0.1500*
1,1,0.3032,-0.7300,-0.1500*
%
%ADD68ROUNDEDRECTD68*%
%ADD69R,2.7032X3.7032*%
%ADD70R,3.7032X2.7032*%
%ADD71R,3.5052X2.6162*%
G04:AMPARAMS|DCode=72|XSize=1.0432mm|YSize=0.4732mm|CornerRadius=0.1354mm|HoleSize=0mm|Usage=FLASHONLY|Rotation=180.000|XOffset=0mm|YOffset=0mm|HoleType=Round|Shape=RoundedRectangle|*
%AMROUNDEDRECTD72*
21,1,1.0432,0.2025,0,0,180.0*
21,1,0.7725,0.4732,0,0,180.0*
1,1,0.2707,-0.3863,0.1013*
1,1,0.2707,0.3863,0.1013*
1,1,0.2707,0.3863,-0.1013*
1,1,0.2707,-0.3863,-0.1013*
%
%ADD72ROUNDEDRECTD72*%
%ADD73R,1.3032X1.3032*%
G04:AMPARAMS|DCode=74|XSize=0.4732mm|YSize=1.0432mm|CornerRadius=0.1354mm|HoleSize=0mm|Usage=FLASHONLY|Rotation=180.000|XOffset=0mm|YOffset=0mm|HoleType=Round|Shape=RoundedRectangle|*
%AMROUNDEDRECTD74*
21,1,0.4732,0.7725,0,0,180.0*
21,1,0.2025,1.0432,0,0,180.0*
1,1,0.2707,-0.1013,0.3863*
1,1,0.2707,0.1013,0.3863*
1,1,0.2707,0.1013,-0.3863*
1,1,0.2707,-0.1013,-0.3863*
%
%ADD74ROUNDEDRECTD74*%
%ADD75R,1.4532X1.4232*%
G04:AMPARAMS|DCode=76|XSize=0.7032mm|YSize=0.7032mm|CornerRadius=0.1641mm|HoleSize=0mm|Usage=FLASHONLY|Rotation=180.000|XOffset=0mm|YOffset=0mm|HoleType=Round|Shape=RoundedRectangle|*
%AMROUNDEDRECTD76*
21,1,0.7032,0.3750,0,0,180.0*
21,1,0.3750,0.7032,0,0,180.0*
1,1,0.3282,-0.1875,0.1875*
1,1,0.3282,0.1875,0.1875*
1,1,0.3282,0.1875,-0.1875*
1,1,0.3282,-0.1875,-0.1875*
%
%ADD76ROUNDEDRECTD76*%
%ADD77R,0.5532X0.7832*%
%ADD78R,0.7832X0.5532*%
%ADD79R,1.3532X1.6532*%
%ADD80R,1.4132X0.7932*%
%ADD81R,1.7032X1.7032*%
%ADD82C,1.7032*%
%ADD83C,1.5700*%
G04:AMPARAMS|DCode=84|XSize=2.3mm|YSize=1.3mm|CornerRadius=0.65mm|HoleSize=0mm|Usage=FLASHONLY|Rotation=90.000|XOffset=0mm|YOffset=0mm|HoleType=Round|Shape=RoundedRectangle|*
%AMROUNDEDRECTD84*
21,1,2.3000,0.0000,0,0,90.0*
21,1,1.0000,1.3000,0,0,90.0*
1,1,1.3000,0.0000,0.5000*
1,1,1.3000,0.0000,-0.5000*
1,1,1.3000,0.0000,-0.5000*
1,1,1.3000,0.0000,0.5000*
%
%ADD84ROUNDEDRECTD84*%
G04:AMPARAMS|DCode=85|XSize=2.6mm|YSize=1.3mm|CornerRadius=0.65mm|HoleSize=0mm|Usage=FLASHONLY|Rotation=90.000|XOffset=0mm|YOffset=0mm|HoleType=Round|Shape=RoundedRectangle|*
%AMROUNDEDRECTD85*
21,1,2.6000,0.0000,0,0,90.0*
21,1,1.3000,1.3000,0,0,90.0*
1,1,1.3000,0.0000,0.6500*
1,1,1.3000,0.0000,-0.6500*
1,1,1.3000,0.0000,-0.6500*
1,1,1.3000,0.0000,0.6500*
%
%ADD85ROUNDEDRECTD85*%
%ADD86R,1.5700X1.5700*%
G04:AMPARAMS|DCode=87|XSize=0.85mm|YSize=0.6mm|CornerRadius=0.3mm|HoleSize=0mm|Usage=FLASHONLY|Rotation=0.000|XOffset=0mm|YOffset=0mm|HoleType=Round|Shape=RoundedRectangle|*
%AMROUNDEDRECTD87*
21,1,0.8500,0.0000,0,0,0.0*
21,1,0.2500,0.6000,0,0,0.0*
1,1,0.6000,0.1250,0.0000*
1,1,0.6000,-0.1250,0.0000*
1,1,0.6000,-0.1250,0.0000*
1,1,0.6000,0.1250,0.0000*
%
%ADD87ROUNDEDRECTD87*%
%ADD88C,0.6000*%
%ADD89R,1.7032X1.7032*%
%ADD90C,5.7032*%
G36*
X295754Y9420D02*
X277254D01*
Y12920D01*
X281254D01*
X282754Y14420D01*
Y28420D01*
X295754D01*
Y9420D01*
D02*
G37*
D17*
X382320Y807974D02*
D03*
X401320D02*
D03*
D18*
X433324Y747137D02*
D03*
Y728603D02*
D03*
D23*
X513976Y335280D02*
D03*
Y363982D02*
D03*
X670212Y71081D02*
D03*
X710826Y70866D02*
D03*
X79090Y299389D02*
D03*
X95106D02*
D03*
X654196Y71081D02*
D03*
X694810Y70866D02*
D03*
X497960Y363982D02*
D03*
Y335280D02*
D03*
D24*
X656134Y500694D02*
D03*
X669134Y444186D02*
D03*
X649634D02*
D03*
X636634Y500694D02*
D03*
X675634D02*
D03*
X682134D02*
D03*
X643134D02*
D03*
X669134D02*
D03*
X662634D02*
D03*
X649634D02*
D03*
X682134Y444186D02*
D03*
X675634D02*
D03*
X662634D02*
D03*
X656134D02*
D03*
X643134D02*
D03*
D25*
X683776Y718820D02*
D03*
X702310D02*
D03*
D26*
X132334Y695706D02*
D03*
X492252Y176744D02*
D03*
X132334Y711722D02*
D03*
X778764Y728098D02*
D03*
Y712082D02*
D03*
X492252Y192760D02*
D03*
D27*
X205610Y198120D02*
D03*
X565992Y531378D02*
D03*
X221618Y198120D02*
D03*
X581999Y531378D02*
D03*
D28*
X508962Y466199D02*
D03*
X404005Y780149D02*
D03*
X508962Y482207D02*
D03*
X404005Y764141D02*
D03*
D29*
X408795Y108976D02*
D03*
X86434Y530839D02*
D03*
Y548879D02*
D03*
X685310Y399288D02*
D03*
Y417328D02*
D03*
X408795Y90936D02*
D03*
D32*
X655574Y543320D02*
D03*
X403224Y741277D02*
D03*
X655574Y528320D02*
D03*
X403224Y726277D02*
D03*
D33*
X622554Y547210D02*
D03*
Y527210D02*
D03*
D34*
X559054Y505230D02*
D03*
X536054D02*
D03*
X582054D02*
D03*
D36*
X522204Y580390D02*
D03*
X583204D02*
D03*
D37*
X559054Y444730D02*
D03*
D38*
X618000Y178922D02*
D03*
X526508Y108056D02*
D03*
X526000Y178922D02*
D03*
X617000Y223922D02*
D03*
X526508Y153056D02*
D03*
X526000Y223922D02*
D03*
X618508Y108056D02*
D03*
X617508Y153056D02*
D03*
D40*
X237576Y744728D02*
D03*
X237662Y763270D02*
D03*
X216576Y744728D02*
D03*
X216662Y763270D02*
D03*
D42*
X460248Y442194D02*
D03*
Y503194D02*
D03*
D45*
X265754Y169920D02*
D03*
X154254Y126920D02*
D03*
D46*
X195254Y169920D02*
D03*
X250254D02*
D03*
X173254D02*
D03*
X228254D02*
D03*
X206254D02*
D03*
X239254D02*
D03*
X217254D02*
D03*
X184254D02*
D03*
X163754D02*
D03*
D47*
X289395Y15779D02*
D03*
D48*
X154254Y23420D02*
D03*
D49*
X306242Y700000D02*
D03*
X323758D02*
D03*
D50*
X353438Y90424D02*
D03*
X280794Y475488D02*
D03*
X278762Y204470D02*
D03*
X299206Y437896D02*
D03*
X132464Y180340D02*
D03*
X290452Y262382D02*
D03*
X147444Y548640D02*
D03*
X296548Y231140D02*
D03*
X114424Y180340D02*
D03*
X278508Y231140D02*
D03*
X296802Y204470D02*
D03*
X272412Y262382D02*
D03*
X317246Y437896D02*
D03*
X295278Y607314D02*
D03*
X298834Y475488D02*
D03*
X475866Y219964D02*
D03*
X312036Y262382D02*
D03*
X165484Y548640D02*
D03*
X330076Y262382D02*
D03*
X371478Y90424D02*
D03*
X277238Y607314D02*
D03*
X493906Y219964D02*
D03*
D51*
X425208Y66798D02*
D03*
X363208D02*
D03*
X417708D02*
D03*
X370708D02*
D03*
D52*
X411708D02*
D03*
X381708D02*
D03*
X386708D02*
D03*
X401708D02*
D03*
X391708D02*
D03*
X396708D02*
D03*
X406708D02*
D03*
X376708D02*
D03*
D53*
X408208Y24798D02*
D03*
X380208D02*
D03*
D57*
X636634Y444186D02*
D03*
D59*
X806704Y727581D02*
D03*
Y710059D02*
D03*
D60*
X638556Y705598D02*
D03*
Y735598D02*
D03*
D62*
X154254Y64920D02*
D03*
D63*
X354584Y770240D02*
D03*
X367284Y720740D02*
D03*
X341884D02*
D03*
X379984Y770240D02*
D03*
Y720740D02*
D03*
X341884Y770240D02*
D03*
X354584Y720740D02*
D03*
X367284Y770240D02*
D03*
D64*
X139965Y505740D02*
D03*
X203465Y330740D02*
D03*
X190765D02*
D03*
X178065Y505740D02*
D03*
X101865D02*
D03*
X241565Y330740D02*
D03*
X228865D02*
D03*
X216165D02*
D03*
X101865D02*
D03*
X114565D02*
D03*
X152665D02*
D03*
X165365D02*
D03*
X241565Y505740D02*
D03*
X228865D02*
D03*
X216165D02*
D03*
X203465D02*
D03*
X190765D02*
D03*
X165365D02*
D03*
X152665D02*
D03*
X127265D02*
D03*
X114565D02*
D03*
X89165D02*
D03*
X178065Y330740D02*
D03*
X139965D02*
D03*
X76465Y505740D02*
D03*
Y330740D02*
D03*
X89165D02*
D03*
X127265D02*
D03*
D65*
X254065Y462690D02*
D03*
Y449990D02*
D03*
Y437290D02*
D03*
Y475390D02*
D03*
Y348390D02*
D03*
Y361090D02*
D03*
Y373790D02*
D03*
Y386490D02*
D03*
Y399190D02*
D03*
Y411890D02*
D03*
Y424590D02*
D03*
Y488090D02*
D03*
D66*
X167665Y417240D02*
D03*
X139665D02*
D03*
X153665D02*
D03*
Y403240D02*
D03*
X167665D02*
D03*
Y389240D02*
D03*
X153665D02*
D03*
X139665Y403240D02*
D03*
Y389240D02*
D03*
D67*
X659384Y472440D02*
D03*
D68*
X769464Y678890D02*
D03*
Y672390D02*
D03*
X711864D02*
D03*
Y678890D02*
D03*
X769464Y665890D02*
D03*
Y685390D02*
D03*
X711864D02*
D03*
Y665890D02*
D03*
D69*
X715088Y629400D02*
D03*
Y564400D02*
D03*
D70*
X520211Y686470D02*
D03*
X82054Y238760D02*
D03*
X27190Y708914D02*
D03*
X147054Y238760D02*
D03*
X585211Y686470D02*
D03*
X92190Y708914D02*
D03*
D71*
X360934Y745490D02*
D03*
D72*
X194166Y741374D02*
D03*
X165466Y736374D02*
D03*
X194166Y731374D02*
D03*
Y736374D02*
D03*
Y746374D02*
D03*
X165466D02*
D03*
Y741374D02*
D03*
Y731374D02*
D03*
D73*
X179816Y738874D02*
D03*
D74*
X182316Y724524D02*
D03*
X177316D02*
D03*
X187316D02*
D03*
X177316Y753224D02*
D03*
X172316D02*
D03*
X187316D02*
D03*
X182316D02*
D03*
X172316Y724524D02*
D03*
D75*
X462044Y94234D02*
D03*
X432544D02*
D03*
D76*
X694447Y18151D02*
D03*
X686447Y42151D02*
D03*
X670247D02*
D03*
X694447D02*
D03*
X686447Y18151D02*
D03*
X678447Y42151D02*
D03*
Y18151D02*
D03*
X670447D02*
D03*
D77*
X461130Y337500D02*
D03*
Y361000D02*
D03*
X466130D02*
D03*
X471130D02*
D03*
X476130D02*
D03*
X466130Y337500D02*
D03*
X471130D02*
D03*
X476130D02*
D03*
D78*
X477880Y354250D02*
D03*
Y349250D02*
D03*
X459380Y344250D02*
D03*
Y349250D02*
D03*
Y354250D02*
D03*
X477880Y344250D02*
D03*
D79*
X698796Y533360D02*
D03*
X680796D02*
D03*
D80*
X753364Y728930D02*
D03*
X728264D02*
D03*
Y719430D02*
D03*
Y709930D02*
D03*
X753364D02*
D03*
Y719430D02*
D03*
D81*
X497078Y21336D02*
D03*
X523494Y805688D02*
D03*
X631190Y801878D02*
D03*
X125730Y782828D02*
D03*
D82*
X547878Y21336D02*
D03*
X573278D02*
D03*
X522478D02*
D03*
X498094Y805688D02*
D03*
X472694D02*
D03*
X447294D02*
D03*
X766572Y482854D02*
D03*
X605790Y801878D02*
D03*
X64008Y611632D02*
D03*
X151130Y782828D02*
D03*
D83*
X387604Y575310D02*
D03*
X133604D02*
D03*
X82804D02*
D03*
X311404D02*
D03*
X209804D02*
D03*
X159004D02*
D03*
X108204D02*
D03*
X362204D02*
D03*
X336804D02*
D03*
X184404D02*
D03*
X413004D02*
D03*
X235204D02*
D03*
X260604D02*
D03*
X286004D02*
D03*
D84*
X437408Y63048D02*
D03*
X351008D02*
D03*
D85*
Y24798D02*
D03*
X437408D02*
D03*
D86*
X438404Y575310D02*
D03*
D87*
X424208Y55798D02*
D03*
D88*
X364208D02*
D03*
D89*
X766572Y457454D02*
D03*
X64008Y637032D02*
D03*
D90*
X40000Y40000D02*
D03*
X791600D02*
D03*
Y783790D02*
D03*
X40000D02*
D03*
M02*
